%TF.GenerationSoftware,KiCad,Pcbnew,8.0.1*%
%TF.CreationDate,2024-05-15T12:48:43+01:00*%
%TF.ProjectId,f1-led-circuit,66312d6c-6564-42d6-9369-72637569742e,v1.0*%
%TF.SameCoordinates,Original*%
%TF.FileFunction,Soldermask,Top*%
%TF.FilePolarity,Negative*%
%FSLAX46Y46*%
G04 Gerber Fmt 4.6, Leading zero omitted, Abs format (unit mm)*
G04 Created by KiCad (PCBNEW 8.0.1) date 2024-05-15 12:48:43*
%MOMM*%
%LPD*%
G01*
G04 APERTURE LIST*
G04 Aperture macros list*
%AMRoundRect*
0 Rectangle with rounded corners*
0 $1 Rounding radius*
0 $2 $3 $4 $5 $6 $7 $8 $9 X,Y pos of 4 corners*
0 Add a 4 corners polygon primitive as box body*
4,1,4,$2,$3,$4,$5,$6,$7,$8,$9,$2,$3,0*
0 Add four circle primitives for the rounded corners*
1,1,$1+$1,$2,$3*
1,1,$1+$1,$4,$5*
1,1,$1+$1,$6,$7*
1,1,$1+$1,$8,$9*
0 Add four rect primitives between the rounded corners*
20,1,$1+$1,$2,$3,$4,$5,0*
20,1,$1+$1,$4,$5,$6,$7,0*
20,1,$1+$1,$6,$7,$8,$9,0*
20,1,$1+$1,$8,$9,$2,$3,0*%
%AMRotRect*
0 Rectangle, with rotation*
0 The origin of the aperture is its center*
0 $1 length*
0 $2 width*
0 $3 Rotation angle, in degrees counterclockwise*
0 Add horizontal line*
21,1,$1,$2,0,0,$3*%
%AMFreePoly0*
4,1,6,0.725000,-0.725000,-0.725000,-0.725000,-0.725000,0.125000,-0.125000,0.725000,0.725000,0.725000,0.725000,-0.725000,0.725000,-0.725000,$1*%
G04 Aperture macros list end*
%ADD10RotRect,0.600000X0.400000X345.000000*%
%ADD11C,0.650000*%
%ADD12RoundRect,0.010000X-0.300000X-0.575000X0.300000X-0.575000X0.300000X0.575000X-0.300000X0.575000X0*%
%ADD13RoundRect,0.060000X-0.150000X-0.575000X0.150000X-0.575000X0.150000X0.575000X-0.150000X0.575000X0*%
%ADD14O,1.204000X2.304000*%
%ADD15RoundRect,0.301000X-0.301000X-0.701000X0.301000X-0.701000X0.301000X0.701000X-0.301000X0.701000X0*%
%ADD16RotRect,0.600000X0.400000X120.000000*%
%ADD17R,1.550000X1.300000*%
%ADD18RoundRect,0.250000X-0.475000X0.250000X-0.475000X-0.250000X0.475000X-0.250000X0.475000X0.250000X0*%
%ADD19RotRect,0.600000X0.400000X200.000000*%
%ADD20RotRect,0.600000X0.400000X190.000000*%
%ADD21RotRect,0.600000X0.400000X247.000000*%
%ADD22RotRect,0.600000X0.400000X248.000000*%
%ADD23RotRect,0.600000X0.400000X98.000000*%
%ADD24RoundRect,0.250000X-0.250000X-0.475000X0.250000X-0.475000X0.250000X0.475000X-0.250000X0.475000X0*%
%ADD25RotRect,0.600000X0.400000X35.000000*%
%ADD26R,0.304800X0.812800*%
%ADD27R,1.854200X1.600200*%
%ADD28RotRect,0.600000X0.400000X198.000000*%
%ADD29RoundRect,0.250000X0.397383X0.360849X-0.072464X0.531859X-0.397383X-0.360849X0.072464X-0.531859X0*%
%ADD30R,0.600000X0.400000*%
%ADD31RoundRect,0.140000X-0.140000X-0.170000X0.140000X-0.170000X0.140000X0.170000X-0.140000X0.170000X0*%
%ADD32R,1.700000X1.700000*%
%ADD33O,1.700000X1.700000*%
%ADD34RotRect,0.600000X0.400000X55.000000*%
%ADD35RotRect,0.600000X0.400000X87.000000*%
%ADD36RotRect,0.600000X0.400000X355.000000*%
%ADD37RoundRect,0.250000X-1.000000X-0.650000X1.000000X-0.650000X1.000000X0.650000X-1.000000X0.650000X0*%
%ADD38RotRect,0.600000X0.400000X6.000000*%
%ADD39RotRect,0.600000X0.400000X170.000000*%
%ADD40RotRect,0.600000X0.400000X319.000000*%
%ADD41RotRect,0.600000X0.400000X67.000000*%
%ADD42RoundRect,0.140000X0.170000X-0.140000X0.170000X0.140000X-0.170000X0.140000X-0.170000X-0.140000X0*%
%ADD43RoundRect,0.250000X-0.512652X-0.159099X-0.159099X-0.512652X0.512652X0.159099X0.159099X0.512652X0*%
%ADD44RoundRect,0.140000X0.140000X0.170000X-0.140000X0.170000X-0.140000X-0.170000X0.140000X-0.170000X0*%
%ADD45R,0.800000X0.400000*%
%ADD46R,0.400000X0.800000*%
%ADD47FreePoly0,180.000000*%
%ADD48R,1.450000X1.450000*%
%ADD49R,0.700000X0.700000*%
%ADD50RotRect,0.600000X0.400000X250.000000*%
%ADD51RotRect,0.600000X0.400000X100.000000*%
%ADD52RotRect,0.600000X0.400000X99.000000*%
%ADD53RotRect,0.600000X0.400000X175.000000*%
%ADD54RoundRect,0.100000X0.100000X-0.200000X0.100000X0.200000X-0.100000X0.200000X-0.100000X-0.200000X0*%
%ADD55RoundRect,0.100000X1.300000X-1.075000X1.300000X1.075000X-1.300000X1.075000X-1.300000X-1.075000X0*%
%ADD56RotRect,0.600000X0.400000X192.000000*%
%ADD57RoundRect,0.135000X-0.135000X-0.185000X0.135000X-0.185000X0.135000X0.185000X-0.135000X0.185000X0*%
%ADD58RoundRect,0.140000X-0.170000X0.140000X-0.170000X-0.140000X0.170000X-0.140000X0.170000X0.140000X0*%
%ADD59RotRect,0.600000X0.400000X349.000000*%
%ADD60RotRect,0.600000X0.400000X70.000000*%
%ADD61RotRect,0.600000X0.400000X27.000000*%
%ADD62RotRect,0.600000X0.400000X324.000000*%
%ADD63RotRect,0.600000X0.400000X193.000000*%
%ADD64RotRect,0.600000X0.400000X237.000000*%
%ADD65RotRect,0.600000X0.400000X149.000000*%
%ADD66RotRect,0.600000X0.400000X266.000000*%
%ADD67RoundRect,0.135000X0.185000X-0.135000X0.185000X0.135000X-0.185000X0.135000X-0.185000X-0.135000X0*%
%ADD68RotRect,0.600000X0.400000X325.000000*%
%ADD69RotRect,0.600000X0.400000X42.000000*%
%ADD70RotRect,0.600000X0.400000X356.000000*%
%ADD71RoundRect,0.250000X0.250000X0.475000X-0.250000X0.475000X-0.250000X-0.475000X0.250000X-0.475000X0*%
%ADD72RoundRect,0.135000X0.135000X0.185000X-0.135000X0.185000X-0.135000X-0.185000X0.135000X-0.185000X0*%
%ADD73RotRect,0.600000X0.400000X197.000000*%
%ADD74RotRect,0.600000X0.400000X177.000000*%
%ADD75RotRect,0.600000X0.400000X210.000000*%
%ADD76RotRect,0.600000X0.400000X19.000000*%
%ADD77RotRect,0.600000X0.400000X286.000000*%
%ADD78RoundRect,0.135000X-0.185000X0.135000X-0.185000X-0.135000X0.185000X-0.135000X0.185000X0.135000X0*%
%ADD79RotRect,0.600000X0.400000X23.000000*%
%ADD80R,0.604799X0.229400*%
%ADD81RotRect,0.600000X0.400000X63.000000*%
%ADD82RotRect,0.600000X0.400000X8.000000*%
%ADD83RoundRect,0.250000X-0.044529X-0.534923X0.415723X-0.339557X0.044529X0.534923X-0.415723X0.339557X0*%
%ADD84RotRect,0.600000X0.400000X202.000000*%
%ADD85R,0.400000X0.600000*%
%ADD86RotRect,0.600000X0.400000X123.000000*%
%ADD87RotRect,0.600000X0.400000X350.000000*%
%ADD88RotRect,0.600000X0.400000X95.000000*%
%ADD89RotRect,0.600000X0.400000X75.000000*%
%ADD90RotRect,0.600000X0.400000X354.000000*%
%ADD91C,1.295400*%
%ADD92RotRect,0.600000X0.400000X68.000000*%
%ADD93RotRect,0.600000X0.400000X2.000000*%
%ADD94RotRect,0.600000X0.400000X30.000000*%
%ADD95RoundRect,0.100000X0.225000X0.100000X-0.225000X0.100000X-0.225000X-0.100000X0.225000X-0.100000X0*%
%ADD96RotRect,0.600000X0.400000X178.000000*%
%ADD97RotRect,0.600000X0.400000X18.000000*%
%ADD98RotRect,0.600000X0.400000X292.000000*%
%ADD99RotRect,0.600000X0.400000X57.000000*%
%ADD100RoundRect,0.250000X0.475000X-0.250000X0.475000X0.250000X-0.475000X0.250000X-0.475000X-0.250000X0*%
%ADD101RoundRect,0.250000X-0.397383X-0.360849X0.072464X-0.531859X0.397383X0.360849X-0.072464X0.531859X0*%
%ADD102RotRect,0.600000X0.400000X10.000000*%
%ADD103RotRect,0.600000X0.400000X20.000000*%
%ADD104RotRect,0.600000X0.400000X195.000000*%
%ADD105RoundRect,0.102000X1.395000X-0.370000X1.395000X0.370000X-1.395000X0.370000X-1.395000X-0.370000X0*%
%ADD106RotRect,0.600000X0.400000X3.000000*%
%ADD107RotRect,0.600000X0.400000X12.000000*%
%ADD108RotRect,0.600000X0.400000X211.000000*%
%ADD109RotRect,0.600000X0.400000X16.000000*%
%ADD110RotRect,0.600000X0.400000X344.000000*%
%ADD111RotRect,0.600000X0.400000X332.000000*%
%ADD112RotRect,0.600000X0.400000X255.000000*%
%ADD113RotRect,0.600000X0.400000X305.000000*%
%ADD114RotRect,0.600000X0.400000X15.000000*%
G04 APERTURE END LIST*
D10*
%TO.C,U1*%
X174155907Y-115546086D03*
X173948852Y-116318827D03*
X173741797Y-117091567D03*
X175508203Y-115908433D03*
X175301148Y-116681173D03*
X175094093Y-117453914D03*
%TD*%
D11*
%TO.C,J1*%
X145432500Y-143357500D03*
X151212500Y-143357500D03*
D12*
X145122500Y-142282500D03*
X145922500Y-142282500D03*
D13*
X147072500Y-142282500D03*
X148072500Y-142282500D03*
X148572500Y-142282500D03*
X149572500Y-142282500D03*
D12*
X151522500Y-142282500D03*
X150722500Y-142282500D03*
D13*
X150072500Y-142282500D03*
X149072500Y-142282500D03*
X147572500Y-142282500D03*
X146572500Y-142282500D03*
D14*
X144002500Y-142857500D03*
X152642500Y-142857500D03*
D15*
X144002500Y-147037500D03*
X152642500Y-147037500D03*
%TD*%
D16*
%TO.C,U68*%
X121832179Y-92481217D03*
X122525000Y-92081218D03*
X123217821Y-91681217D03*
X121132179Y-91268783D03*
X121825000Y-90868782D03*
X122517821Y-90468783D03*
%TD*%
D17*
%TO.C,SW1*%
X180325000Y-142675000D03*
X180325000Y-147175000D03*
X188275000Y-142675000D03*
X188275000Y-147175000D03*
%TD*%
D18*
%TO.C,C24*%
X173850000Y-87400000D03*
X173850000Y-89300000D03*
%TD*%
D19*
%TO.C,U8*%
X180731400Y-103687340D03*
X180457784Y-102935585D03*
X180184169Y-102183832D03*
X179415831Y-104166168D03*
X179142216Y-103414415D03*
X178868600Y-102662660D03*
%TD*%
D20*
%TO.C,U72*%
X138278284Y-90391292D03*
X138139365Y-89603447D03*
X138000447Y-88815600D03*
X136899553Y-90634400D03*
X136760635Y-89846553D03*
X136621716Y-89058708D03*
%TD*%
D21*
%TO.C,U55*%
X129684916Y-61168231D03*
X128948512Y-60855646D03*
X128212109Y-60543061D03*
X129137891Y-62456939D03*
X128401488Y-62144354D03*
X127665084Y-61831769D03*
%TD*%
D22*
%TO.C,U45*%
X114303972Y-98850657D03*
X113562225Y-98550971D03*
X112820478Y-98251286D03*
X113779522Y-100148714D03*
X113037775Y-99849029D03*
X112296028Y-99549343D03*
%TD*%
D23*
%TO.C,U26*%
X125880207Y-105529526D03*
X126672421Y-105418188D03*
X127464636Y-105306849D03*
X125685364Y-104143151D03*
X126477579Y-104031812D03*
X127269793Y-103920474D03*
%TD*%
D24*
%TO.C,C26*%
X189125000Y-95575000D03*
X191025000Y-95575000D03*
%TD*%
D25*
%TO.C,U65*%
X129367732Y-83746182D03*
X129826594Y-84401504D03*
X130285455Y-85056825D03*
X130514545Y-82943175D03*
X130973406Y-83598496D03*
X131432268Y-84253818D03*
%TD*%
D26*
%TO.C,U202*%
X149724979Y-126427600D03*
X149074993Y-126427600D03*
X148425007Y-126427600D03*
X147775021Y-126427600D03*
X147775021Y-129272400D03*
X148425007Y-129272400D03*
X149074993Y-129272400D03*
X149724979Y-129272400D03*
D27*
X148750000Y-127850000D03*
%TD*%
D22*
%TO.C,U46*%
X115853972Y-95050657D03*
X115112225Y-94750971D03*
X114370478Y-94451286D03*
X115329522Y-96348714D03*
X114587775Y-96049029D03*
X113846028Y-95749343D03*
%TD*%
D28*
%TO.C,U81*%
X172712953Y-85319534D03*
X172465740Y-84558689D03*
X172218526Y-83797844D03*
X171381474Y-85752156D03*
X171134260Y-84991311D03*
X170887047Y-84230466D03*
%TD*%
D29*
%TO.C,C22*%
X129292708Y-74024919D03*
X127507292Y-73375081D03*
%TD*%
D30*
%TO.C,U73*%
X142150000Y-90125000D03*
X142150000Y-89325000D03*
X142150000Y-88525000D03*
X140750000Y-90125000D03*
X140750000Y-89325000D03*
X140750000Y-88525000D03*
%TD*%
D24*
%TO.C,C15*%
X117575000Y-126675000D03*
X119475000Y-126675000D03*
%TD*%
D22*
%TO.C,U42*%
X109628971Y-110475656D03*
X108887225Y-110175973D03*
X108145477Y-109876286D03*
X109104523Y-111773714D03*
X108362775Y-111474027D03*
X107621029Y-111174344D03*
%TD*%
D31*
%TO.C,C3*%
X188965000Y-148925000D03*
X189925000Y-148925000D03*
%TD*%
D32*
%TO.C,JP1*%
X162825000Y-123575000D03*
D33*
X162825000Y-121035000D03*
%TD*%
D34*
%TO.C,U91*%
X190043175Y-103814547D03*
X190698497Y-104273406D03*
X191353818Y-104732268D03*
X190846182Y-102667732D03*
X191501503Y-103126594D03*
X192156825Y-103585453D03*
%TD*%
D31*
%TO.C,C7*%
X150020000Y-125000000D03*
X150980000Y-125000000D03*
%TD*%
D35*
%TO.C,U63*%
X131214461Y-76957172D03*
X132013364Y-76999040D03*
X132812268Y-77040909D03*
X131287732Y-75559091D03*
X132086636Y-75600960D03*
X132885539Y-75642828D03*
%TD*%
D36*
%TO.C,U12*%
X175647388Y-92917035D03*
X175577664Y-93713991D03*
X175507939Y-94510947D03*
X177042061Y-93039053D03*
X176972336Y-93836009D03*
X176902612Y-94632965D03*
%TD*%
D37*
%TO.C,D1*%
X152250000Y-132825000D03*
X156250000Y-132825000D03*
%TD*%
D38*
%TO.C,U15*%
X163495211Y-93202554D03*
X163578835Y-93998170D03*
X163662458Y-94793787D03*
X164887542Y-93056213D03*
X164971165Y-93851830D03*
X165054789Y-94647446D03*
%TD*%
D39*
%TO.C,U75*%
X149900447Y-91384400D03*
X150039365Y-90596554D03*
X150178284Y-89808708D03*
X148521716Y-91141292D03*
X148660635Y-90353446D03*
X148799553Y-89565600D03*
%TD*%
D40*
%TO.C,U3*%
X167621551Y-111661991D03*
X167096703Y-112265758D03*
X166571857Y-112869527D03*
X168678143Y-112580473D03*
X168153297Y-113184242D03*
X167628449Y-113788009D03*
%TD*%
D41*
%TO.C,U60*%
X134415084Y-65106768D03*
X135151488Y-65419354D03*
X135887892Y-65731938D03*
X134962108Y-63818062D03*
X135698512Y-64130646D03*
X136434916Y-64443232D03*
%TD*%
D42*
%TO.C,C9*%
X173075000Y-140855000D03*
X173075000Y-139895000D03*
%TD*%
D43*
%TO.C,C21*%
X115528249Y-102853249D03*
X116871751Y-104196751D03*
%TD*%
D22*
%TO.C,U51*%
X123578972Y-76050657D03*
X122837225Y-75750973D03*
X122095477Y-75451286D03*
X123054523Y-77348714D03*
X122312775Y-77049027D03*
X121571028Y-76749343D03*
%TD*%
D44*
%TO.C,C4*%
X147780000Y-131100000D03*
X146820000Y-131100000D03*
%TD*%
D45*
%TO.C,U200*%
X171150000Y-142575000D03*
X171150000Y-141775000D03*
X171150000Y-140975000D03*
X171150000Y-140175000D03*
X171150000Y-139375000D03*
X171150000Y-138575000D03*
X171150000Y-137775000D03*
X171150000Y-136975000D03*
X171150000Y-136175000D03*
X171150000Y-135375000D03*
X171150000Y-134575000D03*
D46*
X170050000Y-133675000D03*
X169250000Y-133675000D03*
X168450000Y-133675000D03*
X167650000Y-133675000D03*
X166850000Y-133675000D03*
X166050000Y-133675000D03*
X165250000Y-133675000D03*
X164450000Y-133675000D03*
X163650000Y-133675000D03*
X162850000Y-133675000D03*
X162050000Y-133675000D03*
X161250000Y-133675000D03*
X160450000Y-133675000D03*
D45*
X159350000Y-134575000D03*
X159350000Y-135375000D03*
X159350000Y-136175000D03*
X159350000Y-136975000D03*
X159350000Y-137775000D03*
X159350000Y-138575000D03*
X159350000Y-139375000D03*
X159350000Y-140175000D03*
X159350000Y-140975000D03*
X159350000Y-141775000D03*
X159350000Y-142575000D03*
D46*
X160450000Y-143475000D03*
X161250000Y-143475000D03*
X162050000Y-143475000D03*
X162850000Y-143475000D03*
X163650000Y-143475000D03*
X164450000Y-143475000D03*
X165250000Y-143475000D03*
X166050000Y-143475000D03*
X166850000Y-143475000D03*
X167650000Y-143475000D03*
X168450000Y-143475000D03*
X169250000Y-143475000D03*
X170050000Y-143475000D03*
D47*
X167225000Y-140550000D03*
D48*
X167225000Y-138575000D03*
X167225000Y-136600000D03*
X165250000Y-140550000D03*
X165250000Y-138575000D03*
X165250000Y-136600000D03*
X163275000Y-140550000D03*
X163275000Y-138575000D03*
X163275000Y-136600000D03*
D49*
X159300000Y-143525000D03*
X159300000Y-133625000D03*
X171200000Y-133625000D03*
X171200000Y-143525000D03*
%TD*%
D50*
%TO.C,U41*%
X108141168Y-114290832D03*
X107389414Y-114017215D03*
X106637659Y-113743599D03*
X107662341Y-115606401D03*
X106910586Y-115332785D03*
X106158832Y-115059168D03*
%TD*%
D51*
%TO.C,U30*%
X128633708Y-121353284D03*
X129421554Y-121214365D03*
X130209400Y-121075447D03*
X128390600Y-119974553D03*
X129178446Y-119835635D03*
X129966292Y-119696716D03*
%TD*%
D52*
%TO.C,U27*%
X126519353Y-109491529D03*
X127309503Y-109366381D03*
X128099654Y-109241234D03*
X126300346Y-108108766D03*
X127090497Y-107983619D03*
X127880647Y-107858471D03*
%TD*%
D53*
%TO.C,U85*%
X188302612Y-85707964D03*
X188372337Y-84911008D03*
X188442061Y-84114054D03*
X186907939Y-85585946D03*
X186977663Y-84788992D03*
X187047388Y-83992036D03*
%TD*%
D54*
%TO.C,Q1*%
X147700000Y-135375000D03*
X148350000Y-135375000D03*
X149000000Y-135375000D03*
X149650000Y-135375000D03*
X149650000Y-132425000D03*
X149000000Y-132425000D03*
X148350000Y-132425000D03*
D55*
X148675000Y-133550000D03*
D54*
X147700000Y-132425000D03*
%TD*%
D56*
%TO.C,U7*%
X176901032Y-104986981D03*
X176734703Y-104204463D03*
X176568373Y-103421945D03*
X175531627Y-105278055D03*
X175365297Y-104495537D03*
X175198968Y-103713019D03*
%TD*%
D57*
%TO.C,R1*%
X179015000Y-140075000D03*
X180035000Y-140075000D03*
%TD*%
D58*
%TO.C,C8*%
X162475000Y-101695000D03*
X162475000Y-102655000D03*
%TD*%
D59*
%TO.C,U11*%
X179715508Y-93381133D03*
X179562862Y-94166435D03*
X179410214Y-94951735D03*
X181089786Y-93648265D03*
X180937138Y-94433565D03*
X180784492Y-95218867D03*
%TD*%
D18*
%TO.C,C1*%
X175900000Y-110775000D03*
X175900000Y-112675000D03*
%TD*%
D60*
%TO.C,U89*%
X194333832Y-97209169D03*
X195085585Y-97482784D03*
X195837340Y-97756401D03*
X194812660Y-95893599D03*
X195564415Y-96167216D03*
X196316168Y-96440831D03*
%TD*%
D22*
%TO.C,U50*%
X122053972Y-79775657D03*
X121312225Y-79475971D03*
X120570478Y-79176286D03*
X121529522Y-81073714D03*
X120787775Y-80774029D03*
X120046028Y-80474343D03*
%TD*%
D61*
%TO.C,U22*%
X136613103Y-101479988D03*
X136976295Y-102192792D03*
X137339488Y-102905599D03*
X137860512Y-100844401D03*
X138223705Y-101557208D03*
X138586897Y-102270012D03*
%TD*%
D62*
%TO.C,U37*%
X111103917Y-128116336D03*
X110633690Y-128763550D03*
X110163461Y-129410764D03*
X112236539Y-128939236D03*
X111766310Y-129586450D03*
X111296083Y-130233664D03*
%TD*%
D63*
%TO.C,U69*%
X126762020Y-93572030D03*
X126582059Y-92792534D03*
X126402098Y-92013038D03*
X125397902Y-93886962D03*
X125217941Y-93107466D03*
X125037980Y-92327970D03*
%TD*%
D64*
%TO.C,U9*%
X184102184Y-100673642D03*
X183431247Y-100237931D03*
X182760311Y-99802219D03*
X183339689Y-101847781D03*
X182668753Y-101412069D03*
X181997816Y-100976358D03*
%TD*%
D22*
%TO.C,U48*%
X118953972Y-87425657D03*
X118212225Y-87125971D03*
X117470478Y-86826286D03*
X118429522Y-88723714D03*
X117687775Y-88424029D03*
X116946028Y-88124343D03*
%TD*%
D65*
%TO.C,U86*%
X191637987Y-87196260D03*
X192050017Y-86510527D03*
X192462048Y-85824793D03*
X190437952Y-86475207D03*
X190849983Y-85789473D03*
X191262013Y-85103740D03*
%TD*%
D66*
%TO.C,U40*%
X107146880Y-118057511D03*
X106348829Y-118001705D03*
X105550777Y-117945899D03*
X107049223Y-119454101D03*
X106251171Y-119398295D03*
X105453120Y-119342489D03*
%TD*%
D30*
%TO.C,U77*%
X157950000Y-92125000D03*
X157950000Y-91325000D03*
X157950000Y-90525000D03*
X156550000Y-92125000D03*
X156550000Y-91325000D03*
X156550000Y-90525000D03*
%TD*%
D67*
%TO.C,R6*%
X158675000Y-130535000D03*
X158675000Y-129515000D03*
%TD*%
D17*
%TO.C,SW2*%
X191000000Y-142750000D03*
X191000000Y-147250000D03*
X198950000Y-142750000D03*
X198950000Y-147250000D03*
%TD*%
D68*
%TO.C,U24*%
X131185453Y-99393175D03*
X130726593Y-100048496D03*
X130267732Y-100703818D03*
X132332268Y-100196182D03*
X131873407Y-100851504D03*
X131414547Y-101506825D03*
%TD*%
D69*
%TO.C,U25*%
X126269494Y-100698876D03*
X126804799Y-101293391D03*
X127340103Y-101887907D03*
X127309897Y-99762093D03*
X127845201Y-100356609D03*
X128380506Y-100951124D03*
%TD*%
D22*
%TO.C,U53*%
X126628972Y-68550657D03*
X125887225Y-68250973D03*
X125145478Y-67951286D03*
X126104522Y-69848714D03*
X125362775Y-69549027D03*
X124621028Y-69249343D03*
%TD*%
%TO.C,U44*%
X112753972Y-102700657D03*
X112012225Y-102400973D03*
X111270478Y-102101286D03*
X112229522Y-103998714D03*
X111487775Y-103699027D03*
X110746028Y-103399343D03*
%TD*%
D53*
%TO.C,U76*%
X153902612Y-92007965D03*
X153972336Y-91211009D03*
X154042061Y-90414054D03*
X152507939Y-91885946D03*
X152577664Y-91088991D03*
X152647388Y-90292035D03*
%TD*%
D70*
%TO.C,U35*%
X118157511Y-130703120D03*
X118101704Y-131501171D03*
X118045900Y-132299222D03*
X119554100Y-130800778D03*
X119498296Y-131598829D03*
X119442489Y-132396880D03*
%TD*%
D71*
%TO.C,C18*%
X122125000Y-108275000D03*
X120225000Y-108275000D03*
%TD*%
D72*
%TO.C,R3*%
X155290000Y-145130000D03*
X154270000Y-145130000D03*
%TD*%
D22*
%TO.C,U47*%
X117403972Y-91225657D03*
X116662225Y-90925971D03*
X115920478Y-90626286D03*
X116879522Y-92523714D03*
X116137775Y-92224029D03*
X115396028Y-91924343D03*
%TD*%
D73*
%TO.C,U70*%
X130603311Y-92385384D03*
X130369413Y-91620339D03*
X130135516Y-90855296D03*
X129264484Y-92794704D03*
X129030587Y-92029661D03*
X128796689Y-91264616D03*
%TD*%
D74*
%TO.C,U84*%
X184382172Y-85360539D03*
X184424041Y-84561635D03*
X184465909Y-83762732D03*
X182984091Y-85287268D03*
X183025959Y-84488365D03*
X183067828Y-83689461D03*
%TD*%
D75*
%TO.C,U5*%
X169331216Y-106642820D03*
X168931217Y-105950000D03*
X168531217Y-105257180D03*
X168118783Y-107342820D03*
X167718783Y-106650000D03*
X167318784Y-105957180D03*
%TD*%
D76*
%TO.C,U20*%
X143977682Y-98096483D03*
X144238137Y-98852898D03*
X144498592Y-99609314D03*
X145301408Y-97640686D03*
X145561863Y-98397102D03*
X145822318Y-99153517D03*
%TD*%
D77*
%TO.C,U39*%
X107326063Y-121831607D03*
X106557054Y-122052118D03*
X105788044Y-122272627D03*
X107711956Y-123177373D03*
X106942946Y-123397882D03*
X106173937Y-123618393D03*
%TD*%
D78*
%TO.C,R4*%
X188375000Y-140065000D03*
X188375000Y-141085000D03*
%TD*%
D52*
%TO.C,U31*%
X129294354Y-125291529D03*
X130084504Y-125166381D03*
X130874655Y-125041234D03*
X129075345Y-123908766D03*
X129865496Y-123783619D03*
X130655646Y-123658471D03*
%TD*%
D79*
%TO.C,U21*%
X140243062Y-99687108D03*
X140555646Y-100423512D03*
X140868231Y-101159916D03*
X141531769Y-99140084D03*
X141844354Y-99876488D03*
X142156938Y-100612892D03*
%TD*%
D16*
%TO.C,U58*%
X136507180Y-57956218D03*
X137200000Y-57556218D03*
X137892820Y-57156218D03*
X135807180Y-56743782D03*
X136500000Y-56343782D03*
X137192820Y-55943782D03*
%TD*%
D80*
%TO.C,U203*%
X149648500Y-139024986D03*
X149648500Y-138375000D03*
X149648500Y-137725014D03*
X147951500Y-137725014D03*
X147951500Y-138375000D03*
X147951500Y-139024986D03*
%TD*%
D81*
%TO.C,U94*%
X184344401Y-114535512D03*
X185057208Y-114898705D03*
X185770012Y-115261897D03*
X184979988Y-113288103D03*
X185692792Y-113651295D03*
X186405599Y-114014488D03*
%TD*%
D82*
%TO.C,U16*%
X159520474Y-93730206D03*
X159631813Y-94522421D03*
X159743151Y-95314636D03*
X160906849Y-93535364D03*
X161018187Y-94327579D03*
X161129526Y-95119794D03*
%TD*%
D57*
%TO.C,R5*%
X148240000Y-136650000D03*
X149260000Y-136650000D03*
%TD*%
D83*
%TO.C,C19*%
X126950520Y-81846194D03*
X128699480Y-81103806D03*
%TD*%
D84*
%TO.C,U78*%
X162073714Y-90754522D03*
X161774029Y-90012775D03*
X161474344Y-89271028D03*
X160775656Y-91278972D03*
X160475971Y-90537225D03*
X160176286Y-89795478D03*
%TD*%
D67*
%TO.C,R2*%
X146620000Y-140710000D03*
X146620000Y-139690000D03*
%TD*%
D52*
%TO.C,U29*%
X127919354Y-117391529D03*
X128709505Y-117266382D03*
X129499655Y-117141234D03*
X127700345Y-116008766D03*
X128490495Y-115883618D03*
X129280646Y-115758471D03*
%TD*%
D85*
%TO.C,U64*%
X131200000Y-81000000D03*
X132000000Y-81000000D03*
X132800000Y-81000000D03*
X131200000Y-79600000D03*
X132000000Y-79600000D03*
X132800000Y-79600000D03*
%TD*%
D86*
%TO.C,U87*%
X193985311Y-90022782D03*
X194656248Y-89587069D03*
X195327183Y-89151359D03*
X193222817Y-88848641D03*
X193893752Y-88412931D03*
X194564689Y-87977218D03*
%TD*%
D22*
%TO.C,U49*%
X120466747Y-83599686D03*
X119725000Y-83300000D03*
X118983253Y-83000315D03*
X119942297Y-84897743D03*
X119200550Y-84598058D03*
X118458803Y-84298372D03*
%TD*%
D51*
%TO.C,U28*%
X127233708Y-113453285D03*
X128021554Y-113314366D03*
X128809400Y-113175447D03*
X126990600Y-112074553D03*
X127778446Y-111935634D03*
X128566292Y-111796715D03*
%TD*%
D87*
%TO.C,U23*%
X133374553Y-102540600D03*
X133235635Y-103328446D03*
X133096716Y-104116292D03*
X134753284Y-102783708D03*
X134614365Y-103571554D03*
X134475447Y-104359400D03*
%TD*%
D88*
%TO.C,U88*%
X194964054Y-93567061D03*
X195761009Y-93497336D03*
X196557965Y-93427612D03*
X194842035Y-92172388D03*
X195638991Y-92102664D03*
X196435946Y-92032939D03*
%TD*%
D67*
%TO.C,R7*%
X173625000Y-134685000D03*
X173625000Y-133665000D03*
%TD*%
D89*
%TO.C,U62*%
X131721086Y-72819093D03*
X132493827Y-73026149D03*
X133266567Y-73233203D03*
X132083433Y-71466797D03*
X132856173Y-71673851D03*
X133628914Y-71880907D03*
%TD*%
D90*
%TO.C,U96*%
X177937458Y-116356213D03*
X177853835Y-117151831D03*
X177770212Y-117947448D03*
X179329788Y-116502552D03*
X179246165Y-117298169D03*
X179162542Y-118093787D03*
%TD*%
D18*
%TO.C,C25*%
X138925000Y-93300000D03*
X138925000Y-95200000D03*
%TD*%
D91*
%TO.C,SW3*%
X128870000Y-146700000D03*
X131410000Y-146700000D03*
X133950000Y-146700000D03*
%TD*%
D92*
%TO.C,U59*%
X135971028Y-61349343D03*
X136712776Y-61649028D03*
X137454523Y-61948714D03*
X136495477Y-60051286D03*
X137237224Y-60350972D03*
X137978972Y-60650657D03*
%TD*%
D93*
%TO.C,U34*%
X122072507Y-130799917D03*
X122100426Y-131599430D03*
X122128346Y-132398942D03*
X123471654Y-130751058D03*
X123499574Y-131550570D03*
X123527493Y-132350083D03*
%TD*%
D57*
%TO.C,R8*%
X162440000Y-118400000D03*
X163460000Y-118400000D03*
%TD*%
D94*
%TO.C,U67*%
X122093782Y-87157180D03*
X122493782Y-87850000D03*
X122893782Y-88542820D03*
X123306218Y-86457180D03*
X123706218Y-87150000D03*
X124106218Y-87842820D03*
%TD*%
D95*
%TO.C,U201*%
X166500000Y-100812500D03*
X166500000Y-100162500D03*
X166500000Y-99512500D03*
X164600000Y-99512500D03*
X164600000Y-100812500D03*
%TD*%
D96*
%TO.C,U83*%
X180421655Y-85123942D03*
X180449574Y-84324429D03*
X180477493Y-83524918D03*
X179022507Y-85075082D03*
X179050426Y-84275571D03*
X179078345Y-83476058D03*
%TD*%
D31*
%TO.C,C2*%
X177920000Y-148550000D03*
X178880000Y-148550000D03*
%TD*%
D97*
%TO.C,U19*%
X147762047Y-96755467D03*
X148009261Y-97516312D03*
X148256474Y-98277157D03*
X149093526Y-96322843D03*
X149340739Y-97083688D03*
X149587953Y-97844533D03*
%TD*%
D44*
%TO.C,C10*%
X169500000Y-101750000D03*
X168540000Y-101750000D03*
%TD*%
D98*
%TO.C,U10*%
X183904522Y-95876286D03*
X183162775Y-96175971D03*
X182421028Y-96475656D03*
X184428972Y-97174344D03*
X183687225Y-97474029D03*
X182945478Y-97773714D03*
%TD*%
D21*
%TO.C,U56*%
X131209916Y-57468232D03*
X130473512Y-57155647D03*
X129737108Y-56843062D03*
X130662892Y-58756938D03*
X129926488Y-58444353D03*
X129190084Y-58131768D03*
%TD*%
D30*
%TO.C,U13*%
X171600000Y-92750000D03*
X171600000Y-93550000D03*
X171600000Y-94350000D03*
X173000000Y-92750000D03*
X173000000Y-93550000D03*
X173000000Y-94350000D03*
%TD*%
D92*
%TO.C,U32*%
X128771028Y-128799344D03*
X129512776Y-129099029D03*
X130254522Y-129398714D03*
X129295478Y-127501286D03*
X130037224Y-127800971D03*
X130778972Y-128100656D03*
%TD*%
D20*
%TO.C,U57*%
X134028284Y-55866292D03*
X133889367Y-55078447D03*
X133750447Y-54290601D03*
X132649553Y-56109399D03*
X132510633Y-55321553D03*
X132371716Y-54533708D03*
%TD*%
D99*
%TO.C,U90*%
X192322816Y-100551358D03*
X192993754Y-100987070D03*
X193664689Y-101422781D03*
X193085311Y-99377219D03*
X193756246Y-99812930D03*
X194427184Y-100248642D03*
%TD*%
D24*
%TO.C,C23*%
X178875000Y-112475000D03*
X180775000Y-112475000D03*
%TD*%
D100*
%TO.C,C17*%
X179450000Y-90325000D03*
X179450000Y-88425000D03*
%TD*%
D101*
%TO.C,C20*%
X125632292Y-77400081D03*
X127417708Y-78049919D03*
%TD*%
D39*
%TO.C,U74*%
X145975447Y-90634400D03*
X146114366Y-89846554D03*
X146253284Y-89058708D03*
X144596716Y-90391292D03*
X144735634Y-89603446D03*
X144874553Y-88815600D03*
%TD*%
D102*
%TO.C,U95*%
X181721715Y-116458709D03*
X181860634Y-117246555D03*
X181999553Y-118034400D03*
X183100447Y-116215600D03*
X183239366Y-117003445D03*
X183378285Y-117791291D03*
%TD*%
D103*
%TO.C,U66*%
X125843599Y-85262660D03*
X126117215Y-86014414D03*
X126390831Y-86766168D03*
X127159169Y-84783832D03*
X127432785Y-85535586D03*
X127706401Y-86287340D03*
%TD*%
D22*
%TO.C,U52*%
X125103972Y-72300657D03*
X124362224Y-72000972D03*
X123620477Y-71701286D03*
X124579523Y-73598714D03*
X123837776Y-73299028D03*
X123096028Y-72999343D03*
%TD*%
D104*
%TO.C,U71*%
X134433203Y-91216566D03*
X134226148Y-90443827D03*
X134019093Y-89671086D03*
X133080907Y-91578914D03*
X132873852Y-90806173D03*
X132666797Y-90033434D03*
%TD*%
D105*
%TO.C,J2*%
X197325000Y-130970000D03*
X193255000Y-130970000D03*
X197325000Y-129700000D03*
X193255000Y-129700000D03*
X197325000Y-128430000D03*
X193255000Y-128430000D03*
X197325000Y-127160000D03*
X193255000Y-127160000D03*
X197325000Y-125890000D03*
X193255000Y-125890000D03*
%TD*%
D106*
%TO.C,U14*%
X167559091Y-92837731D03*
X167600959Y-93636636D03*
X167642828Y-94435539D03*
X168957172Y-92764461D03*
X168999041Y-93563364D03*
X169040909Y-94362269D03*
%TD*%
D60*
%TO.C,U61*%
X132933832Y-68884169D03*
X133685586Y-69157784D03*
X134437340Y-69431401D03*
X133412660Y-67568599D03*
X134164414Y-67842216D03*
X134916168Y-68115831D03*
%TD*%
D18*
%TO.C,C16*%
X136175000Y-96800000D03*
X136175000Y-98700000D03*
%TD*%
D81*
%TO.C,U92*%
X187944401Y-107385512D03*
X188657208Y-107748705D03*
X189370012Y-108111897D03*
X188579988Y-106138103D03*
X189292792Y-106501295D03*
X190005599Y-106864488D03*
%TD*%
D107*
%TO.C,U17*%
X155523967Y-94513020D03*
X155690297Y-95295537D03*
X155856626Y-96078055D03*
X156893374Y-94221945D03*
X157059703Y-95004463D03*
X157226033Y-95786980D03*
%TD*%
D30*
%TO.C,U82*%
X176475000Y-85025000D03*
X176475000Y-84225000D03*
X176475000Y-83425000D03*
X175075000Y-85025000D03*
X175075000Y-84225000D03*
X175075000Y-83425000D03*
%TD*%
D108*
%TO.C,U79*%
X165687049Y-88750208D03*
X165275017Y-88064473D03*
X164862987Y-87378740D03*
X164487013Y-89471260D03*
X164074983Y-88785527D03*
X163662951Y-88099792D03*
%TD*%
D109*
%TO.C,U18*%
X151581607Y-95548937D03*
X151802116Y-96317946D03*
X152022627Y-97086956D03*
X152927373Y-95163044D03*
X153147884Y-95932054D03*
X153368393Y-96701063D03*
%TD*%
D22*
%TO.C,U54*%
X128143972Y-64840657D03*
X127402225Y-64540971D03*
X126660478Y-64241286D03*
X127619522Y-66138714D03*
X126877775Y-65839029D03*
X126136028Y-65539343D03*
%TD*%
D110*
%TO.C,U36*%
X114372627Y-129988044D03*
X114152117Y-130757053D03*
X113931607Y-131526063D03*
X115718393Y-130373937D03*
X115497883Y-131142947D03*
X115277373Y-131911956D03*
%TD*%
D111*
%TO.C,U2*%
X170657514Y-113965012D03*
X170281937Y-114671370D03*
X169906359Y-115377729D03*
X171893641Y-114622271D03*
X171518063Y-115328630D03*
X171142486Y-116034988D03*
%TD*%
D112*
%TO.C,U4*%
X166553914Y-108780907D03*
X165781173Y-108573853D03*
X165008432Y-108366796D03*
X166191568Y-110133204D03*
X165418827Y-109926147D03*
X164646086Y-109719093D03*
%TD*%
D113*
%TO.C,U38*%
X108678818Y-125317732D03*
X108023496Y-125776594D03*
X107368175Y-126235455D03*
X109481825Y-126464545D03*
X108826504Y-126923406D03*
X108171182Y-127382268D03*
%TD*%
D75*
%TO.C,U80*%
X169106218Y-86667820D03*
X168706218Y-85974999D03*
X168306218Y-85282180D03*
X167893782Y-87367820D03*
X167493782Y-86675001D03*
X167093782Y-85982180D03*
%TD*%
D81*
%TO.C,U93*%
X186144401Y-110960512D03*
X186857208Y-111323705D03*
X187570012Y-111686897D03*
X186779988Y-109713103D03*
X187492792Y-110076295D03*
X188205599Y-110439488D03*
%TD*%
D22*
%TO.C,U43*%
X111203972Y-106550656D03*
X110462225Y-106250971D03*
X109720478Y-105951286D03*
X110679522Y-107848714D03*
X109937775Y-107549029D03*
X109196028Y-107249344D03*
%TD*%
D44*
%TO.C,C6*%
X148380000Y-124975000D03*
X147420000Y-124975000D03*
%TD*%
D20*
%TO.C,U6*%
X172953284Y-105816293D03*
X172814365Y-105028447D03*
X172675447Y-104240601D03*
X171574553Y-106059399D03*
X171435635Y-105271553D03*
X171296716Y-104483707D03*
%TD*%
D114*
%TO.C,U33*%
X125866796Y-130508432D03*
X126073852Y-131281173D03*
X126280907Y-132053913D03*
X127219093Y-130146087D03*
X127426148Y-130918827D03*
X127633204Y-131691568D03*
%TD*%
M02*
