%TF.GenerationSoftware,KiCad,Pcbnew,8.0.1*%
%TF.CreationDate,2024-05-16T13:46:45+01:00*%
%TF.ProjectId,f1-led-circuit,66312d6c-6564-42d6-9369-72637569742e,v1.0*%
%TF.SameCoordinates,Original*%
%TF.FileFunction,Copper,L1,Top*%
%TF.FilePolarity,Positive*%
%FSLAX46Y46*%
G04 Gerber Fmt 4.6, Leading zero omitted, Abs format (unit mm)*
G04 Created by KiCad (PCBNEW 8.0.1) date 2024-05-16 13:46:45*
%MOMM*%
%LPD*%
G01*
G04 APERTURE LIST*
G04 Aperture macros list*
%AMRoundRect*
0 Rectangle with rounded corners*
0 $1 Rounding radius*
0 $2 $3 $4 $5 $6 $7 $8 $9 X,Y pos of 4 corners*
0 Add a 4 corners polygon primitive as box body*
4,1,4,$2,$3,$4,$5,$6,$7,$8,$9,$2,$3,0*
0 Add four circle primitives for the rounded corners*
1,1,$1+$1,$2,$3*
1,1,$1+$1,$4,$5*
1,1,$1+$1,$6,$7*
1,1,$1+$1,$8,$9*
0 Add four rect primitives between the rounded corners*
20,1,$1+$1,$2,$3,$4,$5,0*
20,1,$1+$1,$4,$5,$6,$7,0*
20,1,$1+$1,$6,$7,$8,$9,0*
20,1,$1+$1,$8,$9,$2,$3,0*%
%AMRotRect*
0 Rectangle, with rotation*
0 The origin of the aperture is its center*
0 $1 length*
0 $2 width*
0 $3 Rotation angle, in degrees counterclockwise*
0 Add horizontal line*
21,1,$1,$2,0,0,$3*%
%AMFreePoly0*
4,1,6,0.725000,-0.725000,-0.725000,-0.725000,-0.725000,0.125000,-0.125000,0.725000,0.725000,0.725000,0.725000,-0.725000,0.725000,-0.725000,$1*%
G04 Aperture macros list end*
%TA.AperFunction,EtchedComponent*%
%ADD10C,0.000000*%
%TD*%
%TA.AperFunction,SMDPad,CuDef*%
%ADD11RotRect,0.600000X0.400000X345.000000*%
%TD*%
%TA.AperFunction,SMDPad,CuDef*%
%ADD12R,0.600000X1.150000*%
%TD*%
%TA.AperFunction,SMDPad,CuDef*%
%ADD13R,0.300000X1.150000*%
%TD*%
%TA.AperFunction,ComponentPad*%
%ADD14O,1.000000X2.100000*%
%TD*%
%TA.AperFunction,ComponentPad*%
%ADD15RoundRect,0.250000X-0.250000X-0.650000X0.250000X-0.650000X0.250000X0.650000X-0.250000X0.650000X0*%
%TD*%
%TA.AperFunction,SMDPad,CuDef*%
%ADD16RotRect,0.600000X0.400000X120.000000*%
%TD*%
%TA.AperFunction,SMDPad,CuDef*%
%ADD17R,1.550000X1.300000*%
%TD*%
%TA.AperFunction,SMDPad,CuDef*%
%ADD18RoundRect,0.250000X-0.475000X0.250000X-0.475000X-0.250000X0.475000X-0.250000X0.475000X0.250000X0*%
%TD*%
%TA.AperFunction,SMDPad,CuDef*%
%ADD19RotRect,0.600000X0.400000X200.000000*%
%TD*%
%TA.AperFunction,SMDPad,CuDef*%
%ADD20RotRect,0.600000X0.400000X190.000000*%
%TD*%
%TA.AperFunction,SMDPad,CuDef*%
%ADD21RotRect,0.600000X0.400000X247.000000*%
%TD*%
%TA.AperFunction,SMDPad,CuDef*%
%ADD22RotRect,0.600000X0.400000X248.000000*%
%TD*%
%TA.AperFunction,SMDPad,CuDef*%
%ADD23RotRect,0.600000X0.400000X98.000000*%
%TD*%
%TA.AperFunction,SMDPad,CuDef*%
%ADD24RoundRect,0.250000X-0.250000X-0.475000X0.250000X-0.475000X0.250000X0.475000X-0.250000X0.475000X0*%
%TD*%
%TA.AperFunction,SMDPad,CuDef*%
%ADD25RotRect,0.600000X0.400000X35.000000*%
%TD*%
%TA.AperFunction,SMDPad,CuDef*%
%ADD26R,0.304800X0.812800*%
%TD*%
%TA.AperFunction,SMDPad,CuDef*%
%ADD27R,1.854200X1.600200*%
%TD*%
%TA.AperFunction,SMDPad,CuDef*%
%ADD28RotRect,0.600000X0.400000X198.000000*%
%TD*%
%TA.AperFunction,SMDPad,CuDef*%
%ADD29RoundRect,0.250000X0.397383X0.360849X-0.072464X0.531859X-0.397383X-0.360849X0.072464X-0.531859X0*%
%TD*%
%TA.AperFunction,SMDPad,CuDef*%
%ADD30R,0.600000X0.400000*%
%TD*%
%TA.AperFunction,SMDPad,CuDef*%
%ADD31RoundRect,0.140000X-0.170000X0.140000X-0.170000X-0.140000X0.170000X-0.140000X0.170000X0.140000X0*%
%TD*%
%TA.AperFunction,ComponentPad*%
%ADD32R,1.700000X1.700000*%
%TD*%
%TA.AperFunction,ComponentPad*%
%ADD33O,1.700000X1.700000*%
%TD*%
%TA.AperFunction,SMDPad,CuDef*%
%ADD34RotRect,0.600000X0.400000X55.000000*%
%TD*%
%TA.AperFunction,SMDPad,CuDef*%
%ADD35RoundRect,0.140000X-0.140000X-0.170000X0.140000X-0.170000X0.140000X0.170000X-0.140000X0.170000X0*%
%TD*%
%TA.AperFunction,SMDPad,CuDef*%
%ADD36RotRect,0.600000X0.400000X87.000000*%
%TD*%
%TA.AperFunction,SMDPad,CuDef*%
%ADD37RotRect,0.600000X0.400000X355.000000*%
%TD*%
%TA.AperFunction,SMDPad,CuDef*%
%ADD38RoundRect,0.250000X-1.000000X-0.650000X1.000000X-0.650000X1.000000X0.650000X-1.000000X0.650000X0*%
%TD*%
%TA.AperFunction,SMDPad,CuDef*%
%ADD39RotRect,0.600000X0.400000X6.000000*%
%TD*%
%TA.AperFunction,SMDPad,CuDef*%
%ADD40RotRect,0.600000X0.400000X170.000000*%
%TD*%
%TA.AperFunction,SMDPad,CuDef*%
%ADD41RotRect,0.600000X0.400000X319.000000*%
%TD*%
%TA.AperFunction,SMDPad,CuDef*%
%ADD42RotRect,0.600000X0.400000X67.000000*%
%TD*%
%TA.AperFunction,SMDPad,CuDef*%
%ADD43RoundRect,0.140000X0.170000X-0.140000X0.170000X0.140000X-0.170000X0.140000X-0.170000X-0.140000X0*%
%TD*%
%TA.AperFunction,SMDPad,CuDef*%
%ADD44RoundRect,0.250000X-0.512652X-0.159099X-0.159099X-0.512652X0.512652X0.159099X0.159099X0.512652X0*%
%TD*%
%TA.AperFunction,SMDPad,CuDef*%
%ADD45RoundRect,0.140000X0.140000X0.170000X-0.140000X0.170000X-0.140000X-0.170000X0.140000X-0.170000X0*%
%TD*%
%TA.AperFunction,SMDPad,CuDef*%
%ADD46R,0.800000X0.400000*%
%TD*%
%TA.AperFunction,SMDPad,CuDef*%
%ADD47R,0.400000X0.800000*%
%TD*%
%TA.AperFunction,SMDPad,CuDef*%
%ADD48FreePoly0,180.000000*%
%TD*%
%TA.AperFunction,SMDPad,CuDef*%
%ADD49R,1.450000X1.450000*%
%TD*%
%TA.AperFunction,SMDPad,CuDef*%
%ADD50R,0.700000X0.700000*%
%TD*%
%TA.AperFunction,SMDPad,CuDef*%
%ADD51RotRect,0.600000X0.400000X250.000000*%
%TD*%
%TA.AperFunction,SMDPad,CuDef*%
%ADD52RotRect,0.600000X0.400000X100.000000*%
%TD*%
%TA.AperFunction,SMDPad,CuDef*%
%ADD53RotRect,0.600000X0.400000X99.000000*%
%TD*%
%TA.AperFunction,SMDPad,CuDef*%
%ADD54RotRect,0.600000X0.400000X175.000000*%
%TD*%
%TA.AperFunction,SMDPad,CuDef*%
%ADD55RoundRect,0.100000X0.100000X-0.200000X0.100000X0.200000X-0.100000X0.200000X-0.100000X-0.200000X0*%
%TD*%
%TA.AperFunction,SMDPad,CuDef*%
%ADD56RoundRect,0.100000X1.300000X-1.075000X1.300000X1.075000X-1.300000X1.075000X-1.300000X-1.075000X0*%
%TD*%
%TA.AperFunction,SMDPad,CuDef*%
%ADD57RotRect,0.600000X0.400000X192.000000*%
%TD*%
%TA.AperFunction,SMDPad,CuDef*%
%ADD58RoundRect,0.135000X-0.135000X-0.185000X0.135000X-0.185000X0.135000X0.185000X-0.135000X0.185000X0*%
%TD*%
%TA.AperFunction,SMDPad,CuDef*%
%ADD59RotRect,0.600000X0.400000X349.000000*%
%TD*%
%TA.AperFunction,SMDPad,CuDef*%
%ADD60RotRect,0.600000X0.400000X70.000000*%
%TD*%
%TA.AperFunction,SMDPad,CuDef*%
%ADD61RotRect,0.600000X0.400000X27.000000*%
%TD*%
%TA.AperFunction,SMDPad,CuDef*%
%ADD62RotRect,0.600000X0.400000X324.000000*%
%TD*%
%TA.AperFunction,SMDPad,CuDef*%
%ADD63RotRect,0.600000X0.400000X193.000000*%
%TD*%
%TA.AperFunction,SMDPad,CuDef*%
%ADD64RotRect,0.600000X0.400000X237.000000*%
%TD*%
%TA.AperFunction,SMDPad,CuDef*%
%ADD65RotRect,0.600000X0.400000X149.000000*%
%TD*%
%TA.AperFunction,SMDPad,CuDef*%
%ADD66RotRect,0.600000X0.400000X266.000000*%
%TD*%
%TA.AperFunction,SMDPad,CuDef*%
%ADD67RoundRect,0.135000X0.185000X-0.135000X0.185000X0.135000X-0.185000X0.135000X-0.185000X-0.135000X0*%
%TD*%
%TA.AperFunction,SMDPad,CuDef*%
%ADD68RotRect,0.600000X0.400000X325.000000*%
%TD*%
%TA.AperFunction,SMDPad,CuDef*%
%ADD69RotRect,0.600000X0.400000X42.000000*%
%TD*%
%TA.AperFunction,SMDPad,CuDef*%
%ADD70RotRect,0.600000X0.400000X356.000000*%
%TD*%
%TA.AperFunction,SMDPad,CuDef*%
%ADD71RoundRect,0.250000X0.250000X0.475000X-0.250000X0.475000X-0.250000X-0.475000X0.250000X-0.475000X0*%
%TD*%
%TA.AperFunction,SMDPad,CuDef*%
%ADD72RoundRect,0.135000X0.135000X0.185000X-0.135000X0.185000X-0.135000X-0.185000X0.135000X-0.185000X0*%
%TD*%
%TA.AperFunction,SMDPad,CuDef*%
%ADD73RotRect,0.600000X0.400000X197.000000*%
%TD*%
%TA.AperFunction,SMDPad,CuDef*%
%ADD74RotRect,0.600000X0.400000X177.000000*%
%TD*%
%TA.AperFunction,SMDPad,CuDef*%
%ADD75RotRect,0.600000X0.400000X210.000000*%
%TD*%
%TA.AperFunction,SMDPad,CuDef*%
%ADD76RotRect,0.600000X0.400000X19.000000*%
%TD*%
%TA.AperFunction,SMDPad,CuDef*%
%ADD77RotRect,0.600000X0.400000X286.000000*%
%TD*%
%TA.AperFunction,SMDPad,CuDef*%
%ADD78RoundRect,0.135000X-0.185000X0.135000X-0.185000X-0.135000X0.185000X-0.135000X0.185000X0.135000X0*%
%TD*%
%TA.AperFunction,SMDPad,CuDef*%
%ADD79RotRect,0.600000X0.400000X23.000000*%
%TD*%
%TA.AperFunction,SMDPad,CuDef*%
%ADD80R,0.604799X0.229400*%
%TD*%
%TA.AperFunction,SMDPad,CuDef*%
%ADD81RotRect,0.600000X0.400000X63.000000*%
%TD*%
%TA.AperFunction,SMDPad,CuDef*%
%ADD82RotRect,0.600000X0.400000X8.000000*%
%TD*%
%TA.AperFunction,SMDPad,CuDef*%
%ADD83RoundRect,0.250000X-0.044529X-0.534923X0.415723X-0.339557X0.044529X0.534923X-0.415723X0.339557X0*%
%TD*%
%TA.AperFunction,SMDPad,CuDef*%
%ADD84RotRect,0.600000X0.400000X202.000000*%
%TD*%
%TA.AperFunction,SMDPad,CuDef*%
%ADD85R,0.400000X0.600000*%
%TD*%
%TA.AperFunction,SMDPad,CuDef*%
%ADD86RotRect,0.600000X0.400000X123.000000*%
%TD*%
%TA.AperFunction,SMDPad,CuDef*%
%ADD87RotRect,0.600000X0.400000X350.000000*%
%TD*%
%TA.AperFunction,SMDPad,CuDef*%
%ADD88RotRect,0.600000X0.400000X95.000000*%
%TD*%
%TA.AperFunction,SMDPad,CuDef*%
%ADD89RotRect,0.600000X0.400000X75.000000*%
%TD*%
%TA.AperFunction,SMDPad,CuDef*%
%ADD90RotRect,0.600000X0.400000X354.000000*%
%TD*%
%TA.AperFunction,ComponentPad*%
%ADD91C,1.295400*%
%TD*%
%TA.AperFunction,SMDPad,CuDef*%
%ADD92RotRect,0.600000X0.400000X68.000000*%
%TD*%
%TA.AperFunction,SMDPad,CuDef*%
%ADD93RotRect,0.600000X0.400000X2.000000*%
%TD*%
%TA.AperFunction,SMDPad,CuDef*%
%ADD94RotRect,0.600000X0.400000X30.000000*%
%TD*%
%TA.AperFunction,SMDPad,CuDef*%
%ADD95RoundRect,0.100000X0.225000X0.100000X-0.225000X0.100000X-0.225000X-0.100000X0.225000X-0.100000X0*%
%TD*%
%TA.AperFunction,SMDPad,CuDef*%
%ADD96RotRect,0.600000X0.400000X178.000000*%
%TD*%
%TA.AperFunction,SMDPad,CuDef*%
%ADD97RotRect,0.600000X0.400000X18.000000*%
%TD*%
%TA.AperFunction,SMDPad,CuDef*%
%ADD98RotRect,0.600000X0.400000X292.000000*%
%TD*%
%TA.AperFunction,SMDPad,CuDef*%
%ADD99RotRect,0.600000X0.400000X57.000000*%
%TD*%
%TA.AperFunction,SMDPad,CuDef*%
%ADD100C,0.500000*%
%TD*%
%TA.AperFunction,SMDPad,CuDef*%
%ADD101RoundRect,0.250000X0.475000X-0.250000X0.475000X0.250000X-0.475000X0.250000X-0.475000X-0.250000X0*%
%TD*%
%TA.AperFunction,SMDPad,CuDef*%
%ADD102RoundRect,0.250000X-0.397383X-0.360849X0.072464X-0.531859X0.397383X0.360849X-0.072464X0.531859X0*%
%TD*%
%TA.AperFunction,SMDPad,CuDef*%
%ADD103RotRect,0.600000X0.400000X10.000000*%
%TD*%
%TA.AperFunction,SMDPad,CuDef*%
%ADD104RotRect,0.600000X0.400000X20.000000*%
%TD*%
%TA.AperFunction,SMDPad,CuDef*%
%ADD105RotRect,0.600000X0.400000X195.000000*%
%TD*%
%TA.AperFunction,SMDPad,CuDef*%
%ADD106R,2.790000X0.740000*%
%TD*%
%TA.AperFunction,SMDPad,CuDef*%
%ADD107RotRect,0.600000X0.400000X3.000000*%
%TD*%
%TA.AperFunction,SMDPad,CuDef*%
%ADD108RotRect,0.600000X0.400000X12.000000*%
%TD*%
%TA.AperFunction,SMDPad,CuDef*%
%ADD109RotRect,0.600000X0.400000X211.000000*%
%TD*%
%TA.AperFunction,SMDPad,CuDef*%
%ADD110RotRect,0.600000X0.400000X16.000000*%
%TD*%
%TA.AperFunction,SMDPad,CuDef*%
%ADD111RotRect,0.600000X0.400000X344.000000*%
%TD*%
%TA.AperFunction,SMDPad,CuDef*%
%ADD112RotRect,0.600000X0.400000X332.000000*%
%TD*%
%TA.AperFunction,SMDPad,CuDef*%
%ADD113RotRect,0.600000X0.400000X255.000000*%
%TD*%
%TA.AperFunction,SMDPad,CuDef*%
%ADD114RotRect,0.600000X0.400000X305.000000*%
%TD*%
%TA.AperFunction,SMDPad,CuDef*%
%ADD115RotRect,0.600000X0.400000X15.000000*%
%TD*%
%TA.AperFunction,ViaPad*%
%ADD116C,0.600000*%
%TD*%
%TA.AperFunction,Conductor*%
%ADD117C,0.300000*%
%TD*%
%TA.AperFunction,Conductor*%
%ADD118C,0.200000*%
%TD*%
%TA.AperFunction,Conductor*%
%ADD119C,1.000000*%
%TD*%
G04 APERTURE END LIST*
D10*
%TA.AperFunction,EtchedComponent*%
%TO.C,NT2*%
G36*
X170690000Y-126490000D02*
G01*
X169690000Y-126490000D01*
X169690000Y-125990000D01*
X170690000Y-125990000D01*
X170690000Y-126490000D01*
G37*
%TD.AperFunction*%
%TA.AperFunction,EtchedComponent*%
%TO.C,NT1*%
G36*
X174080000Y-125280000D02*
G01*
X173080000Y-125280000D01*
X173080000Y-124780000D01*
X174080000Y-124780000D01*
X174080000Y-125280000D01*
G37*
%TD.AperFunction*%
%TD*%
D11*
%TO.P,U1,1,VDD*%
%TO.N,+5V*%
X174155907Y-115546086D03*
%TO.P,U1,2,DCKO*%
%TO.N,Net-(U1-DCKO)*%
X173948852Y-116318827D03*
%TO.P,U1,3,DOUT*%
%TO.N,Net-(U1-DOUT)*%
X173741797Y-117091567D03*
%TO.P,U1,4,GND*%
%TO.N,GND*%
X175508203Y-115908433D03*
%TO.P,U1,5,DCKI*%
%TO.N,/FSPICLK*%
X175301148Y-116681173D03*
%TO.P,U1,6,DIN*%
%TO.N,/FSPID*%
X175094093Y-117453914D03*
%TD*%
D12*
%TO.P,J1,A1,GND*%
%TO.N,GND*%
X145122500Y-142282500D03*
%TO.P,J1,A4,VBUS*%
%TO.N,+5V*%
X145922500Y-142282500D03*
D13*
%TO.P,J1,A5,CC1*%
%TO.N,Net-(J1-CC1)*%
X147072500Y-142282500D03*
%TO.P,J1,A6,D+*%
%TO.N,/D_P*%
X148072500Y-142282500D03*
%TO.P,J1,A7,D-*%
%TO.N,/D_N*%
X148572500Y-142282500D03*
%TO.P,J1,A8*%
%TO.N,unconnected-(J1-PadA8)*%
X149572500Y-142282500D03*
%TO.P,J1,B5,CC2*%
%TO.N,Net-(J1-CC2)*%
X150072500Y-142282500D03*
%TO.P,J1,B6,D+*%
%TO.N,/D_P*%
X149072500Y-142282500D03*
%TO.P,J1,B7,D-*%
%TO.N,/D_N*%
X147572500Y-142282500D03*
%TO.P,J1,B8*%
%TO.N,unconnected-(J1-PadB8)*%
X146572500Y-142282500D03*
D12*
%TO.P,J1,B9,VBUS*%
%TO.N,+5V*%
X150722500Y-142282500D03*
%TO.P,J1,B12,GND*%
%TO.N,GND*%
X151522500Y-142282500D03*
D14*
%TO.P,J1,SH1,SHIELD*%
X144002500Y-142857500D03*
%TO.P,J1,SH2,SHIELD*%
X152642500Y-142857500D03*
D15*
%TO.P,J1,SH3,SHIELD*%
X144002500Y-147037500D03*
%TO.P,J1,SH4,SHIELD*%
X152642500Y-147037500D03*
%TD*%
D16*
%TO.P,U68,1,VDD*%
%TO.N,+5V*%
X121832179Y-92481217D03*
%TO.P,U68,2,DCKO*%
%TO.N,Net-(U68-DCKO)*%
X122525000Y-92081218D03*
%TO.P,U68,3,DOUT*%
%TO.N,Net-(U68-DOUT)*%
X123217821Y-91681217D03*
%TO.P,U68,4,GND*%
%TO.N,GND*%
X121132179Y-91268783D03*
%TO.P,U68,5,DCKI*%
%TO.N,Net-(U67-DCKO)*%
X121825000Y-90868782D03*
%TO.P,U68,6,DIN*%
%TO.N,Net-(U67-DOUT)*%
X122517821Y-90468783D03*
%TD*%
D17*
%TO.P,SW1,1,A*%
%TO.N,/BOOT*%
X180325000Y-142675000D03*
%TO.P,SW1,2,B*%
%TO.N,GND*%
X180325000Y-147175000D03*
%TO.P,SW1,3*%
%TO.N,N/C*%
X188275000Y-142675000D03*
%TO.P,SW1,4*%
X188275000Y-147175000D03*
%TD*%
D18*
%TO.P,C24,1*%
%TO.N,+5V*%
X173850000Y-87400000D03*
%TO.P,C24,2*%
%TO.N,GND*%
X173850000Y-89300000D03*
%TD*%
D19*
%TO.P,U8,1,VDD*%
%TO.N,+5V*%
X180731400Y-103687340D03*
%TO.P,U8,2,DCKO*%
%TO.N,Net-(U8-DCKO)*%
X180457784Y-102935585D03*
%TO.P,U8,3,DOUT*%
%TO.N,Net-(U8-DOUT)*%
X180184169Y-102183832D03*
%TO.P,U8,4,GND*%
%TO.N,GND*%
X179415831Y-104166168D03*
%TO.P,U8,5,DCKI*%
%TO.N,Net-(U7-DCKO)*%
X179142216Y-103414415D03*
%TO.P,U8,6,DIN*%
%TO.N,Net-(U7-DOUT)*%
X178868600Y-102662660D03*
%TD*%
D20*
%TO.P,U72,1,VDD*%
%TO.N,+5V*%
X138278284Y-90391292D03*
%TO.P,U72,2,DCKO*%
%TO.N,Net-(U72-DCKO)*%
X138139365Y-89603447D03*
%TO.P,U72,3,DOUT*%
%TO.N,Net-(U72-DOUT)*%
X138000447Y-88815600D03*
%TO.P,U72,4,GND*%
%TO.N,GND*%
X136899553Y-90634400D03*
%TO.P,U72,5,DCKI*%
%TO.N,Net-(U71-DCKO)*%
X136760635Y-89846553D03*
%TO.P,U72,6,DIN*%
%TO.N,Net-(U71-DOUT)*%
X136621716Y-89058708D03*
%TD*%
D21*
%TO.P,U55,1,VDD*%
%TO.N,+5V*%
X129684916Y-61168231D03*
%TO.P,U55,2,DCKO*%
%TO.N,/LED_CHAIN2/CLOCK_CHAIN_2_TO_3*%
X128948512Y-60855646D03*
%TO.P,U55,3,DOUT*%
%TO.N,/LED_CHAIN2/DATA_CHAIN_2_TO_3*%
X128212109Y-60543061D03*
%TO.P,U55,4,GND*%
%TO.N,GND*%
X129137891Y-62456939D03*
%TO.P,U55,5,DCKI*%
%TO.N,Net-(U54-DCKO)*%
X128401488Y-62144354D03*
%TO.P,U55,6,DIN*%
%TO.N,Net-(U54-DOUT)*%
X127665084Y-61831769D03*
%TD*%
D22*
%TO.P,U45,1,VDD*%
%TO.N,+5V*%
X114303972Y-98850657D03*
%TO.P,U45,2,DCKO*%
%TO.N,Net-(U45-DCKO)*%
X113562225Y-98550971D03*
%TO.P,U45,3,DOUT*%
%TO.N,Net-(U45-DOUT)*%
X112820478Y-98251286D03*
%TO.P,U45,4,GND*%
%TO.N,GND*%
X113779522Y-100148714D03*
%TO.P,U45,5,DCKI*%
%TO.N,Net-(U44-DCKO)*%
X113037775Y-99849029D03*
%TO.P,U45,6,DIN*%
%TO.N,Net-(U44-DOUT)*%
X112296028Y-99549343D03*
%TD*%
D23*
%TO.P,U26,1,VDD*%
%TO.N,+5V*%
X125880207Y-105529526D03*
%TO.P,U26,2,DCKO*%
%TO.N,Net-(U26-DCKO)*%
X126672421Y-105418188D03*
%TO.P,U26,3,DOUT*%
%TO.N,Net-(U26-DOUT)*%
X127464636Y-105306849D03*
%TO.P,U26,4,GND*%
%TO.N,GND*%
X125685364Y-104143151D03*
%TO.P,U26,5,DCKI*%
%TO.N,/LED_CHAIN1/CLOCK_CHAIN_2_TO_3*%
X126477579Y-104031812D03*
%TO.P,U26,6,DIN*%
%TO.N,/LED_CHAIN1/DATA_CHAIN_2_TO_3*%
X127269793Y-103920474D03*
%TD*%
D24*
%TO.P,C26,1*%
%TO.N,+5V*%
X189125000Y-95575000D03*
%TO.P,C26,2*%
%TO.N,GND*%
X191025000Y-95575000D03*
%TD*%
D25*
%TO.P,U65,1,VDD*%
%TO.N,+5V*%
X129367732Y-83746182D03*
%TO.P,U65,2,DCKO*%
%TO.N,Net-(U65-DCKO)*%
X129826594Y-84401504D03*
%TO.P,U65,3,DOUT*%
%TO.N,Net-(U65-DOUT)*%
X130285455Y-85056825D03*
%TO.P,U65,4,GND*%
%TO.N,GND*%
X130514545Y-82943175D03*
%TO.P,U65,5,DCKI*%
%TO.N,/LED_CHAIN2/CLOCK_CHAIN_3_TO_4*%
X130973406Y-83598496D03*
%TO.P,U65,6,DIN*%
%TO.N,/LED_CHAIN2/DATA_CHAIN_3_TO_4*%
X131432268Y-84253818D03*
%TD*%
D26*
%TO.P,U202,1,OUT*%
%TO.N,+3.3V*%
X149724979Y-126427600D03*
%TO.P,U202,2,NC*%
%TO.N,unconnected-(U202-NC-Pad2)*%
X149074993Y-126427600D03*
%TO.P,U202,3,NR*%
%TO.N,Net-(U202-NR)*%
X148425007Y-126427600D03*
%TO.P,U202,4,GND*%
%TO.N,GND*%
X147775021Y-126427600D03*
%TO.P,U202,5,EN*%
%TO.N,/LDO*%
X147775021Y-129272400D03*
%TO.P,U202,6,NC*%
%TO.N,unconnected-(U202-NC-Pad6)*%
X148425007Y-129272400D03*
%TO.P,U202,7,NC*%
%TO.N,unconnected-(U202-NC-Pad7)*%
X149074993Y-129272400D03*
%TO.P,U202,8,IN*%
%TO.N,/LDO*%
X149724979Y-129272400D03*
D27*
%TO.P,U202,9,GND*%
%TO.N,GND*%
X148750000Y-127850000D03*
%TD*%
D22*
%TO.P,U46,1,VDD*%
%TO.N,+5V*%
X115853972Y-95050657D03*
%TO.P,U46,2,DCKO*%
%TO.N,/LED_CHAIN2/CLOCK_CHAIN_1_TO_2*%
X115112225Y-94750971D03*
%TO.P,U46,3,DOUT*%
%TO.N,/LED_CHAIN2/DATA_CHAIN_1_TO_2*%
X114370478Y-94451286D03*
%TO.P,U46,4,GND*%
%TO.N,GND*%
X115329522Y-96348714D03*
%TO.P,U46,5,DCKI*%
%TO.N,Net-(U45-DCKO)*%
X114587775Y-96049029D03*
%TO.P,U46,6,DIN*%
%TO.N,Net-(U45-DOUT)*%
X113846028Y-95749343D03*
%TD*%
D28*
%TO.P,U81,1,VDD*%
%TO.N,+5V*%
X172712953Y-85319534D03*
%TO.P,U81,2,DCKO*%
%TO.N,Net-(U81-DCKO)*%
X172465740Y-84558689D03*
%TO.P,U81,3,DOUT*%
%TO.N,Net-(U81-DOUT)*%
X172218526Y-83797844D03*
%TO.P,U81,4,GND*%
%TO.N,GND*%
X171381474Y-85752156D03*
%TO.P,U81,5,DCKI*%
%TO.N,Net-(U80-DCKO)*%
X171134260Y-84991311D03*
%TO.P,U81,6,DIN*%
%TO.N,Net-(U80-DOUT)*%
X170887047Y-84230466D03*
%TD*%
D29*
%TO.P,C22,1*%
%TO.N,+5V*%
X129292708Y-74024919D03*
%TO.P,C22,2*%
%TO.N,GND*%
X127507292Y-73375081D03*
%TD*%
D30*
%TO.P,U73,1,VDD*%
%TO.N,+5V*%
X142150000Y-90125000D03*
%TO.P,U73,2,DCKO*%
%TO.N,Net-(U73-DCKO)*%
X142150000Y-89325000D03*
%TO.P,U73,3,DOUT*%
%TO.N,Net-(U73-DOUT)*%
X142150000Y-88525000D03*
%TO.P,U73,4,GND*%
%TO.N,GND*%
X140750000Y-90125000D03*
%TO.P,U73,5,DCKI*%
%TO.N,Net-(U72-DCKO)*%
X140750000Y-89325000D03*
%TO.P,U73,6,DIN*%
%TO.N,Net-(U72-DOUT)*%
X140750000Y-88525000D03*
%TD*%
D24*
%TO.P,C15,1*%
%TO.N,+5V*%
X117575000Y-126675000D03*
%TO.P,C15,2*%
%TO.N,GND*%
X119475000Y-126675000D03*
%TD*%
D22*
%TO.P,U42,1,VDD*%
%TO.N,+5V*%
X109628971Y-110475656D03*
%TO.P,U42,2,DCKO*%
%TO.N,Net-(U42-DCKO)*%
X108887225Y-110175973D03*
%TO.P,U42,3,DOUT*%
%TO.N,Net-(U42-DOUT)*%
X108145477Y-109876286D03*
%TO.P,U42,4,GND*%
%TO.N,GND*%
X109104523Y-111773714D03*
%TO.P,U42,5,DCKI*%
%TO.N,Net-(U41-DCKO)*%
X108362775Y-111474027D03*
%TO.P,U42,6,DIN*%
%TO.N,Net-(U41-DOUT)*%
X107621029Y-111174344D03*
%TD*%
D31*
%TO.P,C3,1*%
%TO.N,GND*%
X189910000Y-139240000D03*
%TO.P,C3,2*%
%TO.N,/START{slash}STOP*%
X189910000Y-140200000D03*
%TD*%
D32*
%TO.P,JP1,1,A*%
%TO.N,Net-(JP1-A)*%
X162825000Y-123575000D03*
D33*
%TO.P,JP1,2,B*%
%TO.N,Net-(JP1-B)*%
X162825000Y-121035000D03*
%TD*%
D34*
%TO.P,U91,1,VDD*%
%TO.N,+5V*%
X190043175Y-103814547D03*
%TO.P,U91,2,DCKO*%
%TO.N,Net-(U91-DCKO)*%
X190698497Y-104273406D03*
%TO.P,U91,3,DOUT*%
%TO.N,Net-(U91-DOUT)*%
X191353818Y-104732268D03*
%TO.P,U91,4,GND*%
%TO.N,GND*%
X190846182Y-102667732D03*
%TO.P,U91,5,DCKI*%
%TO.N,Net-(U90-DCKO)*%
X191501503Y-103126594D03*
%TO.P,U91,6,DIN*%
%TO.N,Net-(U90-DOUT)*%
X192156825Y-103585453D03*
%TD*%
D35*
%TO.P,C7,1*%
%TO.N,+3.3V*%
X150020000Y-125000000D03*
%TO.P,C7,2*%
%TO.N,GND*%
X150980000Y-125000000D03*
%TD*%
D36*
%TO.P,U63,1,VDD*%
%TO.N,+5V*%
X131214461Y-76957172D03*
%TO.P,U63,2,DCKO*%
%TO.N,Net-(U63-DCKO)*%
X132013364Y-76999040D03*
%TO.P,U63,3,DOUT*%
%TO.N,Net-(U63-DOUT)*%
X132812268Y-77040909D03*
%TO.P,U63,4,GND*%
%TO.N,GND*%
X131287732Y-75559091D03*
%TO.P,U63,5,DCKI*%
%TO.N,Net-(U62-DCKO)*%
X132086636Y-75600960D03*
%TO.P,U63,6,DIN*%
%TO.N,Net-(U62-DOUT)*%
X132885539Y-75642828D03*
%TD*%
D37*
%TO.P,U12,1,VDD*%
%TO.N,+5V*%
X175647388Y-92917035D03*
%TO.P,U12,2,DCKO*%
%TO.N,Net-(U12-DCKO)*%
X175577664Y-93713991D03*
%TO.P,U12,3,DOUT*%
%TO.N,Net-(U12-DOUT)*%
X175507939Y-94510947D03*
%TO.P,U12,4,GND*%
%TO.N,GND*%
X177042061Y-93039053D03*
%TO.P,U12,5,DCKI*%
%TO.N,Net-(U11-DCKO)*%
X176972336Y-93836009D03*
%TO.P,U12,6,DIN*%
%TO.N,Net-(U11-DOUT)*%
X176902612Y-94632965D03*
%TD*%
D38*
%TO.P,D1,1,A1*%
%TO.N,Net-(D1-A1)*%
X152250000Y-132825000D03*
%TO.P,D1,2,A2*%
%TO.N,GND*%
X156250000Y-132825000D03*
%TD*%
D39*
%TO.P,U15,1,VDD*%
%TO.N,+5V*%
X163495211Y-93202554D03*
%TO.P,U15,2,DCKO*%
%TO.N,Net-(U15-DCKO)*%
X163578835Y-93998170D03*
%TO.P,U15,3,DOUT*%
%TO.N,Net-(U15-DOUT)*%
X163662458Y-94793787D03*
%TO.P,U15,4,GND*%
%TO.N,GND*%
X164887542Y-93056213D03*
%TO.P,U15,5,DCKI*%
%TO.N,Net-(U14-DCKO)*%
X164971165Y-93851830D03*
%TO.P,U15,6,DIN*%
%TO.N,Net-(U14-DOUT)*%
X165054789Y-94647446D03*
%TD*%
D40*
%TO.P,U75,1,VDD*%
%TO.N,+5V*%
X149900447Y-91384400D03*
%TO.P,U75,2,DCKO*%
%TO.N,Net-(U75-DCKO)*%
X150039365Y-90596554D03*
%TO.P,U75,3,DOUT*%
%TO.N,Net-(U75-DOUT)*%
X150178284Y-89808708D03*
%TO.P,U75,4,GND*%
%TO.N,GND*%
X148521716Y-91141292D03*
%TO.P,U75,5,DCKI*%
%TO.N,Net-(U74-DCKO)*%
X148660635Y-90353446D03*
%TO.P,U75,6,DIN*%
%TO.N,Net-(U74-DOUT)*%
X148799553Y-89565600D03*
%TD*%
D41*
%TO.P,U3,1,VDD*%
%TO.N,+5V*%
X167621551Y-111661991D03*
%TO.P,U3,2,DCKO*%
%TO.N,Net-(U3-DCKO)*%
X167096703Y-112265758D03*
%TO.P,U3,3,DOUT*%
%TO.N,Net-(U3-DOUT)*%
X166571857Y-112869527D03*
%TO.P,U3,4,GND*%
%TO.N,GND*%
X168678143Y-112580473D03*
%TO.P,U3,5,DCKI*%
%TO.N,Net-(U2-DCKO)*%
X168153297Y-113184242D03*
%TO.P,U3,6,DIN*%
%TO.N,Net-(U2-DOUT)*%
X167628449Y-113788009D03*
%TD*%
D42*
%TO.P,U60,1,VDD*%
%TO.N,+5V*%
X134415084Y-65106768D03*
%TO.P,U60,2,DCKO*%
%TO.N,Net-(U60-DCKO)*%
X135151488Y-65419354D03*
%TO.P,U60,3,DOUT*%
%TO.N,Net-(U60-DOUT)*%
X135887892Y-65731938D03*
%TO.P,U60,4,GND*%
%TO.N,GND*%
X134962108Y-63818062D03*
%TO.P,U60,5,DCKI*%
%TO.N,Net-(U59-DCKO)*%
X135698512Y-64130646D03*
%TO.P,U60,6,DIN*%
%TO.N,Net-(U59-DOUT)*%
X136434916Y-64443232D03*
%TD*%
D43*
%TO.P,C9,1*%
%TO.N,+3.3V*%
X173075000Y-140855000D03*
%TO.P,C9,2*%
%TO.N,GND*%
X173075000Y-139895000D03*
%TD*%
D44*
%TO.P,C21,1*%
%TO.N,+5V*%
X115528249Y-102853249D03*
%TO.P,C21,2*%
%TO.N,GND*%
X116871751Y-104196751D03*
%TD*%
D22*
%TO.P,U51,1,VDD*%
%TO.N,+5V*%
X123578972Y-76050657D03*
%TO.P,U51,2,DCKO*%
%TO.N,Net-(U51-DCKO)*%
X122837225Y-75750973D03*
%TO.P,U51,3,DOUT*%
%TO.N,Net-(U51-DOUT)*%
X122095477Y-75451286D03*
%TO.P,U51,4,GND*%
%TO.N,GND*%
X123054523Y-77348714D03*
%TO.P,U51,5,DCKI*%
%TO.N,Net-(U50-DCKO)*%
X122312775Y-77049027D03*
%TO.P,U51,6,DIN*%
%TO.N,Net-(U50-DOUT)*%
X121571028Y-76749343D03*
%TD*%
D45*
%TO.P,C4,1*%
%TO.N,/LDO*%
X147780000Y-131100000D03*
%TO.P,C4,2*%
%TO.N,GND*%
X146820000Y-131100000D03*
%TD*%
D46*
%TO.P,U200,1,GND*%
%TO.N,GND*%
X171150000Y-142575000D03*
%TO.P,U200,2,GND*%
X171150000Y-141775000D03*
%TO.P,U200,3,3V3*%
%TO.N,+3.3V*%
X171150000Y-140975000D03*
%TO.P,U200,4,NC*%
%TO.N,unconnected-(U200-NC-Pad4)*%
X171150000Y-140175000D03*
%TO.P,U200,5,GPIO2/ADC1_CH2*%
%TO.N,Net-(J2-~{RESET})*%
X171150000Y-139375000D03*
%TO.P,U200,6,GPIO3/ADC1_CH3*%
%TO.N,unconnected-(U200-GPIO3{slash}ADC1_CH3-Pad6)*%
X171150000Y-138575000D03*
%TO.P,U200,7,NC*%
%TO.N,unconnected-(U200-NC-Pad7)*%
X171150000Y-137775000D03*
%TO.P,U200,8,EN/CHIP_PU*%
%TO.N,/BOOT*%
X171150000Y-136975000D03*
%TO.P,U200,9,NC*%
%TO.N,unconnected-(U200-NC-Pad9)*%
X171150000Y-136175000D03*
%TO.P,U200,10,NC*%
%TO.N,unconnected-(U200-NC-Pad10)*%
X171150000Y-135375000D03*
%TO.P,U200,11,GND*%
%TO.N,GND*%
X171150000Y-134575000D03*
D47*
%TO.P,U200,12,GPIO0/ADC1_CH0/XTAL_32K_P*%
%TO.N,unconnected-(U200-GPIO0{slash}ADC1_CH0{slash}XTAL_32K_P-Pad12)*%
X170050000Y-133675000D03*
%TO.P,U200,13,GPIO1/ADC1_CH1/XTAL_32K_N*%
%TO.N,/ADC1_CH1*%
X169250000Y-133675000D03*
%TO.P,U200,14,GND*%
%TO.N,GND*%
X168450000Y-133675000D03*
%TO.P,U200,15,NC*%
%TO.N,unconnected-(U200-NC-Pad15)*%
X167650000Y-133675000D03*
%TO.P,U200,16,GPIO10*%
%TO.N,/START{slash}STOP*%
X166850000Y-133675000D03*
%TO.P,U200,17,NC*%
%TO.N,unconnected-(U200-NC-Pad17)*%
X166050000Y-133675000D03*
%TO.P,U200,18,GPIO4/ADC1_CH4*%
%TO.N,/MTMS*%
X165250000Y-133675000D03*
%TO.P,U200,19,GPIO5/ADC2_CH0*%
%TO.N,/MTDI*%
X164450000Y-133675000D03*
%TO.P,U200,20,GPIO6*%
%TO.N,/FSPICLK*%
X163650000Y-133675000D03*
%TO.P,U200,21,GPIO7*%
%TO.N,/FSPID*%
X162850000Y-133675000D03*
%TO.P,U200,22,GPIO8*%
%TO.N,Net-(U200-GPIO8)*%
X162050000Y-133675000D03*
%TO.P,U200,23,GPIO9*%
%TO.N,Net-(JP1-A)*%
X161250000Y-133675000D03*
%TO.P,U200,24,NC*%
%TO.N,unconnected-(U200-NC-Pad24)*%
X160450000Y-133675000D03*
D46*
%TO.P,U200,25,NC*%
%TO.N,unconnected-(U200-NC-Pad25)*%
X159350000Y-134575000D03*
%TO.P,U200,26,GPIO18/USB_D-*%
%TO.N,/D_FS_N*%
X159350000Y-135375000D03*
%TO.P,U200,27,GPIO19/USB_D+*%
%TO.N,/D_FS_P*%
X159350000Y-136175000D03*
%TO.P,U200,28,NC*%
%TO.N,unconnected-(U200-NC-Pad28)*%
X159350000Y-136975000D03*
%TO.P,U200,29,NC*%
%TO.N,unconnected-(U200-NC-Pad29)*%
X159350000Y-137775000D03*
%TO.P,U200,30,GPIO20/U0RXD*%
%TO.N,unconnected-(U200-GPIO20{slash}U0RXD-Pad30)*%
X159350000Y-138575000D03*
%TO.P,U200,31,GPIO21/U0TXD*%
%TO.N,unconnected-(U200-GPIO21{slash}U0TXD-Pad31)*%
X159350000Y-139375000D03*
%TO.P,U200,32,NC*%
%TO.N,unconnected-(U200-NC-Pad32)*%
X159350000Y-140175000D03*
%TO.P,U200,33,NC*%
%TO.N,unconnected-(U200-NC-Pad33)*%
X159350000Y-140975000D03*
%TO.P,U200,34,NC*%
%TO.N,unconnected-(U200-NC-Pad34)*%
X159350000Y-141775000D03*
%TO.P,U200,35,NC*%
%TO.N,unconnected-(U200-NC-Pad35)*%
X159350000Y-142575000D03*
D47*
%TO.P,U200,36,GND*%
%TO.N,GND*%
X160450000Y-143475000D03*
%TO.P,U200,37,GND*%
X161250000Y-143475000D03*
%TO.P,U200,38,GND*%
X162050000Y-143475000D03*
%TO.P,U200,39,GND*%
X162850000Y-143475000D03*
%TO.P,U200,40,GND*%
X163650000Y-143475000D03*
%TO.P,U200,41,GND*%
X164450000Y-143475000D03*
%TO.P,U200,42,GND*%
X165250000Y-143475000D03*
%TO.P,U200,43,GND*%
X166050000Y-143475000D03*
%TO.P,U200,44,GND*%
X166850000Y-143475000D03*
%TO.P,U200,45,GND*%
X167650000Y-143475000D03*
%TO.P,U200,46,GND*%
X168450000Y-143475000D03*
%TO.P,U200,47,GND*%
X169250000Y-143475000D03*
%TO.P,U200,48,GND*%
X170050000Y-143475000D03*
D48*
%TO.P,U200,49,GND*%
X167225000Y-140550000D03*
D49*
X167225000Y-138575000D03*
X167225000Y-136600000D03*
X165250000Y-140550000D03*
X165250000Y-138575000D03*
X165250000Y-136600000D03*
X163275000Y-140550000D03*
X163275000Y-138575000D03*
X163275000Y-136600000D03*
D50*
%TO.P,U200,50,GND*%
X159300000Y-143525000D03*
%TO.P,U200,51,GND*%
X159300000Y-133625000D03*
%TO.P,U200,52,GND*%
X171200000Y-133625000D03*
%TO.P,U200,53,GND*%
X171200000Y-143525000D03*
%TD*%
D51*
%TO.P,U41,1,VDD*%
%TO.N,+5V*%
X108141168Y-114290832D03*
%TO.P,U41,2,DCKO*%
%TO.N,Net-(U41-DCKO)*%
X107389414Y-114017215D03*
%TO.P,U41,3,DOUT*%
%TO.N,Net-(U41-DOUT)*%
X106637659Y-113743599D03*
%TO.P,U41,4,GND*%
%TO.N,GND*%
X107662341Y-115606401D03*
%TO.P,U41,5,DCKI*%
%TO.N,Net-(U40-DCKO)*%
X106910586Y-115332785D03*
%TO.P,U41,6,DIN*%
%TO.N,Net-(U40-DOUT)*%
X106158832Y-115059168D03*
%TD*%
D52*
%TO.P,U30,1,VDD*%
%TO.N,+5V*%
X128633708Y-121353284D03*
%TO.P,U30,2,DCKO*%
%TO.N,Net-(U30-DCKO)*%
X129421554Y-121214365D03*
%TO.P,U30,3,DOUT*%
%TO.N,Net-(U30-DOUT)*%
X130209400Y-121075447D03*
%TO.P,U30,4,GND*%
%TO.N,GND*%
X128390600Y-119974553D03*
%TO.P,U30,5,DCKI*%
%TO.N,Net-(U29-DCKO)*%
X129178446Y-119835635D03*
%TO.P,U30,6,DIN*%
%TO.N,Net-(U29-DOUT)*%
X129966292Y-119696716D03*
%TD*%
D53*
%TO.P,U27,1,VDD*%
%TO.N,+5V*%
X126519353Y-109491529D03*
%TO.P,U27,2,DCKO*%
%TO.N,Net-(U27-DCKO)*%
X127309503Y-109366381D03*
%TO.P,U27,3,DOUT*%
%TO.N,Net-(U27-DOUT)*%
X128099654Y-109241234D03*
%TO.P,U27,4,GND*%
%TO.N,GND*%
X126300346Y-108108766D03*
%TO.P,U27,5,DCKI*%
%TO.N,Net-(U26-DCKO)*%
X127090497Y-107983619D03*
%TO.P,U27,6,DIN*%
%TO.N,Net-(U26-DOUT)*%
X127880647Y-107858471D03*
%TD*%
D54*
%TO.P,U85,1,VDD*%
%TO.N,+5V*%
X188302612Y-85707964D03*
%TO.P,U85,2,DCKO*%
%TO.N,/LED_CHAIN3/CLOCK_CHAIN_2_TO_3*%
X188372337Y-84911008D03*
%TO.P,U85,3,DOUT*%
%TO.N,/LED_CHAIN3/DATA_CHAIN_2_TO_3*%
X188442061Y-84114054D03*
%TO.P,U85,4,GND*%
%TO.N,GND*%
X186907939Y-85585946D03*
%TO.P,U85,5,DCKI*%
%TO.N,Net-(U84-DCKO)*%
X186977663Y-84788992D03*
%TO.P,U85,6,DIN*%
%TO.N,Net-(U84-DOUT)*%
X187047388Y-83992036D03*
%TD*%
D55*
%TO.P,Q1,1,S*%
%TO.N,+5V*%
X147700000Y-135375000D03*
%TO.P,Q1,2,S*%
X148350000Y-135375000D03*
%TO.P,Q1,3,S*%
X149000000Y-135375000D03*
%TO.P,Q1,4,G*%
%TO.N,Net-(D1-A1)*%
X149650000Y-135375000D03*
%TO.P,Q1,5,D*%
%TO.N,/LDO*%
X149650000Y-132425000D03*
%TO.P,Q1,6,D*%
X149000000Y-132425000D03*
%TO.P,Q1,7,D*%
X148350000Y-132425000D03*
D56*
%TO.P,Q1,8,D*%
X148675000Y-133550000D03*
D55*
X147700000Y-132425000D03*
%TD*%
D57*
%TO.P,U7,1,VDD*%
%TO.N,+5V*%
X176901032Y-104986981D03*
%TO.P,U7,2,DCKO*%
%TO.N,Net-(U7-DCKO)*%
X176734703Y-104204463D03*
%TO.P,U7,3,DOUT*%
%TO.N,Net-(U7-DOUT)*%
X176568373Y-103421945D03*
%TO.P,U7,4,GND*%
%TO.N,GND*%
X175531627Y-105278055D03*
%TO.P,U7,5,DCKI*%
%TO.N,/LED_CHAIN1/DCKI*%
X175365297Y-104495537D03*
%TO.P,U7,6,DIN*%
%TO.N,/LED_CHAIN1/DIN*%
X175198968Y-103713019D03*
%TD*%
D58*
%TO.P,R1,1*%
%TO.N,+3.3V*%
X179015000Y-140075000D03*
%TO.P,R1,2*%
%TO.N,/BOOT*%
X180035000Y-140075000D03*
%TD*%
D31*
%TO.P,C8,1*%
%TO.N,+3.3V*%
X162475000Y-101695000D03*
%TO.P,C8,2*%
%TO.N,GND*%
X162475000Y-102655000D03*
%TD*%
D59*
%TO.P,U11,1,VDD*%
%TO.N,+5V*%
X179715508Y-93381133D03*
%TO.P,U11,2,DCKO*%
%TO.N,Net-(U11-DCKO)*%
X179562862Y-94166435D03*
%TO.P,U11,3,DOUT*%
%TO.N,Net-(U11-DOUT)*%
X179410214Y-94951735D03*
%TO.P,U11,4,GND*%
%TO.N,GND*%
X181089786Y-93648265D03*
%TO.P,U11,5,DCKI*%
%TO.N,Net-(U10-DCKO)*%
X180937138Y-94433565D03*
%TO.P,U11,6,DIN*%
%TO.N,Net-(U10-DOUT)*%
X180784492Y-95218867D03*
%TD*%
D18*
%TO.P,C1,1*%
%TO.N,+5V*%
X175900000Y-110775000D03*
%TO.P,C1,2*%
%TO.N,GND*%
X175900000Y-112675000D03*
%TD*%
D60*
%TO.P,U89,1,VDD*%
%TO.N,+5V*%
X194333832Y-97209169D03*
%TO.P,U89,2,DCKO*%
%TO.N,Net-(U89-DCKO)*%
X195085585Y-97482784D03*
%TO.P,U89,3,DOUT*%
%TO.N,Net-(U89-DOUT)*%
X195837340Y-97756401D03*
%TO.P,U89,4,GND*%
%TO.N,GND*%
X194812660Y-95893599D03*
%TO.P,U89,5,DCKI*%
%TO.N,Net-(U88-DCKO)*%
X195564415Y-96167216D03*
%TO.P,U89,6,DIN*%
%TO.N,Net-(U88-DOUT)*%
X196316168Y-96440831D03*
%TD*%
D22*
%TO.P,U50,1,VDD*%
%TO.N,+5V*%
X122053972Y-79775657D03*
%TO.P,U50,2,DCKO*%
%TO.N,Net-(U50-DCKO)*%
X121312225Y-79475971D03*
%TO.P,U50,3,DOUT*%
%TO.N,Net-(U50-DOUT)*%
X120570478Y-79176286D03*
%TO.P,U50,4,GND*%
%TO.N,GND*%
X121529522Y-81073714D03*
%TO.P,U50,5,DCKI*%
%TO.N,Net-(U49-DCKO)*%
X120787775Y-80774029D03*
%TO.P,U50,6,DIN*%
%TO.N,Net-(U49-DOUT)*%
X120046028Y-80474343D03*
%TD*%
D61*
%TO.P,U22,1,VDD*%
%TO.N,+5V*%
X136613103Y-101479988D03*
%TO.P,U22,2,DCKO*%
%TO.N,Net-(U22-DCKO)*%
X136976295Y-102192792D03*
%TO.P,U22,3,DOUT*%
%TO.N,Net-(U22-DOUT)*%
X137339488Y-102905599D03*
%TO.P,U22,4,GND*%
%TO.N,GND*%
X137860512Y-100844401D03*
%TO.P,U22,5,DCKI*%
%TO.N,Net-(U21-DCKO)*%
X138223705Y-101557208D03*
%TO.P,U22,6,DIN*%
%TO.N,Net-(U21-DOUT)*%
X138586897Y-102270012D03*
%TD*%
D62*
%TO.P,U37,1,VDD*%
%TO.N,+5V*%
X111103917Y-128116336D03*
%TO.P,U37,2,DCKO*%
%TO.N,Net-(U37-DCKO)*%
X110633690Y-128763550D03*
%TO.P,U37,3,DOUT*%
%TO.N,Net-(U37-DOUT)*%
X110163461Y-129410764D03*
%TO.P,U37,4,GND*%
%TO.N,GND*%
X112236539Y-128939236D03*
%TO.P,U37,5,DCKI*%
%TO.N,/LED_CHAIN1/DCKO*%
X111766310Y-129586450D03*
%TO.P,U37,6,DIN*%
%TO.N,/LED_CHAIN1/DOUT*%
X111296083Y-130233664D03*
%TD*%
D63*
%TO.P,U69,1,VDD*%
%TO.N,+5V*%
X126762020Y-93572030D03*
%TO.P,U69,2,DCKO*%
%TO.N,Net-(U69-DCKO)*%
X126582059Y-92792534D03*
%TO.P,U69,3,DOUT*%
%TO.N,Net-(U69-DOUT)*%
X126402098Y-92013038D03*
%TO.P,U69,4,GND*%
%TO.N,GND*%
X125397902Y-93886962D03*
%TO.P,U69,5,DCKI*%
%TO.N,Net-(U68-DCKO)*%
X125217941Y-93107466D03*
%TO.P,U69,6,DIN*%
%TO.N,Net-(U68-DOUT)*%
X125037980Y-92327970D03*
%TD*%
D64*
%TO.P,U9,1,VDD*%
%TO.N,+5V*%
X184102184Y-100673642D03*
%TO.P,U9,2,DCKO*%
%TO.N,Net-(U10-DCKI)*%
X183431247Y-100237931D03*
%TO.P,U9,3,DOUT*%
%TO.N,Net-(U10-DIN)*%
X182760311Y-99802219D03*
%TO.P,U9,4,GND*%
%TO.N,GND*%
X183339689Y-101847781D03*
%TO.P,U9,5,DCKI*%
%TO.N,Net-(U8-DCKO)*%
X182668753Y-101412069D03*
%TO.P,U9,6,DIN*%
%TO.N,Net-(U8-DOUT)*%
X181997816Y-100976358D03*
%TD*%
D22*
%TO.P,U48,1,VDD*%
%TO.N,+5V*%
X118953972Y-87425657D03*
%TO.P,U48,2,DCKO*%
%TO.N,Net-(U48-DCKO)*%
X118212225Y-87125971D03*
%TO.P,U48,3,DOUT*%
%TO.N,Net-(U48-DOUT)*%
X117470478Y-86826286D03*
%TO.P,U48,4,GND*%
%TO.N,GND*%
X118429522Y-88723714D03*
%TO.P,U48,5,DCKI*%
%TO.N,Net-(U47-DCKO)*%
X117687775Y-88424029D03*
%TO.P,U48,6,DIN*%
%TO.N,Net-(U47-DOUT)*%
X116946028Y-88124343D03*
%TD*%
D65*
%TO.P,U86,1,VDD*%
%TO.N,+5V*%
X191637987Y-87196260D03*
%TO.P,U86,2,DCKO*%
%TO.N,Net-(U86-DCKO)*%
X192050017Y-86510527D03*
%TO.P,U86,3,DOUT*%
%TO.N,Net-(U86-DOUT)*%
X192462048Y-85824793D03*
%TO.P,U86,4,GND*%
%TO.N,GND*%
X190437952Y-86475207D03*
%TO.P,U86,5,DCKI*%
%TO.N,/LED_CHAIN3/CLOCK_CHAIN_2_TO_3*%
X190849983Y-85789473D03*
%TO.P,U86,6,DIN*%
%TO.N,/LED_CHAIN3/DATA_CHAIN_2_TO_3*%
X191262013Y-85103740D03*
%TD*%
D66*
%TO.P,U40,1,VDD*%
%TO.N,+5V*%
X107146880Y-118057511D03*
%TO.P,U40,2,DCKO*%
%TO.N,Net-(U40-DCKO)*%
X106348829Y-118001705D03*
%TO.P,U40,3,DOUT*%
%TO.N,Net-(U40-DOUT)*%
X105550777Y-117945899D03*
%TO.P,U40,4,GND*%
%TO.N,GND*%
X107049223Y-119454101D03*
%TO.P,U40,5,DCKI*%
%TO.N,Net-(U39-DCKO)*%
X106251171Y-119398295D03*
%TO.P,U40,6,DIN*%
%TO.N,Net-(U39-DOUT)*%
X105453120Y-119342489D03*
%TD*%
D30*
%TO.P,U77,1,VDD*%
%TO.N,+5V*%
X157950000Y-92125000D03*
%TO.P,U77,2,DCKO*%
%TO.N,Net-(U77-DCKO)*%
X157950000Y-91325000D03*
%TO.P,U77,3,DOUT*%
%TO.N,Net-(U77-DOUT)*%
X157950000Y-90525000D03*
%TO.P,U77,4,GND*%
%TO.N,GND*%
X156550000Y-92125000D03*
%TO.P,U77,5,DCKI*%
%TO.N,/LED_CHAIN3/CLOCK_CHAIN_1_TO_2*%
X156550000Y-91325000D03*
%TO.P,U77,6,DIN*%
%TO.N,/LED_CHAIN3/DATA_CHAIN_1_TO_2*%
X156550000Y-90525000D03*
%TD*%
D67*
%TO.P,R6,1*%
%TO.N,Net-(U200-GPIO8)*%
X158675000Y-130535000D03*
%TO.P,R6,2*%
%TO.N,+3.3V*%
X158675000Y-129515000D03*
%TD*%
D17*
%TO.P,SW2,1,A*%
%TO.N,/START{slash}STOP*%
X191000000Y-142750000D03*
%TO.P,SW2,2,B*%
%TO.N,GND*%
X191000000Y-147250000D03*
%TO.P,SW2,3*%
%TO.N,N/C*%
X198950000Y-142750000D03*
%TO.P,SW2,4*%
X198950000Y-147250000D03*
%TD*%
D68*
%TO.P,U24,1,VDD*%
%TO.N,+5V*%
X131185453Y-99393175D03*
%TO.P,U24,2,DCKO*%
%TO.N,Net-(U24-DCKO)*%
X130726593Y-100048496D03*
%TO.P,U24,3,DOUT*%
%TO.N,Net-(U24-DOUT)*%
X130267732Y-100703818D03*
%TO.P,U24,4,GND*%
%TO.N,GND*%
X132332268Y-100196182D03*
%TO.P,U24,5,DCKI*%
%TO.N,Net-(U23-DCKO)*%
X131873407Y-100851504D03*
%TO.P,U24,6,DIN*%
%TO.N,Net-(U23-DOUT)*%
X131414547Y-101506825D03*
%TD*%
D69*
%TO.P,U25,1,VDD*%
%TO.N,+5V*%
X126269494Y-100698876D03*
%TO.P,U25,2,DCKO*%
%TO.N,/LED_CHAIN1/CLOCK_CHAIN_2_TO_3*%
X126804799Y-101293391D03*
%TO.P,U25,3,DOUT*%
%TO.N,/LED_CHAIN1/DATA_CHAIN_2_TO_3*%
X127340103Y-101887907D03*
%TO.P,U25,4,GND*%
%TO.N,GND*%
X127309897Y-99762093D03*
%TO.P,U25,5,DCKI*%
%TO.N,Net-(U24-DCKO)*%
X127845201Y-100356609D03*
%TO.P,U25,6,DIN*%
%TO.N,Net-(U24-DOUT)*%
X128380506Y-100951124D03*
%TD*%
D22*
%TO.P,U53,1,VDD*%
%TO.N,+5V*%
X126628972Y-68550657D03*
%TO.P,U53,2,DCKO*%
%TO.N,Net-(U53-DCKO)*%
X125887225Y-68250973D03*
%TO.P,U53,3,DOUT*%
%TO.N,Net-(U53-DOUT)*%
X125145478Y-67951286D03*
%TO.P,U53,4,GND*%
%TO.N,GND*%
X126104522Y-69848714D03*
%TO.P,U53,5,DCKI*%
%TO.N,Net-(U52-DCKO)*%
X125362775Y-69549027D03*
%TO.P,U53,6,DIN*%
%TO.N,Net-(U52-DOUT)*%
X124621028Y-69249343D03*
%TD*%
%TO.P,U44,1,VDD*%
%TO.N,+5V*%
X112753972Y-102700657D03*
%TO.P,U44,2,DCKO*%
%TO.N,Net-(U44-DCKO)*%
X112012225Y-102400973D03*
%TO.P,U44,3,DOUT*%
%TO.N,Net-(U44-DOUT)*%
X111270478Y-102101286D03*
%TO.P,U44,4,GND*%
%TO.N,GND*%
X112229522Y-103998714D03*
%TO.P,U44,5,DCKI*%
%TO.N,Net-(U43-DCKO)*%
X111487775Y-103699027D03*
%TO.P,U44,6,DIN*%
%TO.N,Net-(U43-DOUT)*%
X110746028Y-103399343D03*
%TD*%
D54*
%TO.P,U76,1,VDD*%
%TO.N,+5V*%
X153902612Y-92007965D03*
%TO.P,U76,2,DCKO*%
%TO.N,/LED_CHAIN3/CLOCK_CHAIN_1_TO_2*%
X153972336Y-91211009D03*
%TO.P,U76,3,DOUT*%
%TO.N,/LED_CHAIN3/DATA_CHAIN_1_TO_2*%
X154042061Y-90414054D03*
%TO.P,U76,4,GND*%
%TO.N,GND*%
X152507939Y-91885946D03*
%TO.P,U76,5,DCKI*%
%TO.N,Net-(U75-DCKO)*%
X152577664Y-91088991D03*
%TO.P,U76,6,DIN*%
%TO.N,Net-(U75-DOUT)*%
X152647388Y-90292035D03*
%TD*%
D70*
%TO.P,U35,1,VDD*%
%TO.N,+5V*%
X118157511Y-130703120D03*
%TO.P,U35,2,DCKO*%
%TO.N,Net-(U35-DCKO)*%
X118101704Y-131501171D03*
%TO.P,U35,3,DOUT*%
%TO.N,Net-(U35-DOUT)*%
X118045900Y-132299222D03*
%TO.P,U35,4,GND*%
%TO.N,GND*%
X119554100Y-130800778D03*
%TO.P,U35,5,DCKI*%
%TO.N,/LED_CHAIN1/CLOCK_CHAIN_3_TO_4*%
X119498296Y-131598829D03*
%TO.P,U35,6,DIN*%
%TO.N,/LED_CHAIN1/DATA_CHAIN_3_TO_4*%
X119442489Y-132396880D03*
%TD*%
D71*
%TO.P,C18,1*%
%TO.N,+5V*%
X122125000Y-108275000D03*
%TO.P,C18,2*%
%TO.N,GND*%
X120225000Y-108275000D03*
%TD*%
D72*
%TO.P,R3,1*%
%TO.N,GND*%
X155290000Y-145130000D03*
%TO.P,R3,2*%
%TO.N,Net-(J1-CC2)*%
X154270000Y-145130000D03*
%TD*%
D22*
%TO.P,U47,1,VDD*%
%TO.N,+5V*%
X117403972Y-91225657D03*
%TO.P,U47,2,DCKO*%
%TO.N,Net-(U47-DCKO)*%
X116662225Y-90925971D03*
%TO.P,U47,3,DOUT*%
%TO.N,Net-(U47-DOUT)*%
X115920478Y-90626286D03*
%TO.P,U47,4,GND*%
%TO.N,GND*%
X116879522Y-92523714D03*
%TO.P,U47,5,DCKI*%
%TO.N,/LED_CHAIN2/CLOCK_CHAIN_1_TO_2*%
X116137775Y-92224029D03*
%TO.P,U47,6,DIN*%
%TO.N,/LED_CHAIN2/DATA_CHAIN_1_TO_2*%
X115396028Y-91924343D03*
%TD*%
D73*
%TO.P,U70,1,VDD*%
%TO.N,+5V*%
X130603311Y-92385384D03*
%TO.P,U70,2,DCKO*%
%TO.N,Net-(U70-DCKO)*%
X130369413Y-91620339D03*
%TO.P,U70,3,DOUT*%
%TO.N,Net-(U70-DOUT)*%
X130135516Y-90855296D03*
%TO.P,U70,4,GND*%
%TO.N,GND*%
X129264484Y-92794704D03*
%TO.P,U70,5,DCKI*%
%TO.N,Net-(U69-DCKO)*%
X129030587Y-92029661D03*
%TO.P,U70,6,DIN*%
%TO.N,Net-(U69-DOUT)*%
X128796689Y-91264616D03*
%TD*%
D74*
%TO.P,U84,1,VDD*%
%TO.N,+5V*%
X184382172Y-85360539D03*
%TO.P,U84,2,DCKO*%
%TO.N,Net-(U84-DCKO)*%
X184424041Y-84561635D03*
%TO.P,U84,3,DOUT*%
%TO.N,Net-(U84-DOUT)*%
X184465909Y-83762732D03*
%TO.P,U84,4,GND*%
%TO.N,GND*%
X182984091Y-85287268D03*
%TO.P,U84,5,DCKI*%
%TO.N,Net-(U83-DCKO)*%
X183025959Y-84488365D03*
%TO.P,U84,6,DIN*%
%TO.N,Net-(U83-DOUT)*%
X183067828Y-83689461D03*
%TD*%
D75*
%TO.P,U5,1,VDD*%
%TO.N,+5V*%
X169331216Y-106642820D03*
%TO.P,U5,2,DCKO*%
%TO.N,Net-(U5-DCKO)*%
X168931217Y-105950000D03*
%TO.P,U5,3,DOUT*%
%TO.N,Net-(U5-DOUT)*%
X168531217Y-105257180D03*
%TO.P,U5,4,GND*%
%TO.N,GND*%
X168118783Y-107342820D03*
%TO.P,U5,5,DCKI*%
%TO.N,Net-(U4-DCKO)*%
X167718783Y-106650000D03*
%TO.P,U5,6,DIN*%
%TO.N,Net-(U4-DOUT)*%
X167318784Y-105957180D03*
%TD*%
D76*
%TO.P,U20,1,VDD*%
%TO.N,+5V*%
X143977682Y-98096483D03*
%TO.P,U20,2,DCKO*%
%TO.N,Net-(U20-DCKO)*%
X144238137Y-98852898D03*
%TO.P,U20,3,DOUT*%
%TO.N,Net-(U20-DOUT)*%
X144498592Y-99609314D03*
%TO.P,U20,4,GND*%
%TO.N,GND*%
X145301408Y-97640686D03*
%TO.P,U20,5,DCKI*%
%TO.N,Net-(U19-DCKO)*%
X145561863Y-98397102D03*
%TO.P,U20,6,DIN*%
%TO.N,Net-(U19-DOUT)*%
X145822318Y-99153517D03*
%TD*%
D77*
%TO.P,U39,1,VDD*%
%TO.N,+5V*%
X107326063Y-121831607D03*
%TO.P,U39,2,DCKO*%
%TO.N,Net-(U39-DCKO)*%
X106557054Y-122052118D03*
%TO.P,U39,3,DOUT*%
%TO.N,Net-(U39-DOUT)*%
X105788044Y-122272627D03*
%TO.P,U39,4,GND*%
%TO.N,GND*%
X107711956Y-123177373D03*
%TO.P,U39,5,DCKI*%
%TO.N,Net-(U38-DCKO)*%
X106942946Y-123397882D03*
%TO.P,U39,6,DIN*%
%TO.N,Net-(U38-DOUT)*%
X106173937Y-123618393D03*
%TD*%
D78*
%TO.P,R4,1*%
%TO.N,/START{slash}STOP*%
X188375000Y-140065000D03*
%TO.P,R4,2*%
%TO.N,+3.3V*%
X188375000Y-141085000D03*
%TD*%
D53*
%TO.P,U31,1,VDD*%
%TO.N,+5V*%
X129294354Y-125291529D03*
%TO.P,U31,2,DCKO*%
%TO.N,Net-(U31-DCKO)*%
X130084504Y-125166381D03*
%TO.P,U31,3,DOUT*%
%TO.N,Net-(U31-DOUT)*%
X130874655Y-125041234D03*
%TO.P,U31,4,GND*%
%TO.N,GND*%
X129075345Y-123908766D03*
%TO.P,U31,5,DCKI*%
%TO.N,Net-(U30-DCKO)*%
X129865496Y-123783619D03*
%TO.P,U31,6,DIN*%
%TO.N,Net-(U30-DOUT)*%
X130655646Y-123658471D03*
%TD*%
D79*
%TO.P,U21,1,VDD*%
%TO.N,+5V*%
X140243062Y-99687108D03*
%TO.P,U21,2,DCKO*%
%TO.N,Net-(U21-DCKO)*%
X140555646Y-100423512D03*
%TO.P,U21,3,DOUT*%
%TO.N,Net-(U21-DOUT)*%
X140868231Y-101159916D03*
%TO.P,U21,4,GND*%
%TO.N,GND*%
X141531769Y-99140084D03*
%TO.P,U21,5,DCKI*%
%TO.N,Net-(U20-DCKO)*%
X141844354Y-99876488D03*
%TO.P,U21,6,DIN*%
%TO.N,Net-(U20-DOUT)*%
X142156938Y-100612892D03*
%TD*%
D16*
%TO.P,U58,1,VDD*%
%TO.N,+5V*%
X136507180Y-57956218D03*
%TO.P,U58,2,DCKO*%
%TO.N,Net-(U58-DCKO)*%
X137200000Y-57556218D03*
%TO.P,U58,3,DOUT*%
%TO.N,Net-(U58-DOUT)*%
X137892820Y-57156218D03*
%TO.P,U58,4,GND*%
%TO.N,GND*%
X135807180Y-56743782D03*
%TO.P,U58,5,DCKI*%
%TO.N,Net-(U57-DCKO)*%
X136500000Y-56343782D03*
%TO.P,U58,6,DIN*%
%TO.N,Net-(U57-DOUT)*%
X137192820Y-55943782D03*
%TD*%
D80*
%TO.P,U203,1,D1I*%
%TO.N,/D_FS_P*%
X149648500Y-139024986D03*
%TO.P,U203,2,GND*%
%TO.N,GND*%
X149648500Y-138375000D03*
%TO.P,U203,3,D2I*%
%TO.N,/D_FS_N*%
X149648500Y-137725014D03*
%TO.P,U203,4,D2O*%
%TO.N,/D_N*%
X147951500Y-137725014D03*
%TO.P,U203,5,VBUS*%
%TO.N,+5V*%
X147951500Y-138375000D03*
%TO.P,U203,6,D1O*%
%TO.N,/D_P*%
X147951500Y-139024986D03*
%TD*%
D81*
%TO.P,U94,1,VDD*%
%TO.N,+5V*%
X184344401Y-114535512D03*
%TO.P,U94,2,DCKO*%
%TO.N,/LED_CHAIN3/CLOCK_CHAIN_3_TO_4*%
X185057208Y-114898705D03*
%TO.P,U94,3,DOUT*%
%TO.N,/LED_CHAIN3/DATA_CHAIN_3_TO_4*%
X185770012Y-115261897D03*
%TO.P,U94,4,GND*%
%TO.N,GND*%
X184979988Y-113288103D03*
%TO.P,U94,5,DCKI*%
%TO.N,Net-(U93-DCKO)*%
X185692792Y-113651295D03*
%TO.P,U94,6,DIN*%
%TO.N,Net-(U93-DOUT)*%
X186405599Y-114014488D03*
%TD*%
D82*
%TO.P,U16,1,VDD*%
%TO.N,+5V*%
X159520474Y-93730206D03*
%TO.P,U16,2,DCKO*%
%TO.N,/LED_CHAIN1/CLOCK_CHAIN_1_TO_2*%
X159631813Y-94522421D03*
%TO.P,U16,3,DOUT*%
%TO.N,/LED_CHAIN1/DATA_CHAIN_1_TO_2*%
X159743151Y-95314636D03*
%TO.P,U16,4,GND*%
%TO.N,GND*%
X160906849Y-93535364D03*
%TO.P,U16,5,DCKI*%
%TO.N,Net-(U15-DCKO)*%
X161018187Y-94327579D03*
%TO.P,U16,6,DIN*%
%TO.N,Net-(U15-DOUT)*%
X161129526Y-95119794D03*
%TD*%
D58*
%TO.P,R5,1*%
%TO.N,+5V*%
X148240000Y-136650000D03*
%TO.P,R5,2*%
%TO.N,Net-(D1-A1)*%
X149260000Y-136650000D03*
%TD*%
D83*
%TO.P,C19,1*%
%TO.N,+5V*%
X126950520Y-81846194D03*
%TO.P,C19,2*%
%TO.N,GND*%
X128699480Y-81103806D03*
%TD*%
D84*
%TO.P,U78,1,VDD*%
%TO.N,+5V*%
X162073714Y-90754522D03*
%TO.P,U78,2,DCKO*%
%TO.N,Net-(U78-DCKO)*%
X161774029Y-90012775D03*
%TO.P,U78,3,DOUT*%
%TO.N,Net-(U78-DOUT)*%
X161474344Y-89271028D03*
%TO.P,U78,4,GND*%
%TO.N,GND*%
X160775656Y-91278972D03*
%TO.P,U78,5,DCKI*%
%TO.N,Net-(U77-DCKO)*%
X160475971Y-90537225D03*
%TO.P,U78,6,DIN*%
%TO.N,Net-(U77-DOUT)*%
X160176286Y-89795478D03*
%TD*%
D67*
%TO.P,R2,1*%
%TO.N,Net-(J1-CC1)*%
X146620000Y-140710000D03*
%TO.P,R2,2*%
%TO.N,GND*%
X146620000Y-139690000D03*
%TD*%
D53*
%TO.P,U29,1,VDD*%
%TO.N,+5V*%
X127919354Y-117391529D03*
%TO.P,U29,2,DCKO*%
%TO.N,Net-(U29-DCKO)*%
X128709505Y-117266382D03*
%TO.P,U29,3,DOUT*%
%TO.N,Net-(U29-DOUT)*%
X129499655Y-117141234D03*
%TO.P,U29,4,GND*%
%TO.N,GND*%
X127700345Y-116008766D03*
%TO.P,U29,5,DCKI*%
%TO.N,Net-(U28-DCKO)*%
X128490495Y-115883618D03*
%TO.P,U29,6,DIN*%
%TO.N,Net-(U28-DOUT)*%
X129280646Y-115758471D03*
%TD*%
D85*
%TO.P,U64,1,VDD*%
%TO.N,+5V*%
X131200000Y-81000000D03*
%TO.P,U64,2,DCKO*%
%TO.N,/LED_CHAIN2/CLOCK_CHAIN_3_TO_4*%
X132000000Y-81000000D03*
%TO.P,U64,3,DOUT*%
%TO.N,/LED_CHAIN2/DATA_CHAIN_3_TO_4*%
X132800000Y-81000000D03*
%TO.P,U64,4,GND*%
%TO.N,GND*%
X131200000Y-79600000D03*
%TO.P,U64,5,DCKI*%
%TO.N,Net-(U63-DCKO)*%
X132000000Y-79600000D03*
%TO.P,U64,6,DIN*%
%TO.N,Net-(U63-DOUT)*%
X132800000Y-79600000D03*
%TD*%
D86*
%TO.P,U87,1,VDD*%
%TO.N,+5V*%
X193985311Y-90022782D03*
%TO.P,U87,2,DCKO*%
%TO.N,Net-(U87-DCKO)*%
X194656248Y-89587069D03*
%TO.P,U87,3,DOUT*%
%TO.N,Net-(U87-DOUT)*%
X195327183Y-89151359D03*
%TO.P,U87,4,GND*%
%TO.N,GND*%
X193222817Y-88848641D03*
%TO.P,U87,5,DCKI*%
%TO.N,Net-(U86-DCKO)*%
X193893752Y-88412931D03*
%TO.P,U87,6,DIN*%
%TO.N,Net-(U86-DOUT)*%
X194564689Y-87977218D03*
%TD*%
D22*
%TO.P,U49,1,VDD*%
%TO.N,+5V*%
X120466747Y-83599686D03*
%TO.P,U49,2,DCKO*%
%TO.N,Net-(U49-DCKO)*%
X119725000Y-83300000D03*
%TO.P,U49,3,DOUT*%
%TO.N,Net-(U49-DOUT)*%
X118983253Y-83000315D03*
%TO.P,U49,4,GND*%
%TO.N,GND*%
X119942297Y-84897743D03*
%TO.P,U49,5,DCKI*%
%TO.N,Net-(U48-DCKO)*%
X119200550Y-84598058D03*
%TO.P,U49,6,DIN*%
%TO.N,Net-(U48-DOUT)*%
X118458803Y-84298372D03*
%TD*%
D52*
%TO.P,U28,1,VDD*%
%TO.N,+5V*%
X127233708Y-113453285D03*
%TO.P,U28,2,DCKO*%
%TO.N,Net-(U28-DCKO)*%
X128021554Y-113314366D03*
%TO.P,U28,3,DOUT*%
%TO.N,Net-(U28-DOUT)*%
X128809400Y-113175447D03*
%TO.P,U28,4,GND*%
%TO.N,GND*%
X126990600Y-112074553D03*
%TO.P,U28,5,DCKI*%
%TO.N,Net-(U27-DCKO)*%
X127778446Y-111935634D03*
%TO.P,U28,6,DIN*%
%TO.N,Net-(U27-DOUT)*%
X128566292Y-111796715D03*
%TD*%
D87*
%TO.P,U23,1,VDD*%
%TO.N,+5V*%
X133374553Y-102540600D03*
%TO.P,U23,2,DCKO*%
%TO.N,Net-(U23-DCKO)*%
X133235635Y-103328446D03*
%TO.P,U23,3,DOUT*%
%TO.N,Net-(U23-DOUT)*%
X133096716Y-104116292D03*
%TO.P,U23,4,GND*%
%TO.N,GND*%
X134753284Y-102783708D03*
%TO.P,U23,5,DCKI*%
%TO.N,Net-(U22-DCKO)*%
X134614365Y-103571554D03*
%TO.P,U23,6,DIN*%
%TO.N,Net-(U22-DOUT)*%
X134475447Y-104359400D03*
%TD*%
D88*
%TO.P,U88,1,VDD*%
%TO.N,+5V*%
X194964054Y-93567061D03*
%TO.P,U88,2,DCKO*%
%TO.N,Net-(U88-DCKO)*%
X195761009Y-93497336D03*
%TO.P,U88,3,DOUT*%
%TO.N,Net-(U88-DOUT)*%
X196557965Y-93427612D03*
%TO.P,U88,4,GND*%
%TO.N,GND*%
X194842035Y-92172388D03*
%TO.P,U88,5,DCKI*%
%TO.N,Net-(U87-DCKO)*%
X195638991Y-92102664D03*
%TO.P,U88,6,DIN*%
%TO.N,Net-(U87-DOUT)*%
X196435946Y-92032939D03*
%TD*%
D67*
%TO.P,R7,1*%
%TO.N,Net-(J2-~{RESET})*%
X173625000Y-134685000D03*
%TO.P,R7,2*%
%TO.N,+3.3V*%
X173625000Y-133665000D03*
%TD*%
D89*
%TO.P,U62,1,VDD*%
%TO.N,+5V*%
X131721086Y-72819093D03*
%TO.P,U62,2,DCKO*%
%TO.N,Net-(U62-DCKO)*%
X132493827Y-73026149D03*
%TO.P,U62,3,DOUT*%
%TO.N,Net-(U62-DOUT)*%
X133266567Y-73233203D03*
%TO.P,U62,4,GND*%
%TO.N,GND*%
X132083433Y-71466797D03*
%TO.P,U62,5,DCKI*%
%TO.N,Net-(U61-DCKO)*%
X132856173Y-71673851D03*
%TO.P,U62,6,DIN*%
%TO.N,Net-(U61-DOUT)*%
X133628914Y-71880907D03*
%TD*%
D90*
%TO.P,U96,1,VDD*%
%TO.N,+5V*%
X177937458Y-116356213D03*
%TO.P,U96,2,DCKO*%
%TO.N,/LED_CHAIN3/DCKO*%
X177853835Y-117151831D03*
%TO.P,U96,3,DOUT*%
%TO.N,/LED_CHAIN3/DOUT*%
X177770212Y-117947448D03*
%TO.P,U96,4,GND*%
%TO.N,GND*%
X179329788Y-116502552D03*
%TO.P,U96,5,DCKI*%
%TO.N,Net-(U95-DCKO)*%
X179246165Y-117298169D03*
%TO.P,U96,6,DIN*%
%TO.N,Net-(U95-DOUT)*%
X179162542Y-118093787D03*
%TD*%
D18*
%TO.P,C25,1*%
%TO.N,+5V*%
X138925000Y-93300000D03*
%TO.P,C25,2*%
%TO.N,GND*%
X138925000Y-95200000D03*
%TD*%
D91*
%TO.P,SW3,1,A*%
%TO.N,unconnected-(SW3-A-Pad1)*%
X128870000Y-146700000D03*
%TO.P,SW3,2,B*%
%TO.N,GND*%
X131410000Y-146700000D03*
%TO.P,SW3,3,C*%
%TO.N,Net-(D1-A1)*%
X133950000Y-146700000D03*
%TD*%
D92*
%TO.P,U59,1,VDD*%
%TO.N,+5V*%
X135971028Y-61349343D03*
%TO.P,U59,2,DCKO*%
%TO.N,Net-(U59-DCKO)*%
X136712776Y-61649028D03*
%TO.P,U59,3,DOUT*%
%TO.N,Net-(U59-DOUT)*%
X137454523Y-61948714D03*
%TO.P,U59,4,GND*%
%TO.N,GND*%
X136495477Y-60051286D03*
%TO.P,U59,5,DCKI*%
%TO.N,Net-(U58-DCKO)*%
X137237224Y-60350972D03*
%TO.P,U59,6,DIN*%
%TO.N,Net-(U58-DOUT)*%
X137978972Y-60650657D03*
%TD*%
D93*
%TO.P,U34,1,VDD*%
%TO.N,+5V*%
X122072507Y-130799917D03*
%TO.P,U34,2,DCKO*%
%TO.N,/LED_CHAIN1/CLOCK_CHAIN_3_TO_4*%
X122100426Y-131599430D03*
%TO.P,U34,3,DOUT*%
%TO.N,/LED_CHAIN1/DATA_CHAIN_3_TO_4*%
X122128346Y-132398942D03*
%TO.P,U34,4,GND*%
%TO.N,GND*%
X123471654Y-130751058D03*
%TO.P,U34,5,DCKI*%
%TO.N,Net-(U33-DCKO)*%
X123499574Y-131550570D03*
%TO.P,U34,6,DIN*%
%TO.N,Net-(U33-DOUT)*%
X123527493Y-132350083D03*
%TD*%
D58*
%TO.P,R8,1*%
%TO.N,Net-(JP1-B)*%
X162440000Y-118400000D03*
%TO.P,R8,2*%
%TO.N,GND*%
X163460000Y-118400000D03*
%TD*%
D94*
%TO.P,U67,1,VDD*%
%TO.N,+5V*%
X122093782Y-87157180D03*
%TO.P,U67,2,DCKO*%
%TO.N,Net-(U67-DCKO)*%
X122493782Y-87850000D03*
%TO.P,U67,3,DOUT*%
%TO.N,Net-(U67-DOUT)*%
X122893782Y-88542820D03*
%TO.P,U67,4,GND*%
%TO.N,GND*%
X123306218Y-86457180D03*
%TO.P,U67,5,DCKI*%
%TO.N,/LED_CHAIN2/DCKO*%
X123706218Y-87150000D03*
%TO.P,U67,6,DIN*%
%TO.N,/LED_CHAIN2/DOUT*%
X124106218Y-87842820D03*
%TD*%
D95*
%TO.P,U201,1,NC*%
%TO.N,unconnected-(U201-NC-Pad1)*%
X166500000Y-100812500D03*
%TO.P,U201,2,GND*%
%TO.N,GND*%
X166500000Y-100162500D03*
%TO.P,U201,3,V_{OUT}*%
%TO.N,/ADC1_CH1*%
X166500000Y-99512500D03*
%TO.P,U201,4,V_{DD}*%
%TO.N,+3.3V*%
X164600000Y-99512500D03*
%TO.P,U201,5,NC*%
%TO.N,unconnected-(U201-NC-Pad5)*%
X164600000Y-100812500D03*
%TD*%
D96*
%TO.P,U83,1,VDD*%
%TO.N,+5V*%
X180421655Y-85123942D03*
%TO.P,U83,2,DCKO*%
%TO.N,Net-(U83-DCKO)*%
X180449574Y-84324429D03*
%TO.P,U83,3,DOUT*%
%TO.N,Net-(U83-DOUT)*%
X180477493Y-83524918D03*
%TO.P,U83,4,GND*%
%TO.N,GND*%
X179022507Y-85075082D03*
%TO.P,U83,5,DCKI*%
%TO.N,Net-(U82-DCKO)*%
X179050426Y-84275571D03*
%TO.P,U83,6,DIN*%
%TO.N,Net-(U82-DOUT)*%
X179078345Y-83476058D03*
%TD*%
D31*
%TO.P,C2,1*%
%TO.N,GND*%
X181070000Y-140390000D03*
%TO.P,C2,2*%
%TO.N,/BOOT*%
X181070000Y-141350000D03*
%TD*%
D97*
%TO.P,U19,1,VDD*%
%TO.N,+5V*%
X147762047Y-96755467D03*
%TO.P,U19,2,DCKO*%
%TO.N,Net-(U19-DCKO)*%
X148009261Y-97516312D03*
%TO.P,U19,3,DOUT*%
%TO.N,Net-(U19-DOUT)*%
X148256474Y-98277157D03*
%TO.P,U19,4,GND*%
%TO.N,GND*%
X149093526Y-96322843D03*
%TO.P,U19,5,DCKI*%
%TO.N,Net-(U18-DCKO)*%
X149340739Y-97083688D03*
%TO.P,U19,6,DIN*%
%TO.N,Net-(U18-DOUT)*%
X149587953Y-97844533D03*
%TD*%
D45*
%TO.P,C10,1*%
%TO.N,GND*%
X169500000Y-101750000D03*
%TO.P,C10,2*%
%TO.N,/ADC1_CH1*%
X168540000Y-101750000D03*
%TD*%
D98*
%TO.P,U10,1,VDD*%
%TO.N,+5V*%
X183904522Y-95876286D03*
%TO.P,U10,2,DCKO*%
%TO.N,Net-(U10-DCKO)*%
X183162775Y-96175971D03*
%TO.P,U10,3,DOUT*%
%TO.N,Net-(U10-DOUT)*%
X182421028Y-96475656D03*
%TO.P,U10,4,GND*%
%TO.N,GND*%
X184428972Y-97174344D03*
%TO.P,U10,5,DCKI*%
%TO.N,Net-(U10-DCKI)*%
X183687225Y-97474029D03*
%TO.P,U10,6,DIN*%
%TO.N,Net-(U10-DIN)*%
X182945478Y-97773714D03*
%TD*%
D21*
%TO.P,U56,1,VDD*%
%TO.N,+5V*%
X131209916Y-57468232D03*
%TO.P,U56,2,DCKO*%
%TO.N,Net-(U56-DCKO)*%
X130473512Y-57155647D03*
%TO.P,U56,3,DOUT*%
%TO.N,Net-(U56-DOUT)*%
X129737108Y-56843062D03*
%TO.P,U56,4,GND*%
%TO.N,GND*%
X130662892Y-58756938D03*
%TO.P,U56,5,DCKI*%
%TO.N,/LED_CHAIN2/CLOCK_CHAIN_2_TO_3*%
X129926488Y-58444353D03*
%TO.P,U56,6,DIN*%
%TO.N,/LED_CHAIN2/DATA_CHAIN_2_TO_3*%
X129190084Y-58131768D03*
%TD*%
D30*
%TO.P,U13,1,VDD*%
%TO.N,+5V*%
X171600000Y-92750000D03*
%TO.P,U13,2,DCKO*%
%TO.N,Net-(U13-DCKO)*%
X171600000Y-93550000D03*
%TO.P,U13,3,DOUT*%
%TO.N,Net-(U13-DOUT)*%
X171600000Y-94350000D03*
%TO.P,U13,4,GND*%
%TO.N,GND*%
X173000000Y-92750000D03*
%TO.P,U13,5,DCKI*%
%TO.N,Net-(U12-DCKO)*%
X173000000Y-93550000D03*
%TO.P,U13,6,DIN*%
%TO.N,Net-(U12-DOUT)*%
X173000000Y-94350000D03*
%TD*%
D92*
%TO.P,U32,1,VDD*%
%TO.N,+5V*%
X128771028Y-128799344D03*
%TO.P,U32,2,DCKO*%
%TO.N,Net-(U32-DCKO)*%
X129512776Y-129099029D03*
%TO.P,U32,3,DOUT*%
%TO.N,Net-(U32-DOUT)*%
X130254522Y-129398714D03*
%TO.P,U32,4,GND*%
%TO.N,GND*%
X129295478Y-127501286D03*
%TO.P,U32,5,DCKI*%
%TO.N,Net-(U31-DCKO)*%
X130037224Y-127800971D03*
%TO.P,U32,6,DIN*%
%TO.N,Net-(U31-DOUT)*%
X130778972Y-128100656D03*
%TD*%
D20*
%TO.P,U57,1,VDD*%
%TO.N,+5V*%
X134028284Y-55866292D03*
%TO.P,U57,2,DCKO*%
%TO.N,Net-(U57-DCKO)*%
X133889367Y-55078447D03*
%TO.P,U57,3,DOUT*%
%TO.N,Net-(U57-DOUT)*%
X133750447Y-54290601D03*
%TO.P,U57,4,GND*%
%TO.N,GND*%
X132649553Y-56109399D03*
%TO.P,U57,5,DCKI*%
%TO.N,Net-(U56-DCKO)*%
X132510633Y-55321553D03*
%TO.P,U57,6,DIN*%
%TO.N,Net-(U56-DOUT)*%
X132371716Y-54533708D03*
%TD*%
D99*
%TO.P,U90,1,VDD*%
%TO.N,+5V*%
X192322816Y-100551358D03*
%TO.P,U90,2,DCKO*%
%TO.N,Net-(U90-DCKO)*%
X192993754Y-100987070D03*
%TO.P,U90,3,DOUT*%
%TO.N,Net-(U90-DOUT)*%
X193664689Y-101422781D03*
%TO.P,U90,4,GND*%
%TO.N,GND*%
X193085311Y-99377219D03*
%TO.P,U90,5,DCKI*%
%TO.N,Net-(U89-DCKO)*%
X193756246Y-99812930D03*
%TO.P,U90,6,DIN*%
%TO.N,Net-(U89-DOUT)*%
X194427184Y-100248642D03*
%TD*%
D24*
%TO.P,C23,1*%
%TO.N,+5V*%
X178875000Y-112475000D03*
%TO.P,C23,2*%
%TO.N,GND*%
X180775000Y-112475000D03*
%TD*%
D100*
%TO.P,NT2,1,1*%
%TO.N,/FSPID*%
X169690000Y-126240000D03*
%TO.P,NT2,2,2*%
%TO.N,/MTCK*%
X170690000Y-126240000D03*
%TD*%
D101*
%TO.P,C17,1*%
%TO.N,+5V*%
X179450000Y-90325000D03*
%TO.P,C17,2*%
%TO.N,GND*%
X179450000Y-88425000D03*
%TD*%
D102*
%TO.P,C20,1*%
%TO.N,+5V*%
X125632292Y-77400081D03*
%TO.P,C20,2*%
%TO.N,GND*%
X127417708Y-78049919D03*
%TD*%
D40*
%TO.P,U74,1,VDD*%
%TO.N,+5V*%
X145975447Y-90634400D03*
%TO.P,U74,2,DCKO*%
%TO.N,Net-(U74-DCKO)*%
X146114366Y-89846554D03*
%TO.P,U74,3,DOUT*%
%TO.N,Net-(U74-DOUT)*%
X146253284Y-89058708D03*
%TO.P,U74,4,GND*%
%TO.N,GND*%
X144596716Y-90391292D03*
%TO.P,U74,5,DCKI*%
%TO.N,Net-(U73-DCKO)*%
X144735634Y-89603446D03*
%TO.P,U74,6,DIN*%
%TO.N,Net-(U73-DOUT)*%
X144874553Y-88815600D03*
%TD*%
D103*
%TO.P,U95,1,VDD*%
%TO.N,+5V*%
X181721715Y-116458709D03*
%TO.P,U95,2,DCKO*%
%TO.N,Net-(U95-DCKO)*%
X181860634Y-117246555D03*
%TO.P,U95,3,DOUT*%
%TO.N,Net-(U95-DOUT)*%
X181999553Y-118034400D03*
%TO.P,U95,4,GND*%
%TO.N,GND*%
X183100447Y-116215600D03*
%TO.P,U95,5,DCKI*%
%TO.N,/LED_CHAIN3/CLOCK_CHAIN_3_TO_4*%
X183239366Y-117003445D03*
%TO.P,U95,6,DIN*%
%TO.N,/LED_CHAIN3/DATA_CHAIN_3_TO_4*%
X183378285Y-117791291D03*
%TD*%
D104*
%TO.P,U66,1,VDD*%
%TO.N,+5V*%
X125843599Y-85262660D03*
%TO.P,U66,2,DCKO*%
%TO.N,/LED_CHAIN2/DCKO*%
X126117215Y-86014414D03*
%TO.P,U66,3,DOUT*%
%TO.N,/LED_CHAIN2/DOUT*%
X126390831Y-86766168D03*
%TO.P,U66,4,GND*%
%TO.N,GND*%
X127159169Y-84783832D03*
%TO.P,U66,5,DCKI*%
%TO.N,Net-(U65-DCKO)*%
X127432785Y-85535586D03*
%TO.P,U66,6,DIN*%
%TO.N,Net-(U65-DOUT)*%
X127706401Y-86287340D03*
%TD*%
D22*
%TO.P,U52,1,VDD*%
%TO.N,+5V*%
X125103972Y-72300657D03*
%TO.P,U52,2,DCKO*%
%TO.N,Net-(U52-DCKO)*%
X124362224Y-72000972D03*
%TO.P,U52,3,DOUT*%
%TO.N,Net-(U52-DOUT)*%
X123620477Y-71701286D03*
%TO.P,U52,4,GND*%
%TO.N,GND*%
X124579523Y-73598714D03*
%TO.P,U52,5,DCKI*%
%TO.N,Net-(U51-DCKO)*%
X123837776Y-73299028D03*
%TO.P,U52,6,DIN*%
%TO.N,Net-(U51-DOUT)*%
X123096028Y-72999343D03*
%TD*%
D105*
%TO.P,U71,1,VDD*%
%TO.N,+5V*%
X134433203Y-91216566D03*
%TO.P,U71,2,DCKO*%
%TO.N,Net-(U71-DCKO)*%
X134226148Y-90443827D03*
%TO.P,U71,3,DOUT*%
%TO.N,Net-(U71-DOUT)*%
X134019093Y-89671086D03*
%TO.P,U71,4,GND*%
%TO.N,GND*%
X133080907Y-91578914D03*
%TO.P,U71,5,DCKI*%
%TO.N,Net-(U70-DCKO)*%
X132873852Y-90806173D03*
%TO.P,U71,6,DIN*%
%TO.N,Net-(U70-DOUT)*%
X132666797Y-90033434D03*
%TD*%
D106*
%TO.P,J2,1,VTref*%
%TO.N,+3.3V*%
X197325000Y-130970000D03*
%TO.P,J2,2,SWDIO/TMS*%
%TO.N,/MTMS*%
X193255000Y-130970000D03*
%TO.P,J2,3,GND*%
%TO.N,GND*%
X197325000Y-129700000D03*
%TO.P,J2,4,SWCLK/TCK*%
%TO.N,/MTCK*%
X193255000Y-129700000D03*
%TO.P,J2,5,GND*%
%TO.N,GND*%
X197325000Y-128430000D03*
%TO.P,J2,6,SWO/TDO*%
%TO.N,/MTDO*%
X193255000Y-128430000D03*
%TO.P,J2,7,KEY*%
%TO.N,unconnected-(J2-KEY-Pad7)*%
X197325000Y-127160000D03*
%TO.P,J2,8,NC/TDI*%
%TO.N,/MTDI*%
X193255000Y-127160000D03*
%TO.P,J2,9,GNDDetect*%
%TO.N,GND*%
X197325000Y-125890000D03*
%TO.P,J2,10,~{RESET}*%
%TO.N,Net-(J2-~{RESET})*%
X193255000Y-125890000D03*
%TD*%
D107*
%TO.P,U14,1,VDD*%
%TO.N,+5V*%
X167559091Y-92837731D03*
%TO.P,U14,2,DCKO*%
%TO.N,Net-(U14-DCKO)*%
X167600959Y-93636636D03*
%TO.P,U14,3,DOUT*%
%TO.N,Net-(U14-DOUT)*%
X167642828Y-94435539D03*
%TO.P,U14,4,GND*%
%TO.N,GND*%
X168957172Y-92764461D03*
%TO.P,U14,5,DCKI*%
%TO.N,Net-(U13-DCKO)*%
X168999041Y-93563364D03*
%TO.P,U14,6,DIN*%
%TO.N,Net-(U13-DOUT)*%
X169040909Y-94362269D03*
%TD*%
D60*
%TO.P,U61,1,VDD*%
%TO.N,+5V*%
X132933832Y-68884169D03*
%TO.P,U61,2,DCKO*%
%TO.N,Net-(U61-DCKO)*%
X133685586Y-69157784D03*
%TO.P,U61,3,DOUT*%
%TO.N,Net-(U61-DOUT)*%
X134437340Y-69431401D03*
%TO.P,U61,4,GND*%
%TO.N,GND*%
X133412660Y-67568599D03*
%TO.P,U61,5,DCKI*%
%TO.N,Net-(U60-DCKO)*%
X134164414Y-67842216D03*
%TO.P,U61,6,DIN*%
%TO.N,Net-(U60-DOUT)*%
X134916168Y-68115831D03*
%TD*%
D18*
%TO.P,C16,1*%
%TO.N,+5V*%
X136175000Y-96800000D03*
%TO.P,C16,2*%
%TO.N,GND*%
X136175000Y-98700000D03*
%TD*%
D81*
%TO.P,U92,1,VDD*%
%TO.N,+5V*%
X187944401Y-107385512D03*
%TO.P,U92,2,DCKO*%
%TO.N,Net-(U92-DCKO)*%
X188657208Y-107748705D03*
%TO.P,U92,3,DOUT*%
%TO.N,Net-(U92-DOUT)*%
X189370012Y-108111897D03*
%TO.P,U92,4,GND*%
%TO.N,GND*%
X188579988Y-106138103D03*
%TO.P,U92,5,DCKI*%
%TO.N,Net-(U91-DCKO)*%
X189292792Y-106501295D03*
%TO.P,U92,6,DIN*%
%TO.N,Net-(U91-DOUT)*%
X190005599Y-106864488D03*
%TD*%
D108*
%TO.P,U17,1,VDD*%
%TO.N,+5V*%
X155523967Y-94513020D03*
%TO.P,U17,2,DCKO*%
%TO.N,Net-(U17-DCKO)*%
X155690297Y-95295537D03*
%TO.P,U17,3,DOUT*%
%TO.N,Net-(U17-DOUT)*%
X155856626Y-96078055D03*
%TO.P,U17,4,GND*%
%TO.N,GND*%
X156893374Y-94221945D03*
%TO.P,U17,5,DCKI*%
%TO.N,/LED_CHAIN1/CLOCK_CHAIN_1_TO_2*%
X157059703Y-95004463D03*
%TO.P,U17,6,DIN*%
%TO.N,/LED_CHAIN1/DATA_CHAIN_1_TO_2*%
X157226033Y-95786980D03*
%TD*%
D30*
%TO.P,U82,1,VDD*%
%TO.N,+5V*%
X176475000Y-85025000D03*
%TO.P,U82,2,DCKO*%
%TO.N,Net-(U82-DCKO)*%
X176475000Y-84225000D03*
%TO.P,U82,3,DOUT*%
%TO.N,Net-(U82-DOUT)*%
X176475000Y-83425000D03*
%TO.P,U82,4,GND*%
%TO.N,GND*%
X175075000Y-85025000D03*
%TO.P,U82,5,DCKI*%
%TO.N,Net-(U81-DCKO)*%
X175075000Y-84225000D03*
%TO.P,U82,6,DIN*%
%TO.N,Net-(U81-DOUT)*%
X175075000Y-83425000D03*
%TD*%
D109*
%TO.P,U79,1,VDD*%
%TO.N,+5V*%
X165687049Y-88750208D03*
%TO.P,U79,2,DCKO*%
%TO.N,Net-(U79-DCKO)*%
X165275017Y-88064473D03*
%TO.P,U79,3,DOUT*%
%TO.N,Net-(U79-DOUT)*%
X164862987Y-87378740D03*
%TO.P,U79,4,GND*%
%TO.N,GND*%
X164487013Y-89471260D03*
%TO.P,U79,5,DCKI*%
%TO.N,Net-(U78-DCKO)*%
X164074983Y-88785527D03*
%TO.P,U79,6,DIN*%
%TO.N,Net-(U78-DOUT)*%
X163662951Y-88099792D03*
%TD*%
D110*
%TO.P,U18,1,VDD*%
%TO.N,+5V*%
X151581607Y-95548937D03*
%TO.P,U18,2,DCKO*%
%TO.N,Net-(U18-DCKO)*%
X151802116Y-96317946D03*
%TO.P,U18,3,DOUT*%
%TO.N,Net-(U18-DOUT)*%
X152022627Y-97086956D03*
%TO.P,U18,4,GND*%
%TO.N,GND*%
X152927373Y-95163044D03*
%TO.P,U18,5,DCKI*%
%TO.N,Net-(U17-DCKO)*%
X153147884Y-95932054D03*
%TO.P,U18,6,DIN*%
%TO.N,Net-(U17-DOUT)*%
X153368393Y-96701063D03*
%TD*%
D22*
%TO.P,U54,1,VDD*%
%TO.N,+5V*%
X128143972Y-64840657D03*
%TO.P,U54,2,DCKO*%
%TO.N,Net-(U54-DCKO)*%
X127402225Y-64540971D03*
%TO.P,U54,3,DOUT*%
%TO.N,Net-(U54-DOUT)*%
X126660478Y-64241286D03*
%TO.P,U54,4,GND*%
%TO.N,GND*%
X127619522Y-66138714D03*
%TO.P,U54,5,DCKI*%
%TO.N,Net-(U53-DCKO)*%
X126877775Y-65839029D03*
%TO.P,U54,6,DIN*%
%TO.N,Net-(U53-DOUT)*%
X126136028Y-65539343D03*
%TD*%
D111*
%TO.P,U36,1,VDD*%
%TO.N,+5V*%
X114372627Y-129988044D03*
%TO.P,U36,2,DCKO*%
%TO.N,/LED_CHAIN1/DCKO*%
X114152117Y-130757053D03*
%TO.P,U36,3,DOUT*%
%TO.N,/LED_CHAIN1/DOUT*%
X113931607Y-131526063D03*
%TO.P,U36,4,GND*%
%TO.N,GND*%
X115718393Y-130373937D03*
%TO.P,U36,5,DCKI*%
%TO.N,Net-(U35-DCKO)*%
X115497883Y-131142947D03*
%TO.P,U36,6,DIN*%
%TO.N,Net-(U35-DOUT)*%
X115277373Y-131911956D03*
%TD*%
D112*
%TO.P,U2,1,VDD*%
%TO.N,+5V*%
X170657514Y-113965012D03*
%TO.P,U2,2,DCKO*%
%TO.N,Net-(U2-DCKO)*%
X170281937Y-114671370D03*
%TO.P,U2,3,DOUT*%
%TO.N,Net-(U2-DOUT)*%
X169906359Y-115377729D03*
%TO.P,U2,4,GND*%
%TO.N,GND*%
X171893641Y-114622271D03*
%TO.P,U2,5,DCKI*%
%TO.N,Net-(U1-DCKO)*%
X171518063Y-115328630D03*
%TO.P,U2,6,DIN*%
%TO.N,Net-(U1-DOUT)*%
X171142486Y-116034988D03*
%TD*%
D113*
%TO.P,U4,1,VDD*%
%TO.N,+5V*%
X166553914Y-108780907D03*
%TO.P,U4,2,DCKO*%
%TO.N,Net-(U4-DCKO)*%
X165781173Y-108573853D03*
%TO.P,U4,3,DOUT*%
%TO.N,Net-(U4-DOUT)*%
X165008432Y-108366796D03*
%TO.P,U4,4,GND*%
%TO.N,GND*%
X166191568Y-110133204D03*
%TO.P,U4,5,DCKI*%
%TO.N,Net-(U3-DCKO)*%
X165418827Y-109926147D03*
%TO.P,U4,6,DIN*%
%TO.N,Net-(U3-DOUT)*%
X164646086Y-109719093D03*
%TD*%
D114*
%TO.P,U38,1,VDD*%
%TO.N,+5V*%
X108678818Y-125317732D03*
%TO.P,U38,2,DCKO*%
%TO.N,Net-(U38-DCKO)*%
X108023496Y-125776594D03*
%TO.P,U38,3,DOUT*%
%TO.N,Net-(U38-DOUT)*%
X107368175Y-126235455D03*
%TO.P,U38,4,GND*%
%TO.N,GND*%
X109481825Y-126464545D03*
%TO.P,U38,5,DCKI*%
%TO.N,Net-(U37-DCKO)*%
X108826504Y-126923406D03*
%TO.P,U38,6,DIN*%
%TO.N,Net-(U37-DOUT)*%
X108171182Y-127382268D03*
%TD*%
D100*
%TO.P,NT1,1,1*%
%TO.N,/FSPICLK*%
X173080000Y-125030000D03*
%TO.P,NT1,2,2*%
%TO.N,/MTDO*%
X174080000Y-125030000D03*
%TD*%
D75*
%TO.P,U80,1,VDD*%
%TO.N,+5V*%
X169106218Y-86667820D03*
%TO.P,U80,2,DCKO*%
%TO.N,Net-(U80-DCKO)*%
X168706218Y-85974999D03*
%TO.P,U80,3,DOUT*%
%TO.N,Net-(U80-DOUT)*%
X168306218Y-85282180D03*
%TO.P,U80,4,GND*%
%TO.N,GND*%
X167893782Y-87367820D03*
%TO.P,U80,5,DCKI*%
%TO.N,Net-(U79-DCKO)*%
X167493782Y-86675001D03*
%TO.P,U80,6,DIN*%
%TO.N,Net-(U79-DOUT)*%
X167093782Y-85982180D03*
%TD*%
D81*
%TO.P,U93,1,VDD*%
%TO.N,+5V*%
X186144401Y-110960512D03*
%TO.P,U93,2,DCKO*%
%TO.N,Net-(U93-DCKO)*%
X186857208Y-111323705D03*
%TO.P,U93,3,DOUT*%
%TO.N,Net-(U93-DOUT)*%
X187570012Y-111686897D03*
%TO.P,U93,4,GND*%
%TO.N,GND*%
X186779988Y-109713103D03*
%TO.P,U93,5,DCKI*%
%TO.N,Net-(U92-DCKO)*%
X187492792Y-110076295D03*
%TO.P,U93,6,DIN*%
%TO.N,Net-(U92-DOUT)*%
X188205599Y-110439488D03*
%TD*%
D22*
%TO.P,U43,1,VDD*%
%TO.N,+5V*%
X111203972Y-106550656D03*
%TO.P,U43,2,DCKO*%
%TO.N,Net-(U43-DCKO)*%
X110462225Y-106250971D03*
%TO.P,U43,3,DOUT*%
%TO.N,Net-(U43-DOUT)*%
X109720478Y-105951286D03*
%TO.P,U43,4,GND*%
%TO.N,GND*%
X110679522Y-107848714D03*
%TO.P,U43,5,DCKI*%
%TO.N,Net-(U42-DCKO)*%
X109937775Y-107549029D03*
%TO.P,U43,6,DIN*%
%TO.N,Net-(U42-DOUT)*%
X109196028Y-107249344D03*
%TD*%
D45*
%TO.P,C6,1*%
%TO.N,Net-(U202-NR)*%
X148380000Y-124975000D03*
%TO.P,C6,2*%
%TO.N,GND*%
X147420000Y-124975000D03*
%TD*%
D20*
%TO.P,U6,1,VDD*%
%TO.N,+5V*%
X172953284Y-105816293D03*
%TO.P,U6,2,DCKO*%
%TO.N,/LED_CHAIN1/DCKI*%
X172814365Y-105028447D03*
%TO.P,U6,3,DOUT*%
%TO.N,/LED_CHAIN1/DIN*%
X172675447Y-104240601D03*
%TO.P,U6,4,GND*%
%TO.N,GND*%
X171574553Y-106059399D03*
%TO.P,U6,5,DCKI*%
%TO.N,Net-(U5-DCKO)*%
X171435635Y-105271553D03*
%TO.P,U6,6,DIN*%
%TO.N,Net-(U5-DOUT)*%
X171296716Y-104483707D03*
%TD*%
D115*
%TO.P,U33,1,VDD*%
%TO.N,+5V*%
X125866796Y-130508432D03*
%TO.P,U33,2,DCKO*%
%TO.N,Net-(U33-DCKO)*%
X126073852Y-131281173D03*
%TO.P,U33,3,DOUT*%
%TO.N,Net-(U33-DOUT)*%
X126280907Y-132053913D03*
%TO.P,U33,4,GND*%
%TO.N,GND*%
X127219093Y-130146087D03*
%TO.P,U33,5,DCKI*%
%TO.N,Net-(U32-DCKO)*%
X127426148Y-130918827D03*
%TO.P,U33,6,DIN*%
%TO.N,Net-(U32-DOUT)*%
X127633204Y-131691568D03*
%TD*%
D116*
%TO.N,GND*%
X133425000Y-66700000D03*
X180175000Y-116425000D03*
X164500000Y-142000000D03*
X146230000Y-138900000D03*
X173925000Y-139700000D03*
X170300000Y-101700000D03*
X167475000Y-107850000D03*
X107425000Y-116400000D03*
X142940000Y-146880000D03*
X130925000Y-59575000D03*
X151901795Y-141213826D03*
X168500000Y-142000000D03*
X177850000Y-93150000D03*
X120550000Y-127050000D03*
X123190000Y-78260000D03*
X116500000Y-130600000D03*
X173800000Y-92725000D03*
X124650000Y-94300000D03*
X167500000Y-100225000D03*
X168500000Y-139000000D03*
X167125000Y-87650000D03*
X125650000Y-103325000D03*
X153700000Y-142660000D03*
X186100000Y-85525000D03*
X159950000Y-91375000D03*
X169775000Y-92700000D03*
X187175000Y-109000000D03*
X194675000Y-91375000D03*
X112900000Y-129425000D03*
X137525000Y-98475000D03*
X119625000Y-85650000D03*
X151200000Y-124125000D03*
X183775000Y-115650000D03*
X146875000Y-124125000D03*
X161250000Y-93075000D03*
X130625000Y-82100000D03*
X151675000Y-92075000D03*
X165500000Y-142000000D03*
X163500000Y-142000000D03*
X168500000Y-138000000D03*
X159450000Y-132425000D03*
X122200000Y-81325000D03*
X179300000Y-148240000D03*
X127575000Y-115200000D03*
X126200000Y-107275000D03*
X170775000Y-106275000D03*
X109950000Y-127125000D03*
X199240000Y-128540000D03*
X161500000Y-141000000D03*
X153775000Y-95150000D03*
X169325000Y-113100000D03*
X168500000Y-141000000D03*
X188950000Y-105400000D03*
X180800000Y-113900000D03*
X142910000Y-142270000D03*
X139975000Y-90525000D03*
X161500000Y-136000000D03*
X127425000Y-129350000D03*
X178650000Y-104425000D03*
X107950000Y-123950000D03*
X126850000Y-84225000D03*
X184550000Y-98025000D03*
X128150000Y-99525000D03*
X164300000Y-118275000D03*
X134950000Y-62975000D03*
X123650000Y-85650000D03*
X182850000Y-102500000D03*
X132275000Y-145900000D03*
X181450000Y-139640000D03*
X185375000Y-112575000D03*
X195025000Y-95100000D03*
X191325000Y-102000000D03*
X199240000Y-126000000D03*
X146500000Y-125820000D03*
X193525000Y-98675000D03*
X143750000Y-90575000D03*
X127750000Y-66940000D03*
X161500000Y-137000000D03*
X135600000Y-102550000D03*
X126875000Y-111275000D03*
X131075000Y-74725000D03*
X155750000Y-92050000D03*
X150575000Y-138400000D03*
X124760000Y-74480000D03*
X126240000Y-70710000D03*
X180025000Y-87300000D03*
X128500000Y-72375000D03*
X192750000Y-88200000D03*
X138650000Y-100600000D03*
X153700000Y-146940000D03*
X165700000Y-92975000D03*
X157750000Y-94225000D03*
X168500000Y-140000000D03*
X161925000Y-103375000D03*
X145050000Y-141100000D03*
X172625000Y-114975000D03*
X176325000Y-116050000D03*
X142350000Y-99000000D03*
X181875000Y-93850000D03*
X131975000Y-70600000D03*
X111900000Y-104750000D03*
X175175000Y-89175000D03*
X158125000Y-132425000D03*
X118125000Y-89475000D03*
X132025000Y-56725000D03*
X128250000Y-119175000D03*
X136475000Y-59200000D03*
X190600000Y-139040000D03*
X133325000Y-92250000D03*
X161500000Y-142000000D03*
X161500000Y-139000000D03*
X120950000Y-90425000D03*
X168500000Y-137000000D03*
X129320000Y-63340000D03*
X132800000Y-100925000D03*
X128600000Y-77425000D03*
X161500000Y-138000000D03*
X178200000Y-85025000D03*
X115000000Y-97100000D03*
X117000000Y-105625000D03*
X120375000Y-130850000D03*
X110400000Y-108600000D03*
X136250000Y-91250000D03*
X190160000Y-148420000D03*
X130950000Y-78800000D03*
X147675000Y-91325000D03*
X113500000Y-100900000D03*
X161500000Y-140000000D03*
X182175000Y-85200000D03*
X174275000Y-85000000D03*
X156090000Y-145100000D03*
X146125000Y-97525000D03*
X189725000Y-86075000D03*
X167500000Y-142000000D03*
X128975000Y-123100000D03*
X107025000Y-120275000D03*
X177025000Y-113725000D03*
X134975000Y-56725000D03*
X149925000Y-96250000D03*
X129325000Y-82250000D03*
X124275000Y-130650000D03*
X168500000Y-136000000D03*
X162500000Y-142000000D03*
X128650000Y-93400000D03*
X146050000Y-130550000D03*
X191100000Y-96925000D03*
X166825000Y-110575000D03*
X166500000Y-142000000D03*
X174750000Y-105500000D03*
X150210000Y-127710000D03*
X170575000Y-85925000D03*
X129425000Y-126675000D03*
X199270000Y-129770000D03*
X140200000Y-95375000D03*
X108800000Y-112525000D03*
X163700000Y-89750000D03*
X120475000Y-109575000D03*
X116550000Y-93275000D03*
%TO.N,+5V*%
X163450000Y-91650000D03*
X129175000Y-103300000D03*
X125175000Y-102100000D03*
X162003125Y-95928125D03*
%TO.N,+3.3V*%
X174650000Y-140950000D03*
X166713235Y-128363235D03*
X170710000Y-132460000D03*
X178040000Y-136280000D03*
X169394265Y-132495735D03*
X159110400Y-128088005D03*
X176210000Y-136240000D03*
X174200000Y-136300000D03*
X163425000Y-128275000D03*
X162225000Y-128275000D03*
X174640000Y-137710000D03*
X169269608Y-130469608D03*
X158625000Y-126825000D03*
%TO.N,Net-(D1-A1)*%
X144214867Y-136754081D03*
X150460000Y-135375000D03*
%TO.N,Net-(J2-~{RESET})*%
X170225000Y-139450000D03*
X173600000Y-135575000D03*
X175470000Y-134680000D03*
X177350000Y-134670000D03*
%TO.N,/START{slash}STOP*%
X171240000Y-131320000D03*
X166875000Y-132400000D03*
%TO.N,Net-(U200-GPIO8)*%
X162000000Y-132100000D03*
X160425000Y-130550000D03*
%TO.N,/FSPICLK*%
X171275000Y-126825000D03*
X172575000Y-124050000D03*
X173725000Y-122950000D03*
X171900000Y-125450000D03*
%TO.N,/FSPID*%
X170630000Y-123750000D03*
X172160000Y-122190000D03*
%TO.N,/MTDI*%
X175880000Y-127720000D03*
X190600000Y-125800000D03*
X177125000Y-127690000D03*
X188950000Y-127775000D03*
%TO.N,/MTMS*%
X177125000Y-129267129D03*
X175825000Y-129275000D03*
%TO.N,/MTCK*%
X175925000Y-126370000D03*
X177125000Y-126320000D03*
%TO.N,/MTDO*%
X177125000Y-125020742D03*
X175820000Y-125030000D03*
%TD*%
D117*
%TO.N,GND*%
X175075000Y-85025000D02*
X174275000Y-85000000D01*
X108800000Y-112525000D02*
X109104523Y-111773714D01*
X136250000Y-91250000D02*
X136899553Y-90634400D01*
D118*
X150550000Y-138375000D02*
X150575000Y-138400000D01*
D117*
X168957172Y-92764461D02*
X169775000Y-92700000D01*
X132649553Y-56109399D02*
X132640601Y-56109399D01*
D118*
X146820000Y-131100000D02*
X146600000Y-131100000D01*
D117*
X169500000Y-101750000D02*
X170250000Y-101750000D01*
X133325000Y-92250000D02*
X133325000Y-91823007D01*
X126850000Y-84474663D02*
X127159169Y-84783832D01*
X180325000Y-147175000D02*
X180200000Y-147175000D01*
X119554100Y-130800778D02*
X120375000Y-130850000D01*
X171893641Y-114622271D02*
X172625000Y-114975000D01*
X123471654Y-130751058D02*
X124275000Y-130650000D01*
X149093526Y-96322843D02*
X149925000Y-96250000D01*
X132083433Y-71466797D02*
X131975000Y-70600000D01*
X110400000Y-108600000D02*
X110679522Y-107848714D01*
X144002500Y-142857500D02*
X143497500Y-142857500D01*
D118*
X132275000Y-145900000D02*
X132325000Y-145950000D01*
D117*
X175508203Y-115908433D02*
X176325000Y-116050000D01*
X127700345Y-116008766D02*
X127575000Y-115200000D01*
X180025000Y-87850000D02*
X179450000Y-88425000D01*
X136495477Y-59220477D02*
X136475000Y-59200000D01*
D118*
X173075000Y-139895000D02*
X173730000Y-139895000D01*
D117*
X135788398Y-56725000D02*
X134975000Y-56725000D01*
X147675000Y-91325000D02*
X148521716Y-91141292D01*
X135807180Y-56743782D02*
X135788398Y-56725000D01*
D119*
X128699480Y-81624480D02*
X129325000Y-82250000D01*
D118*
X164175000Y-118400000D02*
X164300000Y-118275000D01*
D117*
X115718393Y-130373937D02*
X116500000Y-130600000D01*
D119*
X120225000Y-108275000D02*
X120475000Y-109575000D01*
D117*
X127309898Y-99762092D02*
X128150000Y-99525000D01*
X186907939Y-85585946D02*
X186100000Y-85525000D01*
X143097500Y-147037500D02*
X142940000Y-146880000D01*
X153602500Y-147037500D02*
X153700000Y-146940000D01*
D118*
X149648500Y-138375000D02*
X150550000Y-138375000D01*
D117*
X113500000Y-100900000D02*
X113779522Y-100148714D01*
X118125000Y-89475000D02*
X118429522Y-88723714D01*
X151522500Y-141593121D02*
X151901795Y-141213826D01*
X130514544Y-82943175D02*
X130625000Y-82100000D01*
X170250000Y-101750000D02*
X170300000Y-101700000D01*
X184979988Y-113288103D02*
X185375000Y-112575000D01*
D118*
X146600000Y-131100000D02*
X146050000Y-130550000D01*
D117*
X129075345Y-123908766D02*
X128975000Y-123100000D01*
D118*
X197325000Y-129700000D02*
X199200000Y-129700000D01*
D117*
X160775656Y-91278972D02*
X159950000Y-91375000D01*
X182984090Y-85287270D02*
X182175000Y-85200000D01*
X193222817Y-88848641D02*
X192750000Y-88200000D01*
D118*
X197325000Y-125890000D02*
X199130000Y-125890000D01*
D117*
X186779988Y-109713103D02*
X187175000Y-109000000D01*
X184428972Y-97174344D02*
X184550000Y-98025000D01*
X183100447Y-116215600D02*
X183775000Y-115650000D01*
X177042061Y-93039053D02*
X177850000Y-93150000D01*
X148750000Y-127850000D02*
X150070000Y-127850000D01*
X145301409Y-97640688D02*
X146125000Y-97525000D01*
X180025000Y-87300000D02*
X180025000Y-87850000D01*
X107711956Y-123177373D02*
X107950000Y-123950000D01*
X181070000Y-140390000D02*
X181070000Y-140020000D01*
X115000000Y-97100000D02*
X115329522Y-96348714D01*
X170575000Y-85925000D02*
X171381474Y-85752156D01*
X193085311Y-99377219D02*
X193525000Y-98675000D01*
X127619523Y-66138712D02*
X127750000Y-66940000D01*
X124579523Y-73598714D02*
X124760000Y-74480000D01*
X123306218Y-86457180D02*
X123650000Y-85650000D01*
X134962108Y-63818062D02*
X134962108Y-62987108D01*
X191000000Y-147250000D02*
X191000000Y-147580000D01*
X128650000Y-93400000D02*
X129264484Y-92794704D01*
X161925000Y-103205000D02*
X162475000Y-102655000D01*
X132332268Y-100196182D02*
X132800000Y-100925000D01*
X133325000Y-91823007D02*
X133080907Y-91578914D01*
X145122500Y-142282500D02*
X145122500Y-141172500D01*
D119*
X128699480Y-81103806D02*
X128699480Y-81624480D01*
D117*
X134962108Y-62987108D02*
X134950000Y-62975000D01*
D118*
X131410000Y-146700000D02*
X131475000Y-146700000D01*
D117*
X182850000Y-102500000D02*
X183339688Y-101847779D01*
X107025000Y-120275000D02*
X107049223Y-119454101D01*
X156060000Y-145130000D02*
X156090000Y-145100000D01*
X131200000Y-79600000D02*
X130950000Y-78800000D01*
X111900000Y-104750000D02*
X112229522Y-103998714D01*
X181089786Y-93648265D02*
X181875000Y-93850000D01*
X188579989Y-106138103D02*
X188950000Y-105400000D01*
X166500000Y-100162500D02*
X167437500Y-100162500D01*
X179329788Y-116502552D02*
X180175000Y-116425000D01*
X121132179Y-91268783D02*
X120950000Y-90425000D01*
X152642500Y-142857500D02*
X153502500Y-142857500D01*
X189910000Y-139240000D02*
X190400000Y-139240000D01*
D119*
X175900000Y-112674999D02*
X177025000Y-113725000D01*
X116871751Y-104196751D02*
X116871751Y-105496751D01*
D117*
X171000000Y-143525000D02*
X171200000Y-143525000D01*
X173000000Y-92750000D02*
X173800000Y-92725000D01*
X194842035Y-92172388D02*
X194675000Y-91375000D01*
X168118783Y-107342820D02*
X167475000Y-107850000D01*
X164487013Y-89471260D02*
X163700000Y-89750000D01*
X153502500Y-142857500D02*
X153700000Y-142660000D01*
X152642500Y-147037500D02*
X153602500Y-147037500D01*
D118*
X199270000Y-129870000D02*
X199270000Y-129770000D01*
D117*
X131287732Y-75559091D02*
X131075000Y-74725000D01*
X147107600Y-126427600D02*
X146500000Y-125820000D01*
D119*
X127507292Y-73375081D02*
X128500000Y-72375000D01*
D117*
X129295478Y-127501286D02*
X129425000Y-126675000D01*
X159300000Y-133625000D02*
X159450000Y-132425000D01*
X179415831Y-104166168D02*
X178650000Y-104425000D01*
D119*
X136175000Y-98700000D02*
X137525000Y-98475000D01*
D117*
X181070000Y-140020000D02*
X181450000Y-139640000D01*
X109481825Y-126464547D02*
X109950000Y-127125000D01*
X175531627Y-105278055D02*
X174750000Y-105500000D01*
X129137891Y-62456939D02*
X129320000Y-63340000D01*
X157725000Y-132825000D02*
X158125000Y-132425000D01*
X150070000Y-127850000D02*
X150210000Y-127710000D01*
X179022507Y-85075082D02*
X178200000Y-85025000D01*
D118*
X173730000Y-139895000D02*
X173925000Y-139700000D01*
D117*
X180325000Y-147215000D02*
X179300000Y-148240000D01*
X123054523Y-77348714D02*
X123190000Y-78260000D01*
X128390600Y-119974553D02*
X128250000Y-119175000D01*
X141531769Y-99140084D02*
X142350000Y-99000000D01*
X119625000Y-85650000D02*
X119942297Y-84897743D01*
X190400000Y-139240000D02*
X190600000Y-139040000D01*
X151522500Y-142282500D02*
X151522500Y-141593121D01*
X125685364Y-104143151D02*
X125650000Y-103325000D01*
X190846182Y-102667732D02*
X191325000Y-102000000D01*
X167893782Y-87367820D02*
X167125000Y-87650000D01*
X155290000Y-145130000D02*
X156060000Y-145130000D01*
X150980000Y-125000000D02*
X150980000Y-124345000D01*
D119*
X116871751Y-105496751D02*
X117000000Y-105625000D01*
D118*
X146620000Y-139690000D02*
X146620000Y-139290000D01*
D117*
X136495477Y-60051286D02*
X136495477Y-59220477D01*
X127219093Y-130146087D02*
X127425000Y-129350000D01*
D118*
X199130000Y-125890000D02*
X199240000Y-126000000D01*
D117*
X164887542Y-93056213D02*
X165700000Y-92975000D01*
X150980000Y-124345000D02*
X151200000Y-124125000D01*
X126990600Y-112074553D02*
X126875000Y-111275000D01*
X190437952Y-86475207D02*
X189725000Y-86075000D01*
X152927373Y-95163044D02*
X153775000Y-95150000D01*
X143497500Y-142857500D02*
X142910000Y-142270000D01*
D119*
X173850000Y-89300000D02*
X175175000Y-89175000D01*
D118*
X199240000Y-128575000D02*
X199240000Y-128540000D01*
D117*
X126104522Y-69848714D02*
X126240000Y-70710000D01*
D118*
X199130000Y-128430000D02*
X199240000Y-128540000D01*
D117*
X121529523Y-81073714D02*
X122200000Y-81325000D01*
X156250000Y-132825000D02*
X157725000Y-132825000D01*
X180325000Y-147175000D02*
X180325000Y-147215000D01*
X112236539Y-128939236D02*
X112900000Y-129425000D01*
D119*
X180800000Y-113900000D02*
X180775000Y-112475000D01*
D117*
X180325000Y-147175000D02*
X180255000Y-147175000D01*
D118*
X163460000Y-118400000D02*
X164175000Y-118400000D01*
D117*
X139975000Y-90525000D02*
X140750000Y-90125000D01*
D119*
X138925000Y-95200000D02*
X140200000Y-95375000D01*
D117*
X137860511Y-100844401D02*
X138650000Y-100600000D01*
X156550000Y-92125000D02*
X155750000Y-92050000D01*
X116550000Y-93275000D02*
X116879522Y-92523714D01*
D119*
X127417708Y-78049919D02*
X128600000Y-77425000D01*
D117*
X151675000Y-92075000D02*
X152507939Y-91885946D01*
X147775021Y-126427600D02*
X147107600Y-126427600D01*
X134753284Y-102783708D02*
X135600000Y-102550000D01*
X147420000Y-124670000D02*
X146875000Y-124125000D01*
X132640601Y-56109399D02*
X132025000Y-56725000D01*
X126200000Y-107275000D02*
X126300346Y-108108766D01*
D118*
X197325000Y-128430000D02*
X199130000Y-128430000D01*
D117*
X168678143Y-112580473D02*
X169325000Y-113100000D01*
X161925000Y-103375000D02*
X161925000Y-103205000D01*
X167437500Y-100162500D02*
X167500000Y-100225000D01*
D118*
X146700000Y-139690000D02*
X146700000Y-139650000D01*
D117*
X107425000Y-116400000D02*
X107662341Y-115606401D01*
X156893374Y-94221945D02*
X157750000Y-94225000D01*
X171574553Y-106059399D02*
X170775000Y-106275000D01*
X130662892Y-58756938D02*
X130925000Y-59575000D01*
X160906849Y-93418151D02*
X161250000Y-93075000D01*
X160906849Y-93535364D02*
X160906849Y-93418151D01*
X126850000Y-84225000D02*
X126850000Y-84474663D01*
X144002500Y-147037500D02*
X143097500Y-147037500D01*
X166191568Y-110133204D02*
X166825000Y-110575000D01*
X143750000Y-90575000D02*
X144596716Y-90391292D01*
D118*
X131475000Y-146700000D02*
X132275000Y-145900000D01*
D117*
X133412660Y-67568599D02*
X133425000Y-66700000D01*
D118*
X199200000Y-129700000D02*
X199270000Y-129770000D01*
D117*
X147420000Y-124975000D02*
X147420000Y-124670000D01*
D119*
X119475000Y-126675000D02*
X120550000Y-127050000D01*
D117*
X124650000Y-94300000D02*
X125397902Y-93886962D01*
D119*
X191025000Y-95575000D02*
X191100000Y-96925000D01*
D118*
X145122500Y-141172500D02*
X145050000Y-141100000D01*
X146620000Y-139290000D02*
X146230000Y-138900000D01*
D117*
X191000000Y-147580000D02*
X190160000Y-148420000D01*
X194812660Y-95893599D02*
X195025000Y-95100000D01*
%TO.N,+5V*%
X114303972Y-98850657D02*
X115228315Y-99775000D01*
X121263396Y-93050000D02*
X121832179Y-92481217D01*
X125880207Y-105529526D02*
X124959733Y-106450000D01*
X112753972Y-102700657D02*
X115375657Y-102700657D01*
X151400000Y-95367330D02*
X151400000Y-93550868D01*
X162975000Y-92125000D02*
X163450000Y-91650000D01*
X131975000Y-93757073D02*
X130603311Y-92385384D01*
X171550000Y-111925000D02*
X170600000Y-112725000D01*
D119*
X120900000Y-100950000D02*
X122342553Y-99567553D01*
X117725000Y-114925000D02*
X117678085Y-118600000D01*
X126900000Y-96925000D02*
X127500000Y-96789615D01*
D117*
X113408664Y-128116336D02*
X115850000Y-125675000D01*
X170825000Y-108150000D02*
X175900000Y-110775001D01*
X154844687Y-94513020D02*
X153825000Y-93493333D01*
X173625000Y-112500000D02*
X173625000Y-114850000D01*
X107844456Y-122350000D02*
X117630213Y-122350000D01*
X114925000Y-128450000D02*
X114372627Y-129782109D01*
X170600000Y-112725000D02*
X170500000Y-113275000D01*
X117528724Y-125675000D02*
X117603724Y-125600000D01*
X184344401Y-114535512D02*
X184315590Y-114506701D01*
D119*
X125100000Y-96925000D02*
X126900000Y-96925000D01*
X124896714Y-83900000D02*
X125323357Y-83473357D01*
X129701831Y-67248169D02*
X130325000Y-66625000D01*
D117*
X122053972Y-79775657D02*
X122806281Y-80527966D01*
X119278315Y-87750000D02*
X120875000Y-87750000D01*
X179450000Y-90325000D02*
X176975000Y-87850000D01*
X108141168Y-114290832D02*
X108775336Y-114925000D01*
X145975447Y-90634400D02*
X145975447Y-90795610D01*
X125761993Y-114925000D02*
X117725000Y-114925000D01*
X174200000Y-111925000D02*
X173625000Y-112500000D01*
X148603899Y-137013899D02*
X148603899Y-137996101D01*
X150722500Y-141747500D02*
X148603899Y-139628899D01*
X172300000Y-89400000D02*
X171612322Y-88712322D01*
X193593001Y-97950000D02*
X194333832Y-97209169D01*
D119*
X170525000Y-89350000D02*
X171612322Y-88712322D01*
D117*
X193946993Y-92550000D02*
X194964054Y-93567061D01*
X124959733Y-106450000D02*
X121625000Y-106450000D01*
X124282868Y-76050657D02*
X125632292Y-77400081D01*
X172953284Y-105816293D02*
X174625000Y-107225000D01*
D119*
X129701831Y-73615796D02*
X129701831Y-70975000D01*
D117*
X131185453Y-96569419D02*
X131975000Y-95779872D01*
D119*
X145525000Y-136650000D02*
X148240000Y-136650000D01*
D117*
X171600000Y-92750000D02*
X172300000Y-92050000D01*
D119*
X124678723Y-97328723D02*
X125100000Y-96925000D01*
D117*
X132933832Y-68884169D02*
X130674663Y-66625000D01*
X117678724Y-124350000D02*
X117603724Y-124425000D01*
X160675000Y-92125000D02*
X162975000Y-92125000D01*
X180275000Y-92821641D02*
X180275000Y-91150000D01*
X179450000Y-90325000D02*
X177823077Y-91951923D01*
X170500000Y-113275000D02*
X170657514Y-113965012D01*
X190500000Y-97950000D02*
X193593001Y-97950000D01*
D119*
X131975000Y-95779872D02*
X133125000Y-95520384D01*
D117*
X115853972Y-95050657D02*
X116378315Y-95575000D01*
X186144401Y-110960512D02*
X186115590Y-110931701D01*
X129403603Y-75146314D02*
X128171314Y-75146314D01*
X123408364Y-128050000D02*
X118950000Y-128050000D01*
X184315590Y-111290590D02*
X181262500Y-108237500D01*
D119*
X133175000Y-63775000D02*
X133175000Y-61925000D01*
D117*
X141050000Y-93342733D02*
X142150000Y-92242733D01*
D119*
X133450000Y-95447051D02*
X134320667Y-95879333D01*
X186925000Y-93375000D02*
X185100000Y-91550000D01*
D117*
X177823077Y-91951923D02*
X176612500Y-91951923D01*
X163450000Y-93157343D02*
X163495211Y-93202554D01*
D119*
X129701831Y-70025000D02*
X129701831Y-67248169D01*
X130325000Y-66625000D02*
X130800000Y-66150000D01*
D117*
X125866796Y-130508432D02*
X123408364Y-128050000D01*
X181125000Y-85827287D02*
X181125000Y-88650000D01*
D119*
X133800000Y-57900000D02*
X134125000Y-57900000D01*
X171612322Y-88712322D02*
X173850000Y-87400000D01*
X179274570Y-90325000D02*
X176349570Y-87400000D01*
D117*
X190500000Y-94200000D02*
X190525000Y-94200000D01*
D119*
X117525000Y-108700000D02*
X117610141Y-111350000D01*
X184125000Y-105375000D02*
X185425000Y-104075000D01*
D117*
X192100000Y-90225000D02*
X190500000Y-91825000D01*
D119*
X133125000Y-95520384D02*
X133450000Y-95447051D01*
D117*
X148350000Y-135375000D02*
X148350000Y-136540000D01*
D119*
X117603724Y-125150000D02*
X117603724Y-125600000D01*
D117*
X190043175Y-103043175D02*
X188250000Y-101250000D01*
D119*
X133175000Y-61925000D02*
X133175000Y-60675000D01*
D117*
X189125000Y-95575000D02*
X189125000Y-96575000D01*
D119*
X152622794Y-114552206D02*
X144450000Y-122725000D01*
X122342553Y-99567553D02*
X124678723Y-97328723D01*
D117*
X108775336Y-114925000D02*
X117725000Y-114925000D01*
X134181218Y-57956218D02*
X134125000Y-57900000D01*
X128103315Y-70025000D02*
X129701831Y-70025000D01*
X175900000Y-110775001D02*
X174200000Y-111925000D01*
X149000000Y-135375000D02*
X149000000Y-135890000D01*
X169162500Y-110962500D02*
X171925000Y-111925000D01*
D119*
X117630213Y-122350000D02*
X117614894Y-123550000D01*
D117*
X183904522Y-95876286D02*
X185023714Y-95876286D01*
X182437340Y-103687340D02*
X184125000Y-105375000D01*
X192322816Y-99772816D02*
X192322816Y-100551358D01*
X148225000Y-138375000D02*
X147951500Y-138375000D01*
X163450000Y-91650000D02*
X163450000Y-93157343D01*
X174155907Y-115546086D02*
X173625000Y-114850000D01*
X134150000Y-96050000D02*
X134320667Y-95879333D01*
X179450000Y-113750000D02*
X178875000Y-112475000D01*
X122806281Y-80527966D02*
X125632292Y-80527966D01*
X175750000Y-108725000D02*
X175900000Y-110775001D01*
X129367732Y-83746182D02*
X128850508Y-83746182D01*
X112543316Y-107890000D02*
X117890000Y-107890000D01*
X135296685Y-60675000D02*
X133175000Y-60675000D01*
X131214461Y-76957172D02*
X129403603Y-75146314D01*
X132606768Y-65106768D02*
X132225000Y-64725000D01*
X170825000Y-108150000D02*
X169331216Y-106642820D01*
D119*
X181262500Y-108237500D02*
X183200000Y-106300000D01*
D117*
X110503315Y-111350000D02*
X117610141Y-111350000D01*
X134028284Y-57803284D02*
X134125000Y-57900000D01*
D119*
X136650000Y-94725000D02*
X138925000Y-93300000D01*
X152600000Y-93575000D02*
X153825000Y-93493333D01*
X189125000Y-95575000D02*
X186925000Y-93375000D01*
D117*
X180275000Y-91150000D02*
X179450000Y-90325000D01*
X126944883Y-93754893D02*
X126762020Y-93754893D01*
X125843599Y-85262660D02*
X125323357Y-84742418D01*
X192175000Y-92550000D02*
X193946993Y-92550000D01*
D119*
X128171314Y-75146314D02*
X129292708Y-74024919D01*
D117*
X186115590Y-110931701D02*
X186115590Y-109215590D01*
X186925000Y-93975000D02*
X186925000Y-93375000D01*
X162969192Y-91650000D02*
X162073714Y-90754522D01*
X115750000Y-124425000D02*
X117603724Y-124425000D01*
X123578972Y-76050657D02*
X124282868Y-76050657D01*
X142150000Y-92242733D02*
X142150000Y-90225000D01*
X190500000Y-97950000D02*
X192322816Y-99772816D01*
X148875000Y-92409847D02*
X149900447Y-91384400D01*
X131200000Y-81000000D02*
X129925000Y-79725000D01*
D119*
X133175000Y-60675000D02*
X133175000Y-58525000D01*
X143300000Y-93387980D02*
X144825000Y-93418647D01*
D117*
X176612500Y-91951923D02*
X175647388Y-92917035D01*
X132118232Y-57468232D02*
X133175000Y-58525000D01*
X126900000Y-96925000D02*
X127075000Y-96750000D01*
X178925000Y-110575000D02*
X178775000Y-110725000D01*
X165687049Y-88750208D02*
X166513106Y-88750208D01*
X133900000Y-102015153D02*
X133900000Y-99525000D01*
X132418231Y-61168231D02*
X133175000Y-61925000D01*
X168150000Y-111175000D02*
X169162500Y-110962500D01*
X133900000Y-99525000D02*
X133125000Y-98750000D01*
X138925000Y-93300000D02*
X138925000Y-91038008D01*
X131721086Y-72819093D02*
X129876993Y-70975000D01*
X155523967Y-94513020D02*
X154844687Y-94513020D01*
D119*
X144450000Y-122725000D02*
X144450000Y-135575000D01*
D117*
X147700000Y-136025000D02*
X147700000Y-135375000D01*
D119*
X183875000Y-90325000D02*
X179450000Y-90325000D01*
D117*
X178925000Y-107010949D02*
X178925000Y-110575000D01*
X118953972Y-87425657D02*
X119278315Y-87750000D01*
X126269495Y-100698876D02*
X126269495Y-98919495D01*
D119*
X123600000Y-83900000D02*
X124896714Y-83900000D01*
D117*
X149000000Y-135890000D02*
X148240000Y-136650000D01*
X176975000Y-85525000D02*
X176475000Y-85025000D01*
X148240000Y-136565000D02*
X147700000Y-136025000D01*
X120466747Y-83599686D02*
X121967061Y-85100000D01*
X116378315Y-95575000D02*
X119100000Y-95575000D01*
D119*
X175900000Y-110775001D02*
X178775000Y-110725000D01*
D117*
X140243062Y-96590562D02*
X143300000Y-93533624D01*
X173319534Y-85319534D02*
X174850000Y-86850000D01*
X181125000Y-88650000D02*
X179450000Y-90325000D01*
X150722500Y-142282500D02*
X150736889Y-142268111D01*
X128143971Y-64840658D02*
X129453313Y-66150000D01*
X119100000Y-92921685D02*
X119100000Y-93050000D01*
X127800000Y-124350000D02*
X117678724Y-124350000D01*
D119*
X129701831Y-70975000D02*
X129701831Y-70025000D01*
X127500000Y-96789615D02*
X131975000Y-95779872D01*
D117*
X145922500Y-139791739D02*
X145500000Y-139369239D01*
X117603724Y-126646276D02*
X117575000Y-126675000D01*
X190525000Y-94200000D02*
X192175000Y-92550000D01*
X184315590Y-114506701D02*
X184315590Y-111290590D01*
D119*
X119350000Y-104650000D02*
X121625000Y-106450000D01*
D117*
X148875000Y-93500091D02*
X148875000Y-92409847D01*
X190500000Y-94200000D02*
X189125000Y-95575000D01*
X153902612Y-92007965D02*
X153902612Y-92136395D01*
D119*
X178925000Y-110575000D02*
X178875000Y-112475000D01*
X148875000Y-93500091D02*
X151400000Y-93550868D01*
X117603724Y-125600000D02*
X117603724Y-126646276D01*
D117*
X127636992Y-122350000D02*
X117630213Y-122350000D01*
X148240000Y-136650000D02*
X148603899Y-137013899D01*
X169567820Y-86667820D02*
X171612322Y-88712322D01*
D119*
X127083814Y-76233814D02*
X128171314Y-75146314D01*
X120875000Y-87750000D02*
X120875000Y-86625000D01*
D117*
X148603899Y-139628899D02*
X148603899Y-138990000D01*
X130674663Y-66625000D02*
X130325000Y-66625000D01*
X190500000Y-91825000D02*
X190500000Y-94200000D01*
X127233708Y-113453285D02*
X125761993Y-114925000D01*
X128850508Y-83746182D02*
X126950520Y-81846194D01*
X192525000Y-90225000D02*
X193175000Y-89575000D01*
D119*
X187250000Y-102250000D02*
X188250000Y-101250000D01*
D117*
X117575000Y-126675000D02*
X114925000Y-128450000D01*
X172712953Y-85319534D02*
X173319534Y-85319534D01*
D119*
X121625000Y-106450000D02*
X122125000Y-108275000D01*
X125632292Y-79725000D02*
X125632292Y-77400081D01*
D117*
X167621551Y-111661991D02*
X168150000Y-111175000D01*
X189125000Y-86530352D02*
X189125000Y-95575000D01*
X121967061Y-85100000D02*
X122400000Y-85100000D01*
X119100000Y-93050000D02*
X121263396Y-93050000D01*
D119*
X188250000Y-101250000D02*
X188250000Y-96450000D01*
D117*
X187795702Y-106445702D02*
X185425000Y-104075000D01*
D119*
X119100000Y-102850000D02*
X117275000Y-102150000D01*
D117*
X136507180Y-57956218D02*
X134181218Y-57956218D01*
D119*
X130800000Y-66150000D02*
X132225000Y-64725000D01*
X124875000Y-102100000D02*
X122342553Y-99567553D01*
D117*
X179715508Y-93381133D02*
X180275000Y-92821641D01*
X192100000Y-87658273D02*
X191637987Y-87196260D01*
X157950000Y-92125000D02*
X160675000Y-92125000D01*
D119*
X133175000Y-58525000D02*
X133800000Y-57900000D01*
D117*
X115850000Y-125675000D02*
X117528724Y-125675000D01*
X134028284Y-55866292D02*
X134028284Y-57803284D01*
D119*
X117603724Y-124425000D02*
X117603724Y-125150000D01*
D117*
X125323357Y-84742418D02*
X125323357Y-83473357D01*
X111103917Y-128116336D02*
X113408664Y-128116336D01*
D119*
X151400000Y-93550868D02*
X152600000Y-93575000D01*
X119100000Y-95575000D02*
X119100000Y-93050000D01*
D117*
X131209916Y-57468232D02*
X132118232Y-57468232D01*
D119*
X125917546Y-77400081D02*
X127083814Y-76233814D01*
X125323357Y-83473357D02*
X126950520Y-81846194D01*
D117*
X148603899Y-137996101D02*
X148225000Y-138375000D01*
D119*
X120900000Y-100950000D02*
X119100000Y-102850000D01*
D117*
X144825000Y-91784847D02*
X145975447Y-90634400D01*
D119*
X129292708Y-74024919D02*
X129701831Y-73615796D01*
D117*
X129684916Y-61168231D02*
X132418231Y-61168231D01*
X148350000Y-136540000D02*
X148240000Y-136650000D01*
X180731400Y-103687340D02*
X182437340Y-103687340D01*
X145500000Y-136675000D02*
X145525000Y-136650000D01*
X125103972Y-72300657D02*
X125103972Y-72624217D01*
X128633708Y-121353284D02*
X127636992Y-122350000D01*
X118950000Y-128050000D02*
X117575000Y-126675000D01*
X174200000Y-111925000D02*
X171925000Y-111925000D01*
D119*
X119100000Y-102850000D02*
X119350000Y-104650000D01*
X174850000Y-87400000D02*
X173850000Y-87400000D01*
X176349570Y-87400000D02*
X174850000Y-87400000D01*
X120875000Y-86625000D02*
X121825000Y-85675000D01*
X138925000Y-93300000D02*
X141050000Y-93342733D01*
D117*
X193175000Y-89575000D02*
X193537529Y-89575000D01*
D119*
X167950000Y-90187102D02*
X168500000Y-90008304D01*
D117*
X153825000Y-93493333D02*
X153825000Y-92085577D01*
D119*
X185100000Y-91550000D02*
X183875000Y-90325000D01*
X163450000Y-91650000D02*
X167950000Y-90187102D01*
D117*
X117575000Y-126675000D02*
X118157511Y-130580731D01*
X193537529Y-89575000D02*
X193985311Y-90022782D01*
X148240000Y-136650000D02*
X148240000Y-136565000D01*
X176901032Y-104986981D02*
X178925000Y-107010949D01*
X140243062Y-99687108D02*
X140243062Y-96590562D01*
X111203972Y-106550656D02*
X112543316Y-107890000D01*
X186115590Y-109215590D02*
X183200000Y-106300000D01*
X178450000Y-114700000D02*
X177937458Y-116356213D01*
X107689369Y-118600000D02*
X117678085Y-118600000D01*
X143977682Y-98096483D02*
X143977682Y-94265965D01*
X153825000Y-92085577D02*
X153902612Y-92007965D01*
X127083814Y-74604059D02*
X127083814Y-76233814D01*
X127500000Y-96789615D02*
X127500000Y-94310010D01*
X117403972Y-91225657D02*
X119100000Y-92921685D01*
X131185453Y-99393175D02*
X131185453Y-96569419D01*
X124660882Y-111350000D02*
X117610141Y-111350000D01*
X126710883Y-118600000D02*
X117678085Y-118600000D01*
X169106218Y-86667820D02*
X169567820Y-86667820D01*
X184102183Y-100673643D02*
X185673643Y-100673643D01*
X147762047Y-96755467D02*
X147762047Y-94613044D01*
X184382172Y-85360539D02*
X185100000Y-86078367D01*
X125121684Y-125150000D02*
X117603724Y-125150000D01*
X126519353Y-109491529D02*
X124660882Y-111350000D01*
X129453313Y-66150000D02*
X130800000Y-66150000D01*
D119*
X119350000Y-104650000D02*
X117890000Y-107890000D01*
X117890000Y-107890000D02*
X117525000Y-108700000D01*
D117*
X145500000Y-139369239D02*
X145500000Y-136675000D01*
X187944401Y-107385512D02*
X187795702Y-107236813D01*
X187795702Y-107236813D02*
X187795702Y-106445702D01*
X109628971Y-110475656D02*
X110503315Y-111350000D01*
X188302612Y-85707964D02*
X189125000Y-86530352D01*
X148603899Y-138753899D02*
X148225000Y-138375000D01*
X168500000Y-91896822D02*
X168500000Y-90008304D01*
X172300000Y-92050000D02*
X172300000Y-89400000D01*
X150722500Y-142282500D02*
X150722500Y-141747500D01*
D119*
X144450000Y-135575000D02*
X145525000Y-136650000D01*
X120875000Y-89010939D02*
X120875000Y-87750000D01*
D117*
X136613103Y-101479989D02*
X134150000Y-99016886D01*
X192100000Y-90225000D02*
X192525000Y-90225000D01*
D119*
X122400000Y-85100000D02*
X123600000Y-83900000D01*
D117*
X166553914Y-108780907D02*
X167225000Y-109025000D01*
X128741529Y-125291529D02*
X127800000Y-124350000D01*
D119*
X181262500Y-108237500D02*
X178925000Y-110575000D01*
D117*
X185100000Y-86078367D02*
X185100000Y-91550000D01*
D119*
X117614894Y-123550000D02*
X117603724Y-124425000D01*
D117*
X166513106Y-88750208D02*
X167950000Y-90187102D01*
X122072507Y-130799917D02*
X121699917Y-130799917D01*
X143977682Y-94265965D02*
X144825000Y-93418647D01*
D119*
X152622794Y-105308456D02*
X131183456Y-105308456D01*
D117*
X128771028Y-128799344D02*
X125121684Y-125150000D01*
X147762047Y-94613044D02*
X148875000Y-93500091D01*
X134150000Y-99016886D02*
X134150000Y-96050000D01*
X148603899Y-139103899D02*
X148603899Y-138753899D01*
D119*
X126950520Y-81846194D02*
X125632292Y-80527966D01*
D117*
X136650000Y-94725000D02*
X136650000Y-93433363D01*
D119*
X119100000Y-99775000D02*
X119100000Y-95575000D01*
D117*
X136650000Y-93433363D02*
X134433203Y-91216566D01*
D119*
X179450000Y-90325000D02*
X179274570Y-90325000D01*
D117*
X178450000Y-114700000D02*
X178875000Y-112475000D01*
D119*
X119100000Y-90785939D02*
X120875000Y-89010939D01*
X121825000Y-85675000D02*
X122400000Y-85100000D01*
D117*
X126269495Y-98919495D02*
X124678723Y-97328723D01*
D119*
X185425000Y-104075000D02*
X187250000Y-102250000D01*
D117*
X185673643Y-100673643D02*
X187250000Y-102250000D01*
D119*
X125632292Y-77400081D02*
X125917546Y-77400081D01*
X132225000Y-64725000D02*
X133175000Y-63775000D01*
D117*
X122093782Y-87157180D02*
X122093782Y-85943782D01*
X167559091Y-92837731D02*
X168500000Y-91896822D01*
X190043175Y-103814547D02*
X190043175Y-103043175D01*
X163450000Y-91650000D02*
X162969192Y-91650000D01*
X127500000Y-94310010D02*
X126944883Y-93754893D01*
X148603899Y-138990000D02*
X148603899Y-138753899D01*
X181721715Y-116458709D02*
X179450000Y-113750000D01*
X189125000Y-96575000D02*
X190500000Y-97950000D01*
X108678818Y-125317732D02*
X114857268Y-125317732D01*
X126628972Y-68550657D02*
X128103315Y-70025000D01*
X122093782Y-85943782D02*
X121825000Y-85675000D01*
X107146880Y-118057511D02*
X107689369Y-118600000D01*
X115228315Y-99775000D02*
X119100000Y-99775000D01*
X185023714Y-95876286D02*
X186925000Y-93975000D01*
D119*
X133450000Y-95447051D02*
X136650000Y-94725000D01*
D117*
X133125000Y-98750000D02*
X133125000Y-95520384D01*
X129925000Y-79725000D02*
X125632292Y-79725000D01*
X134415084Y-65106768D02*
X132606768Y-65106768D01*
X159520474Y-93279526D02*
X160675000Y-92125000D01*
D119*
X117678085Y-118600000D02*
X117630213Y-122350000D01*
D117*
X121699917Y-130799917D02*
X117575000Y-126675000D01*
X176975000Y-87850000D02*
X176975000Y-85525000D01*
X174850000Y-86850000D02*
X174850000Y-87400000D01*
D119*
X168500000Y-90008304D02*
X170525000Y-89350000D01*
X144825000Y-93418647D02*
X148875000Y-93500091D01*
X119100000Y-102850000D02*
X119100000Y-99775000D01*
D117*
X135971028Y-61349343D02*
X135296685Y-60675000D01*
X143300000Y-93533624D02*
X143300000Y-93387980D01*
D119*
X119100000Y-93050000D02*
X119100000Y-90785939D01*
D117*
X131975000Y-95779872D02*
X131975000Y-93757073D01*
X138925000Y-91038008D02*
X138278284Y-90391292D01*
D119*
X117610141Y-111350000D02*
X117725000Y-114925000D01*
D117*
X169162500Y-110962500D02*
X167225000Y-109025000D01*
D119*
X117275000Y-102150000D02*
X115528249Y-102853249D01*
D117*
X107326063Y-121831607D02*
X107844456Y-122350000D01*
X127919354Y-117391529D02*
X126710883Y-118600000D01*
X145922500Y-142282500D02*
X145922500Y-139791739D01*
X114857268Y-125317732D02*
X115750000Y-124425000D01*
X129294354Y-125291529D02*
X128741529Y-125291529D01*
D119*
X188250000Y-96450000D02*
X189125000Y-95575000D01*
D117*
X115375657Y-102700657D02*
X115528249Y-102853249D01*
X180421655Y-85123942D02*
X181125000Y-85827287D01*
X133374553Y-102540600D02*
X133900000Y-102015153D01*
D119*
X125175000Y-102100000D02*
X124875000Y-102100000D01*
D117*
X144825000Y-93418647D02*
X144825000Y-91784847D01*
D119*
X162003125Y-95928125D02*
X152622794Y-105308456D01*
D117*
X174625000Y-107225000D02*
X175750000Y-108725000D01*
X171925000Y-111925000D02*
X171550000Y-111925000D01*
X125103972Y-72624217D02*
X127083814Y-74604059D01*
X192100000Y-87658273D02*
X192100000Y-90225000D01*
D119*
X141050000Y-93342733D02*
X143300000Y-93387980D01*
X184125000Y-105375000D02*
X183200000Y-106300000D01*
X134320667Y-95879333D02*
X136175000Y-96800000D01*
D117*
X129876993Y-70975000D02*
X129701831Y-70975000D01*
D119*
X152622794Y-105308456D02*
X152622794Y-114552206D01*
X125632292Y-80527966D02*
X125632292Y-79725000D01*
D117*
X159520474Y-93730206D02*
X159520474Y-93279526D01*
X151581607Y-95548937D02*
X151400000Y-95367330D01*
D119*
X131183456Y-105308456D02*
X129175000Y-103300000D01*
D118*
%TO.N,Net-(U202-NR)*%
X148425007Y-126427600D02*
X148425007Y-125020007D01*
X148425007Y-125020007D02*
X148380000Y-124975000D01*
D117*
%TO.N,+3.3V*%
X172725000Y-135900000D02*
X172725000Y-133875000D01*
X159297395Y-128275000D02*
X159110400Y-128088005D01*
X176150000Y-136300000D02*
X176210000Y-136240000D01*
X170710000Y-132460000D02*
X171970000Y-132460000D01*
X178040000Y-136280000D02*
X192015000Y-136280000D01*
X169394265Y-132495735D02*
X169394265Y-130594265D01*
X169394265Y-130594265D02*
X169269608Y-130469608D01*
D118*
X162475000Y-101637500D02*
X164600000Y-99512500D01*
X154800000Y-109200000D02*
X154800000Y-116725000D01*
X174640000Y-140940000D02*
X174650000Y-140950000D01*
D117*
X159110400Y-128088005D02*
X158675000Y-128523405D01*
D118*
X178127500Y-140987500D02*
X177990000Y-141125000D01*
D117*
X192015000Y-136280000D02*
X197325000Y-130970000D01*
X150020000Y-126132579D02*
X149724979Y-126427600D01*
D118*
X188375000Y-141085000D02*
X188335000Y-141125000D01*
X181305000Y-143625000D02*
X181960000Y-142970000D01*
X181960000Y-141485000D02*
X182360000Y-141085000D01*
X179250000Y-143625000D02*
X181305000Y-143625000D01*
X158690000Y-128565000D02*
X159110400Y-128144600D01*
D117*
X171970000Y-132460000D02*
X172935000Y-133425000D01*
X171150000Y-140975000D02*
X172955000Y-140975000D01*
X173625000Y-133665000D02*
X172935000Y-133665000D01*
D118*
X174640000Y-137710000D02*
X174640000Y-140940000D01*
X174650000Y-140950000D02*
X173170000Y-140950000D01*
X162475000Y-101695000D02*
X162305000Y-101695000D01*
D117*
X174200000Y-136300000D02*
X173125000Y-136300000D01*
D118*
X150587500Y-120937500D02*
X150020000Y-121505000D01*
X162475000Y-101695000D02*
X162475000Y-101637500D01*
D117*
X174200000Y-136300000D02*
X176150000Y-136300000D01*
D118*
X150020000Y-121505000D02*
X150020000Y-125000000D01*
D117*
X172935000Y-133425000D02*
X172935000Y-133665000D01*
X173125000Y-136300000D02*
X172725000Y-135900000D01*
X166625000Y-128275000D02*
X166713235Y-128363235D01*
X163425000Y-128275000D02*
X166625000Y-128275000D01*
X172935000Y-133665000D02*
X172725000Y-133875000D01*
D118*
X178225000Y-140890000D02*
X178225000Y-140865000D01*
D117*
X162225000Y-128275000D02*
X159297395Y-128275000D01*
D118*
X178207500Y-140987500D02*
X178450000Y-141230000D01*
X178450000Y-142825000D02*
X179250000Y-143625000D01*
X178450000Y-141230000D02*
X178450000Y-142825000D01*
D117*
X166713235Y-128286321D02*
X166744556Y-128255000D01*
X172955000Y-140975000D02*
X173075000Y-140855000D01*
D118*
X174650000Y-137720000D02*
X174640000Y-137710000D01*
X162305000Y-101695000D02*
X154800000Y-109200000D01*
X174825000Y-141125000D02*
X177990000Y-141125000D01*
X174650000Y-140950000D02*
X174625000Y-140975000D01*
D117*
X150020000Y-125000000D02*
X150020000Y-126132579D01*
D118*
X159110400Y-128144600D02*
X159110400Y-128088005D01*
X152737500Y-120937500D02*
X150587500Y-120937500D01*
D117*
X166713235Y-128363235D02*
X166713235Y-128286321D01*
D118*
X178127500Y-140987500D02*
X178207500Y-140987500D01*
X178225000Y-140865000D02*
X179015000Y-140075000D01*
X154800000Y-116725000D02*
X150587500Y-120937500D01*
X178990000Y-140050000D02*
X179015000Y-140075000D01*
X173170000Y-140950000D02*
X173075000Y-140855000D01*
X158625000Y-126825000D02*
X152737500Y-120937500D01*
X181960000Y-142970000D02*
X181960000Y-141485000D01*
X182360000Y-141085000D02*
X188375000Y-141085000D01*
D117*
X158675000Y-128523405D02*
X158675000Y-129515000D01*
D118*
X178225000Y-140890000D02*
X178127500Y-140987500D01*
%TO.N,/ADC1_CH1*%
X168540000Y-101750000D02*
X168540000Y-99690000D01*
X168540000Y-101750000D02*
X168540000Y-102185000D01*
X161675000Y-107300000D02*
X161675000Y-115175000D01*
X176525000Y-129425000D02*
X176025000Y-129925000D01*
X176025000Y-129925000D02*
X175526471Y-129925000D01*
X168540000Y-99690000D02*
X168475000Y-99625000D01*
X168540000Y-102185000D02*
X168125000Y-102600000D01*
X164250000Y-116300000D02*
X170875000Y-122925000D01*
X168240000Y-130650686D02*
X168240000Y-132190000D01*
X162800000Y-116300000D02*
X164250000Y-116300000D01*
X175276471Y-129675000D02*
X169215686Y-129675000D01*
X172851471Y-122925000D02*
X173951471Y-124025000D01*
X168475000Y-99625000D02*
X168362500Y-99512500D01*
X161675000Y-115175000D02*
X162800000Y-116300000D01*
X176525000Y-124701471D02*
X176525000Y-129425000D01*
X170875000Y-122925000D02*
X172851471Y-122925000D01*
X168125000Y-102600000D02*
X166375000Y-102600000D01*
X173951471Y-124025000D02*
X175848529Y-124025000D01*
X168240000Y-132190000D02*
X169250000Y-133200000D01*
X169215686Y-129675000D02*
X168240000Y-130650686D01*
X169250000Y-133200000D02*
X169250000Y-133675000D01*
X175526471Y-129925000D02*
X175276471Y-129675000D01*
X166375000Y-102600000D02*
X161675000Y-107300000D01*
X175848529Y-124025000D02*
X176525000Y-124701471D01*
X168362500Y-99512500D02*
X166500000Y-99512500D01*
D117*
%TO.N,Net-(D1-A1)*%
X149650000Y-136260000D02*
X149650000Y-135375000D01*
X152250000Y-133725000D02*
X150600000Y-135375000D01*
X152250000Y-132825000D02*
X152250000Y-133725000D01*
D118*
X143895919Y-136754081D02*
X133950000Y-146700000D01*
D117*
X150600000Y-135375000D02*
X149650000Y-135375000D01*
D118*
X144214867Y-136754081D02*
X143895919Y-136754081D01*
D117*
X149260000Y-136650000D02*
X149650000Y-136260000D01*
%TO.N,Net-(J1-CC2)*%
X152101117Y-145130000D02*
X150072500Y-143101383D01*
X150072500Y-143101383D02*
X150072500Y-142282500D01*
X154270000Y-145130000D02*
X152101117Y-145130000D01*
D118*
%TO.N,Net-(J1-CC1)*%
X147072500Y-142282500D02*
X147072500Y-141507500D01*
X146620000Y-141055000D02*
X147072500Y-141507500D01*
X146620000Y-140710000D02*
X146620000Y-141055000D01*
%TO.N,Net-(J2-~{RESET})*%
X177335000Y-134685000D02*
X177350000Y-134670000D01*
X177350000Y-134670000D02*
X177365000Y-134685000D01*
X175470000Y-134680000D02*
X175475000Y-134685000D01*
X173600000Y-135575000D02*
X173600000Y-134710000D01*
X177365000Y-134685000D02*
X192765000Y-134685000D01*
X170300000Y-139375000D02*
X170225000Y-139450000D01*
X173625000Y-134685000D02*
X175465000Y-134685000D01*
X173600000Y-134710000D02*
X173625000Y-134685000D01*
X192765000Y-134685000D02*
X194950000Y-132500000D01*
X194280000Y-125890000D02*
X193255000Y-125890000D01*
X194950000Y-132500000D02*
X194950000Y-126560000D01*
X194950000Y-126560000D02*
X194280000Y-125890000D01*
X171150000Y-139375000D02*
X170300000Y-139375000D01*
X175465000Y-134685000D02*
X175470000Y-134680000D01*
%TO.N,Net-(JP1-B)*%
X162825000Y-121035000D02*
X162825000Y-118785000D01*
X162825000Y-118785000D02*
X162440000Y-118400000D01*
%TO.N,Net-(JP1-A)*%
X162825000Y-130426471D02*
X161250000Y-132001471D01*
X162825000Y-123575000D02*
X162825000Y-130426471D01*
X161250000Y-132001471D02*
X161250000Y-133675000D01*
D117*
%TO.N,/BOOT*%
X171150000Y-136975000D02*
X176935000Y-136975000D01*
X181070000Y-141930000D02*
X180325000Y-142675000D01*
X180035000Y-142385000D02*
X180325000Y-142675000D01*
X180035000Y-140075000D02*
X180035000Y-142385000D01*
X181070000Y-141350000D02*
X181070000Y-141930000D01*
X176935000Y-136975000D02*
X180035000Y-140075000D01*
%TO.N,/START{slash}STOP*%
X189910000Y-140990000D02*
X189910000Y-140200000D01*
D118*
X173290000Y-131320000D02*
X176170000Y-134200000D01*
D117*
X191000000Y-142530000D02*
X191000000Y-142750000D01*
X189605000Y-141295000D02*
X188375000Y-140065000D01*
X188375000Y-140065000D02*
X188535000Y-140065000D01*
D118*
X176170000Y-135350000D02*
X179670000Y-138850000D01*
X188375000Y-139850000D02*
X188375000Y-140065000D01*
D117*
X166850000Y-132425000D02*
X166875000Y-132400000D01*
D118*
X187375000Y-138850000D02*
X188375000Y-139850000D01*
X171240000Y-131320000D02*
X173290000Y-131320000D01*
X176170000Y-134200000D02*
X176170000Y-135350000D01*
X179670000Y-138850000D02*
X187375000Y-138850000D01*
D117*
X191000000Y-142690000D02*
X189605000Y-141295000D01*
X166850000Y-133675000D02*
X166850000Y-132425000D01*
X189605000Y-141295000D02*
X189910000Y-140990000D01*
X191000000Y-142750000D02*
X191000000Y-142690000D01*
%TO.N,Net-(U200-GPIO8)*%
X160440000Y-130535000D02*
X160475001Y-130535000D01*
X162050000Y-132109999D02*
X162050000Y-133675000D01*
X160410000Y-130535000D02*
X160425000Y-130550000D01*
X162040001Y-132100000D02*
X162050000Y-132109999D01*
X158675000Y-130535000D02*
X160410000Y-130535000D01*
X162000000Y-132059999D02*
X162000000Y-132100000D01*
X160425000Y-130550000D02*
X160440000Y-130535000D01*
X162000000Y-132100000D02*
X162040001Y-132100000D01*
D118*
%TO.N,/FSPICLK*%
X175785635Y-117165660D02*
X175301148Y-116681173D01*
X168995711Y-127700000D02*
X170400000Y-127700000D01*
X172660000Y-125450000D02*
X171900000Y-125450000D01*
X171900000Y-124725000D02*
X172575000Y-124050000D01*
X175785635Y-120889365D02*
X175785635Y-117165660D01*
X173080000Y-125030000D02*
X172660000Y-125450000D01*
X170400000Y-127700000D02*
X171275000Y-126825000D01*
X171900000Y-124725000D02*
X171900000Y-125450000D01*
X163650000Y-133045711D02*
X168995711Y-127700000D01*
X173725000Y-122950000D02*
X175785635Y-120889365D01*
X163650000Y-133675000D02*
X163650000Y-133045711D01*
%TO.N,Net-(U1-DCKO)*%
X173948852Y-116318827D02*
X171518063Y-115328630D01*
%TO.N,Net-(U1-DOUT)*%
X173741797Y-117091567D02*
X171142486Y-116034988D01*
%TO.N,/FSPID*%
X170630000Y-123750000D02*
X169440000Y-124940000D01*
X169440000Y-125990000D02*
X169690000Y-126240000D01*
X175094093Y-120655909D02*
X175094093Y-117453914D01*
X169440000Y-124940000D02*
X169440000Y-125990000D01*
X172160000Y-122190000D02*
X173275000Y-121075000D01*
X162850000Y-133080000D02*
X169690000Y-126240000D01*
X162850000Y-133675000D02*
X162850000Y-133080000D01*
X174675002Y-121075000D02*
X175094093Y-120655909D01*
X173275000Y-121075000D02*
X174675002Y-121075000D01*
%TO.N,Net-(U2-DOUT)*%
X169906359Y-115377729D02*
X167628449Y-113788009D01*
%TO.N,Net-(U2-DCKO)*%
X170281937Y-114671370D02*
X168153297Y-113184242D01*
%TO.N,Net-(U3-DOUT)*%
X166571857Y-112869527D02*
X164625000Y-110875000D01*
X164625000Y-110875000D02*
X164646086Y-109719093D01*
%TO.N,Net-(U3-DCKO)*%
X165450000Y-110825000D02*
X165418827Y-109926147D01*
X167096703Y-112265758D02*
X165450000Y-110825000D01*
%TO.N,Net-(U4-DOUT)*%
X165008432Y-108366796D02*
X167318784Y-105957180D01*
%TO.N,Net-(U4-DCKO)*%
X165781173Y-108573853D02*
X167718783Y-106650000D01*
%TO.N,/D_FS_P*%
X151175000Y-138823529D02*
X150823529Y-139175000D01*
X153475000Y-136175000D02*
X151175000Y-138475000D01*
X150823529Y-139175000D02*
X149798514Y-139175000D01*
X151175000Y-138475000D02*
X151175000Y-138823529D01*
X159350000Y-136175000D02*
X153475000Y-136175000D01*
X149798514Y-139175000D02*
X149648500Y-139024986D01*
%TO.N,/D_N*%
X147951500Y-137725014D02*
X147449101Y-137725014D01*
X147240000Y-137934115D02*
X147240000Y-141025000D01*
X147522500Y-142232500D02*
X147572500Y-142282500D01*
X147449101Y-137725014D02*
X147240000Y-137934115D01*
X147240000Y-141025000D02*
X147622500Y-141407500D01*
X147572500Y-142282500D02*
X147572500Y-141457500D01*
X148572500Y-141625000D02*
X148572500Y-142282500D01*
X147572500Y-141457500D02*
X147622500Y-141407500D01*
X147622500Y-141407500D02*
X148355000Y-141407500D01*
X148355000Y-141407500D02*
X148572500Y-141625000D01*
%TO.N,/D_FS_N*%
X153248514Y-135375000D02*
X150898500Y-137725014D01*
X153248514Y-135375000D02*
X159350000Y-135375000D01*
X150898500Y-137725014D02*
X149648500Y-137725014D01*
%TO.N,/D_P*%
X147640000Y-139336486D02*
X147951500Y-139024986D01*
X149072500Y-143107500D02*
X149072500Y-142282500D01*
X148122500Y-143157500D02*
X149022500Y-143157500D01*
X149072500Y-141559314D02*
X148520686Y-141007500D01*
X148050000Y-142260000D02*
X148072500Y-142282500D01*
X149072500Y-142282500D02*
X149072500Y-141559314D01*
X148072500Y-143107500D02*
X148122500Y-143157500D01*
X148520686Y-141007500D02*
X147788186Y-141007500D01*
X149022500Y-143157500D02*
X149072500Y-143107500D01*
X148072500Y-142282500D02*
X148072500Y-143107500D01*
X147640000Y-140859314D02*
X147640000Y-139336486D01*
X147788186Y-141007500D02*
X147640000Y-140859314D01*
%TO.N,/LED_CHAIN1/DCKI*%
X172814365Y-105028447D02*
X175365297Y-104495537D01*
%TO.N,/LED_CHAIN1/DIN*%
X172675447Y-104240601D02*
X175198968Y-103713019D01*
%TO.N,Net-(U7-DCKO)*%
X176734703Y-104204463D02*
X179142216Y-103414415D01*
%TO.N,Net-(U7-DOUT)*%
X176568373Y-103421945D02*
X178868600Y-102662660D01*
%TO.N,Net-(U10-DIN)*%
X182760312Y-99802221D02*
X182945478Y-97773714D01*
%TO.N,Net-(U10-DCKI)*%
X183431248Y-100237932D02*
X183687225Y-97474029D01*
%TO.N,Net-(U5-DOUT)*%
X168531217Y-105257180D02*
X171296716Y-104483707D01*
%TO.N,Net-(U5-DCKO)*%
X168931217Y-105950000D02*
X171435635Y-105271553D01*
%TO.N,Net-(U8-DOUT)*%
X180184169Y-102183832D02*
X181997817Y-100976357D01*
%TO.N,Net-(U10-DOUT)*%
X182421028Y-96475656D02*
X180784492Y-95218867D01*
%TO.N,Net-(U10-DCKO)*%
X183162775Y-96175971D02*
X180937138Y-94433565D01*
%TO.N,Net-(U8-DCKO)*%
X180457784Y-102935585D02*
X182668752Y-101412068D01*
%TO.N,Net-(U11-DOUT)*%
X179410214Y-94951735D02*
X176902612Y-94632965D01*
%TO.N,Net-(U11-DCKO)*%
X179562862Y-94166435D02*
X176972336Y-93836009D01*
%TO.N,Net-(U12-DCKO)*%
X175577664Y-93713991D02*
X173000000Y-93550000D01*
%TO.N,Net-(U12-DOUT)*%
X175507939Y-94510947D02*
X173000000Y-94350000D01*
%TO.N,Net-(U13-DCKO)*%
X171600000Y-93550000D02*
X168999041Y-93563364D01*
%TO.N,Net-(U13-DOUT)*%
X171600000Y-94350000D02*
X169040909Y-94362269D01*
%TO.N,Net-(U21-DOUT)*%
X140868231Y-101159916D02*
X138586897Y-102270011D01*
%TO.N,Net-(U21-DCKO)*%
X140555646Y-100423512D02*
X138223704Y-101557206D01*
%TO.N,Net-(U41-DOUT)*%
X106637659Y-113743599D02*
X107621029Y-111174344D01*
%TO.N,Net-(U41-DCKO)*%
X107389414Y-114017215D02*
X108362775Y-111474027D01*
%TO.N,Net-(U90-DOUT)*%
X193664689Y-101422781D02*
X192156825Y-103585453D01*
%TO.N,Net-(U43-DOUT)*%
X109720478Y-105951286D02*
X110746028Y-103399343D01*
%TO.N,Net-(U43-DCKO)*%
X110462225Y-106250971D02*
X111487775Y-103699027D01*
%TO.N,Net-(U51-DOUT)*%
X122095477Y-75451286D02*
X123096028Y-72999343D01*
%TO.N,Net-(U51-DCKO)*%
X122837225Y-75750973D02*
X123837776Y-73299028D01*
%TO.N,Net-(U90-DCKO)*%
X192993754Y-100987070D02*
X191501503Y-103126594D01*
%TO.N,Net-(U14-DCKO)*%
X167600959Y-93636636D02*
X164971165Y-93851830D01*
%TO.N,Net-(U14-DOUT)*%
X167642828Y-94435539D02*
X165054789Y-94647446D01*
%TO.N,Net-(U15-DCKO)*%
X163578835Y-93998170D02*
X161018187Y-94327579D01*
%TO.N,Net-(U15-DOUT)*%
X163662458Y-94793787D02*
X161129526Y-95119794D01*
%TO.N,Net-(U17-DOUT)*%
X155856626Y-96078055D02*
X153368393Y-96701063D01*
%TO.N,Net-(U17-DCKO)*%
X155690297Y-95295537D02*
X153147884Y-95932054D01*
%TO.N,Net-(U18-DCKO)*%
X151802116Y-96317946D02*
X149340739Y-97083688D01*
%TO.N,Net-(U18-DOUT)*%
X152022627Y-97086956D02*
X149587953Y-97844533D01*
%TO.N,Net-(U19-DCKO)*%
X148009261Y-97516312D02*
X145561863Y-98397102D01*
%TO.N,Net-(U19-DOUT)*%
X148256474Y-98277157D02*
X145822318Y-99153517D01*
%TO.N,Net-(U20-DCKO)*%
X144238137Y-98852898D02*
X141844354Y-99876488D01*
%TO.N,Net-(U20-DOUT)*%
X144498591Y-99609312D02*
X142156938Y-100612892D01*
%TO.N,Net-(U22-DCKO)*%
X135725000Y-103300000D02*
X134614365Y-103571554D01*
X136976296Y-102192794D02*
X135725000Y-103300000D01*
%TO.N,Net-(U22-DOUT)*%
X137339489Y-102905599D02*
X135875000Y-103900000D01*
X135875000Y-103900000D02*
X134475447Y-104359400D01*
%TO.N,Net-(U23-DCKO)*%
X132150000Y-101350000D02*
X131873407Y-100851504D01*
X133235635Y-103328446D02*
X132100000Y-102300000D01*
X132100000Y-102300000D02*
X132150000Y-101350000D01*
%TO.N,Net-(U23-DOUT)*%
X133096716Y-104116292D02*
X131600000Y-102675000D01*
X131600000Y-102675000D02*
X131414547Y-101506825D01*
%TO.N,Net-(U24-DCKO)*%
X128600000Y-100050000D02*
X127845202Y-100356608D01*
X130726593Y-100048496D02*
X128600000Y-100050000D01*
%TO.N,Net-(U24-DOUT)*%
X130267732Y-100703818D02*
X128380505Y-100951124D01*
%TO.N,Net-(U26-DCKO)*%
X126672421Y-105418188D02*
X127090497Y-107983619D01*
%TO.N,Net-(U26-DOUT)*%
X127464636Y-105306849D02*
X127880647Y-107858471D01*
%TO.N,Net-(U27-DCKO)*%
X127309503Y-109366381D02*
X127778446Y-111935634D01*
%TO.N,Net-(U27-DOUT)*%
X128099654Y-109241234D02*
X128566292Y-111796715D01*
%TO.N,Net-(U28-DCKO)*%
X128021554Y-113314366D02*
X128490495Y-115883618D01*
%TO.N,Net-(U28-DOUT)*%
X128809400Y-113175447D02*
X129280646Y-115758471D01*
%TO.N,Net-(U29-DOUT)*%
X129499655Y-117141234D02*
X129966292Y-119696716D01*
%TO.N,Net-(U29-DCKO)*%
X128709505Y-117266382D02*
X129178446Y-119835635D01*
%TO.N,Net-(U30-DCKO)*%
X129421554Y-121214365D02*
X129865496Y-123783619D01*
%TO.N,Net-(U30-DOUT)*%
X130209400Y-121075447D02*
X130655646Y-123658471D01*
%TO.N,Net-(U31-DCKO)*%
X130084504Y-125166381D02*
X130037224Y-127800971D01*
%TO.N,Net-(U31-DOUT)*%
X130874655Y-125041234D02*
X130778972Y-128100656D01*
%TO.N,Net-(U32-DOUT)*%
X130254522Y-129398714D02*
X127633204Y-131691568D01*
%TO.N,Net-(U32-DCKO)*%
X129512776Y-129099029D02*
X127426148Y-130918827D01*
%TO.N,Net-(U33-DOUT)*%
X126280907Y-132053913D02*
X123527493Y-132350083D01*
%TO.N,Net-(U33-DCKO)*%
X126073852Y-131281173D02*
X123499574Y-131550570D01*
%TO.N,Net-(U35-DOUT)*%
X118045900Y-132299222D02*
X115277373Y-131911956D01*
%TO.N,Net-(U35-DCKO)*%
X118101704Y-131501171D02*
X115497883Y-131142947D01*
%TO.N,Net-(U37-DOUT)*%
X110163461Y-129410764D02*
X108171182Y-127382268D01*
%TO.N,Net-(U37-DCKO)*%
X110633690Y-128763550D02*
X108826502Y-126923408D01*
%TO.N,Net-(U38-DCKO)*%
X108023498Y-125776592D02*
X106942946Y-123397882D01*
%TO.N,Net-(U38-DOUT)*%
X107368175Y-126235453D02*
X106173937Y-123618393D01*
%TO.N,Net-(U39-DCKO)*%
X106557054Y-122052118D02*
X106251171Y-119398295D01*
%TO.N,Net-(U39-DOUT)*%
X105788044Y-122272627D02*
X105453120Y-119342489D01*
%TO.N,Net-(U40-DOUT)*%
X105550777Y-117945899D02*
X106158832Y-115059168D01*
%TO.N,Net-(U40-DCKO)*%
X106348829Y-118001705D02*
X106910586Y-115332785D01*
%TO.N,Net-(U44-DOUT)*%
X111270478Y-102101286D02*
X112296028Y-99549343D01*
%TO.N,Net-(U44-DCKO)*%
X112012225Y-102400973D02*
X113037775Y-99849029D01*
%TO.N,/LED_CHAIN1/CLOCK_CHAIN_1_TO_2*%
X159631813Y-94522421D02*
X157059703Y-95004463D01*
%TO.N,/LED_CHAIN1/DATA_CHAIN_1_TO_2*%
X159743151Y-95314636D02*
X157226033Y-95786980D01*
%TO.N,/LED_CHAIN1/DATA_CHAIN_3_TO_4*%
X122128346Y-132398942D02*
X119442489Y-132396880D01*
%TO.N,/LED_CHAIN1/CLOCK_CHAIN_3_TO_4*%
X122100426Y-131599430D02*
X119498296Y-131598829D01*
%TO.N,Net-(U47-DCKO)*%
X116662225Y-90925971D02*
X117687775Y-88424029D01*
%TO.N,/LED_CHAIN1/CLOCK_CHAIN_2_TO_3*%
X126804798Y-101293392D02*
X126350000Y-103150000D01*
X126350000Y-103150000D02*
X126477579Y-104031812D01*
%TO.N,Net-(U47-DOUT)*%
X115920478Y-90626286D02*
X116946028Y-88124343D01*
%TO.N,/LED_CHAIN1/DATA_CHAIN_2_TO_3*%
X127340102Y-101887908D02*
X127269793Y-103920474D01*
%TO.N,Net-(U48-DOUT)*%
X117470478Y-86826286D02*
X118458803Y-84298372D01*
%TO.N,Net-(U48-DCKO)*%
X118212225Y-87125971D02*
X119200550Y-84598058D01*
%TO.N,Net-(U49-DCKO)*%
X120787776Y-80774027D02*
X120700973Y-80774027D01*
X119725000Y-83300000D02*
X120787776Y-80774027D01*
%TO.N,Net-(U49-DOUT)*%
X118983253Y-83000315D02*
X120046028Y-80474343D01*
%TO.N,Net-(U50-DOUT)*%
X120570477Y-79176286D02*
X121571028Y-76749343D01*
%TO.N,Net-(U50-DCKO)*%
X121312224Y-79475973D02*
X122312775Y-77049028D01*
%TO.N,/LED_CHAIN1/DOUT*%
X113931607Y-131526063D02*
X111296083Y-130233664D01*
%TO.N,/LED_CHAIN1/DCKO*%
X114152117Y-130757053D02*
X111766310Y-129586450D01*
%TO.N,Net-(U56-DOUT)*%
X129737108Y-56843062D02*
X132371716Y-54533708D01*
%TO.N,Net-(U56-DCKO)*%
X130473512Y-57155647D02*
X132510633Y-55321553D01*
%TO.N,Net-(U57-DOUT)*%
X133750447Y-54290601D02*
X137192820Y-55943782D01*
%TO.N,Net-(U57-DCKO)*%
X133889367Y-55078447D02*
X136500000Y-56343782D01*
%TO.N,Net-(U58-DOUT)*%
X137892820Y-57156218D02*
X137978972Y-60650657D01*
%TO.N,Net-(U58-DCKO)*%
X137200000Y-57556218D02*
X137237224Y-60350972D01*
%TO.N,Net-(U59-DOUT)*%
X137454523Y-61948714D02*
X136434916Y-64443232D01*
%TO.N,Net-(U59-DCKO)*%
X136712776Y-61649028D02*
X135698512Y-64130646D01*
%TO.N,Net-(U60-DOUT)*%
X135887892Y-65731938D02*
X134916168Y-68115831D01*
%TO.N,Net-(U60-DCKO)*%
X135151488Y-65419354D02*
X134164414Y-67842216D01*
%TO.N,Net-(U65-DCKO)*%
X129826593Y-84401503D02*
X127432785Y-85535586D01*
%TO.N,Net-(U65-DOUT)*%
X130285456Y-85056825D02*
X127706401Y-86287340D01*
%TO.N,Net-(U68-DCKO)*%
X122525000Y-92081218D02*
X124125000Y-93200000D01*
X124125000Y-93200000D02*
X125217941Y-93107466D01*
%TO.N,Net-(U68-DOUT)*%
X123217821Y-91681217D02*
X125037980Y-92327970D01*
%TO.N,Net-(U69-DCKO)*%
X126582059Y-92792534D02*
X129030587Y-92029661D01*
%TO.N,Net-(U69-DOUT)*%
X126402098Y-92013038D02*
X128796689Y-91264616D01*
%TO.N,/LED_CHAIN2/CLOCK_CHAIN_1_TO_2*%
X115112225Y-94750971D02*
X116137775Y-92224029D01*
%TO.N,/LED_CHAIN2/DATA_CHAIN_1_TO_2*%
X114370478Y-94451286D02*
X115396028Y-91924343D01*
%TO.N,/LED_CHAIN2/DATA_CHAIN_3_TO_4*%
X132800000Y-81000000D02*
X131432268Y-84253818D01*
%TO.N,/LED_CHAIN2/CLOCK_CHAIN_3_TO_4*%
X132000000Y-81000000D02*
X130973407Y-83598497D01*
%TO.N,/LED_CHAIN2/CLOCK_CHAIN_2_TO_3*%
X128948512Y-60855646D02*
X129926488Y-58444353D01*
%TO.N,/LED_CHAIN2/DATA_CHAIN_2_TO_3*%
X128212109Y-60543061D02*
X129190084Y-58131768D01*
%TO.N,/LED_CHAIN2/DCKO*%
X126117215Y-86014414D02*
X123706218Y-87150000D01*
%TO.N,/LED_CHAIN2/DOUT*%
X126390831Y-86766168D02*
X124106218Y-87842820D01*
%TO.N,Net-(U88-DOUT)*%
X196557965Y-93427612D02*
X196316168Y-96440831D01*
%TO.N,Net-(U88-DCKO)*%
X195761009Y-93497336D02*
X195564415Y-96167216D01*
%TO.N,Net-(U89-DOUT)*%
X195837340Y-97756401D02*
X194427184Y-100248642D01*
%TO.N,Net-(U89-DCKO)*%
X195085585Y-97482784D02*
X193756246Y-99812930D01*
%TO.N,Net-(U42-DCKO)*%
X108887225Y-110175973D02*
X109937775Y-107549029D01*
%TO.N,Net-(U42-DOUT)*%
X108145477Y-109876286D02*
X109196028Y-107249344D01*
%TO.N,Net-(U45-DOUT)*%
X112820478Y-98251286D02*
X113846028Y-95749343D01*
%TO.N,Net-(U45-DCKO)*%
X113562225Y-98550971D02*
X114587775Y-96049029D01*
%TO.N,Net-(U52-DOUT)*%
X123620477Y-71701286D02*
X124621028Y-69249343D01*
%TO.N,Net-(U52-DCKO)*%
X124362224Y-72000972D02*
X125362775Y-69549027D01*
%TO.N,Net-(U53-DOUT)*%
X125145478Y-67951286D02*
X126136029Y-65539342D01*
%TO.N,Net-(U53-DCKO)*%
X125887225Y-68250973D02*
X126877774Y-65839030D01*
%TO.N,Net-(U54-DCKO)*%
X127402226Y-64540970D02*
X128401488Y-62144354D01*
%TO.N,Net-(U54-DOUT)*%
X126660477Y-64241288D02*
X127665084Y-61831769D01*
%TO.N,Net-(U61-DOUT)*%
X134437340Y-69431401D02*
X133628914Y-71880907D01*
%TO.N,Net-(U61-DCKO)*%
X133685586Y-69157784D02*
X132856173Y-71673851D01*
%TO.N,Net-(U62-DCKO)*%
X132493827Y-73026149D02*
X132086636Y-75600960D01*
%TO.N,Net-(U62-DOUT)*%
X133266567Y-73233203D02*
X132885539Y-75642828D01*
%TO.N,Net-(U63-DCKO)*%
X132013364Y-76999040D02*
X132000000Y-79600000D01*
%TO.N,Net-(U63-DOUT)*%
X132812268Y-77040909D02*
X132800000Y-79600000D01*
%TO.N,Net-(U67-DCKO)*%
X121875000Y-89075000D02*
X121825000Y-90868782D01*
X122493782Y-87850000D02*
X121875000Y-89075000D01*
%TO.N,Net-(U67-DOUT)*%
X122893782Y-88542820D02*
X122517821Y-90468783D01*
%TO.N,Net-(U70-DOUT)*%
X130135516Y-90855296D02*
X132666797Y-90033434D01*
%TO.N,Net-(U70-DCKO)*%
X130369413Y-91620339D02*
X132873852Y-90806173D01*
%TO.N,Net-(U71-DCKO)*%
X134226148Y-90443827D02*
X136760635Y-89846553D01*
%TO.N,Net-(U71-DOUT)*%
X134019093Y-89671086D02*
X136621716Y-89058708D01*
%TO.N,Net-(U72-DOUT)*%
X138000447Y-88815600D02*
X140750000Y-88525000D01*
%TO.N,Net-(U72-DCKO)*%
X138139365Y-89603447D02*
X140750000Y-89325000D01*
%TO.N,Net-(U73-DOUT)*%
X142150000Y-88525000D02*
X144874553Y-88815600D01*
%TO.N,Net-(U73-DCKO)*%
X142150000Y-89325000D02*
X144735634Y-89603446D01*
%TO.N,Net-(U74-DOUT)*%
X146253284Y-89058708D02*
X148799553Y-89565600D01*
%TO.N,Net-(U74-DCKO)*%
X146114366Y-89846554D02*
X148660635Y-90353446D01*
%TO.N,Net-(U75-DCKO)*%
X150039365Y-90596554D02*
X152577664Y-91088991D01*
%TO.N,Net-(U75-DOUT)*%
X150178284Y-89808708D02*
X152647388Y-90292035D01*
%TO.N,/LED_CHAIN3/DATA_CHAIN_1_TO_2*%
X154042061Y-90414054D02*
X156550000Y-90525000D01*
%TO.N,/LED_CHAIN3/CLOCK_CHAIN_1_TO_2*%
X153972336Y-91211009D02*
X156550000Y-91325000D01*
%TO.N,Net-(U77-DOUT)*%
X157950000Y-90525000D02*
X160176286Y-89795478D01*
%TO.N,Net-(U77-DCKO)*%
X157950000Y-91325000D02*
X160475971Y-90537225D01*
%TO.N,Net-(U78-DOUT)*%
X161474344Y-89271028D02*
X163662951Y-88099792D01*
%TO.N,Net-(U78-DCKO)*%
X161774029Y-90012775D02*
X164074983Y-88785527D01*
%TO.N,Net-(U79-DOUT)*%
X164862987Y-87378740D02*
X167093782Y-85982180D01*
%TO.N,Net-(U79-DCKO)*%
X165275017Y-88064473D02*
X167493782Y-86675001D01*
%TO.N,Net-(U80-DOUT)*%
X168306218Y-85282180D02*
X170887047Y-84230466D01*
%TO.N,Net-(U80-DCKO)*%
X168706218Y-85974999D02*
X171134260Y-84991311D01*
%TO.N,Net-(U81-DOUT)*%
X172218526Y-83797844D02*
X175075000Y-83425000D01*
%TO.N,Net-(U81-DCKO)*%
X172465740Y-84558689D02*
X175075000Y-84225000D01*
%TO.N,Net-(U82-DOUT)*%
X176475000Y-83425000D02*
X179078345Y-83476058D01*
%TO.N,Net-(U82-DCKO)*%
X176475000Y-84225000D02*
X179050426Y-84275571D01*
%TO.N,Net-(U83-DOUT)*%
X180477493Y-83524918D02*
X183067828Y-83689461D01*
%TO.N,Net-(U83-DCKO)*%
X180449574Y-84324429D02*
X183025960Y-84488367D01*
%TO.N,Net-(U84-DOUT)*%
X184465910Y-83762730D02*
X187047388Y-83992036D01*
%TO.N,Net-(U84-DCKO)*%
X184424040Y-84561633D02*
X186977663Y-84788992D01*
%TO.N,/LED_CHAIN3/CLOCK_CHAIN_2_TO_3*%
X188372337Y-84911008D02*
X190849983Y-85789473D01*
%TO.N,/LED_CHAIN3/DATA_CHAIN_2_TO_3*%
X188442061Y-84114054D02*
X191262013Y-85103740D01*
%TO.N,Net-(U86-DCKO)*%
X192050017Y-86510527D02*
X193893752Y-88412931D01*
%TO.N,Net-(U86-DOUT)*%
X192462048Y-85824793D02*
X194564689Y-87977218D01*
%TO.N,Net-(U87-DCKO)*%
X194656248Y-89587069D02*
X195638991Y-92102664D01*
%TO.N,Net-(U87-DOUT)*%
X195327183Y-89151359D02*
X196435946Y-92032939D01*
%TO.N,/MTDI*%
X175880000Y-127535000D02*
X175900000Y-127515000D01*
X175880000Y-127720000D02*
X175880000Y-127535000D01*
X175850000Y-127750000D02*
X174910000Y-127750000D01*
X175880000Y-127720000D02*
X175850000Y-127750000D01*
X174910000Y-127750000D02*
X174560000Y-128100000D01*
X178220000Y-128100000D02*
X188600000Y-128100000D01*
X177125000Y-127690000D02*
X177810000Y-127690000D01*
X191960000Y-127160000D02*
X193255000Y-127160000D01*
X188950000Y-127750000D02*
X188900000Y-127800000D01*
X174560000Y-128100000D02*
X169425000Y-128100000D01*
X188600000Y-128100000D02*
X188925000Y-127775000D01*
X164450000Y-133075000D02*
X164450000Y-133675000D01*
X188925000Y-127775000D02*
X188950000Y-127775000D01*
X169425000Y-128100000D02*
X164450000Y-133075000D01*
X188950000Y-127775000D02*
X188950000Y-127750000D01*
X177810000Y-127690000D02*
X178220000Y-128100000D01*
X190600000Y-125800000D02*
X191960000Y-127160000D01*
%TO.N,/MTMS*%
X177125000Y-129267129D02*
X177132871Y-129275000D01*
X190325000Y-129275000D02*
X192020000Y-130970000D01*
X165250000Y-133075000D02*
X165250000Y-133675000D01*
X192020000Y-130970000D02*
X193255000Y-130970000D01*
X169050000Y-129275000D02*
X165250000Y-133075000D01*
X175825000Y-129275000D02*
X169050000Y-129275000D01*
X177132871Y-129275000D02*
X190325000Y-129275000D01*
%TO.N,Net-(U91-DCKO)*%
X190698497Y-104273406D02*
X189292794Y-106501296D01*
%TO.N,Net-(U91-DOUT)*%
X191353818Y-104732268D02*
X190005599Y-106864488D01*
%TO.N,Net-(U92-DCKO)*%
X188657206Y-107748704D02*
X187492792Y-110076295D01*
%TO.N,Net-(U92-DOUT)*%
X189370011Y-108111897D02*
X188205599Y-110439488D01*
%TO.N,Net-(U93-DOUT)*%
X187570012Y-111686897D02*
X186405599Y-114014488D01*
%TO.N,Net-(U93-DCKO)*%
X186857208Y-111323705D02*
X185692792Y-113651295D01*
%TO.N,/LED_CHAIN3/CLOCK_CHAIN_3_TO_4*%
X185057208Y-114898705D02*
X183825000Y-116650000D01*
X183825000Y-116650000D02*
X183239366Y-117003445D01*
%TO.N,/LED_CHAIN3/DATA_CHAIN_3_TO_4*%
X185770012Y-115261897D02*
X183378285Y-117791291D01*
%TO.N,Net-(U95-DCKO)*%
X181860634Y-117246555D02*
X179246165Y-117298169D01*
%TO.N,Net-(U95-DOUT)*%
X181999553Y-118034400D02*
X179162542Y-118093787D01*
%TO.N,/MTCK*%
X171678529Y-126380000D02*
X171523529Y-126225000D01*
X170705000Y-126225000D02*
X170690000Y-126240000D01*
X175915000Y-126380000D02*
X171678529Y-126380000D01*
X177175000Y-126370000D02*
X188760000Y-126370000D01*
X188760000Y-126370000D02*
X192090000Y-129700000D01*
X177125000Y-126320000D02*
X177175000Y-126370000D01*
X171523529Y-126225000D02*
X170705000Y-126225000D01*
X175925000Y-126370000D02*
X175915000Y-126380000D01*
X192090000Y-129700000D02*
X193255000Y-129700000D01*
%TO.N,/MTDO*%
X188660000Y-125000000D02*
X192090000Y-128430000D01*
X175820000Y-125030000D02*
X174080000Y-125030000D01*
X175790000Y-125000000D02*
X175820000Y-125030000D01*
X188660000Y-125000000D02*
X177145742Y-125000000D01*
X192090000Y-128430000D02*
X193255000Y-128430000D01*
X177145742Y-125000000D02*
X177125000Y-125020742D01*
%TD*%
%TA.AperFunction,Conductor*%
%TO.N,/LDO*%
G36*
X147572132Y-128732283D02*
G01*
X147638887Y-128752909D01*
X147673486Y-128787378D01*
X147678345Y-128794650D01*
X147678346Y-128794651D01*
X147744669Y-128838967D01*
X147744670Y-128838968D01*
X147803147Y-128850599D01*
X147803150Y-128850600D01*
X147803152Y-128850600D01*
X147948107Y-128850600D01*
X148015146Y-128870285D01*
X148060901Y-128923089D01*
X148072107Y-128974600D01*
X148072107Y-129698552D01*
X148083738Y-129757029D01*
X148083740Y-129757033D01*
X148109131Y-129795033D01*
X148129236Y-129859243D01*
X148130000Y-129860000D01*
X148151200Y-129860000D01*
X148182220Y-129866170D01*
X148182397Y-129865285D01*
X148252854Y-129879299D01*
X148252857Y-129879300D01*
X148252859Y-129879300D01*
X148597157Y-129879300D01*
X148597158Y-129879299D01*
X148611892Y-129876368D01*
X148667617Y-129865285D01*
X148667793Y-129866170D01*
X148698814Y-129860000D01*
X148801186Y-129860000D01*
X148832206Y-129866170D01*
X148832383Y-129865285D01*
X148902840Y-129879299D01*
X148902843Y-129879300D01*
X148902845Y-129879300D01*
X149247143Y-129879300D01*
X149247144Y-129879299D01*
X149261878Y-129876368D01*
X149317603Y-129865285D01*
X149317779Y-129866170D01*
X149348800Y-129860000D01*
X149410000Y-129860000D01*
X149409457Y-129799235D01*
X149415277Y-129769288D01*
X149413877Y-129769010D01*
X149427893Y-129698550D01*
X149427893Y-128974600D01*
X149447578Y-128907561D01*
X149500382Y-128861806D01*
X149551893Y-128850600D01*
X149696850Y-128850600D01*
X149696851Y-128850599D01*
X149711668Y-128847652D01*
X149755329Y-128838968D01*
X149755329Y-128838967D01*
X149755331Y-128838967D01*
X149794560Y-128812754D01*
X149827271Y-128790898D01*
X149893948Y-128770020D01*
X149896162Y-128770000D01*
X149917367Y-128770000D01*
X149984406Y-128789685D01*
X150030161Y-128842489D01*
X150041358Y-128892624D01*
X150042267Y-128974600D01*
X150078605Y-132254157D01*
X150059665Y-132321411D01*
X150007371Y-132367748D01*
X149954150Y-132379530D01*
X147523877Y-132370462D01*
X147456912Y-132350528D01*
X147411354Y-132297553D01*
X147400340Y-132246122D01*
X147409655Y-128855411D01*
X147429524Y-128788428D01*
X147482454Y-128742819D01*
X147535399Y-128731766D01*
X147572132Y-128732283D01*
G37*
%TD.AperFunction*%
%TD*%
%TA.AperFunction,Conductor*%
%TO.N,GND*%
G36*
X168740706Y-133119685D02*
G01*
X168761348Y-133136319D01*
X168788681Y-133163652D01*
X168822166Y-133224975D01*
X168825000Y-133251333D01*
X168825000Y-134350000D01*
X170525000Y-134350000D01*
X170525000Y-133274000D01*
X170544685Y-133206961D01*
X170597489Y-133161206D01*
X170649000Y-133150000D01*
X171551929Y-133150000D01*
X171618968Y-133169685D01*
X171664723Y-133222489D01*
X171675925Y-133273068D01*
X171687778Y-134849568D01*
X171668599Y-134916753D01*
X171616140Y-134962904D01*
X171563782Y-134974500D01*
X170730247Y-134974500D01*
X170671770Y-134986131D01*
X170671769Y-134986132D01*
X170605447Y-135030447D01*
X170561132Y-135096769D01*
X170561131Y-135096770D01*
X170549500Y-135155247D01*
X170549500Y-135594752D01*
X170561131Y-135653229D01*
X170561132Y-135653230D01*
X170596465Y-135706109D01*
X170617343Y-135772786D01*
X170598859Y-135840166D01*
X170596465Y-135843891D01*
X170561132Y-135896769D01*
X170561131Y-135896770D01*
X170549500Y-135955247D01*
X170549500Y-136356981D01*
X170529815Y-136424020D01*
X170477011Y-136469775D01*
X170426082Y-136480980D01*
X169570000Y-136485000D01*
X169570000Y-141485000D01*
X171550413Y-141475591D01*
X171617543Y-141494957D01*
X171663548Y-141547543D01*
X171675000Y-141599590D01*
X171675000Y-143876000D01*
X171655315Y-143943039D01*
X171602511Y-143988794D01*
X171551000Y-144000000D01*
X158949000Y-144000000D01*
X158881961Y-143980315D01*
X158836206Y-143927511D01*
X158825000Y-143876000D01*
X158825000Y-143123181D01*
X158844685Y-143056142D01*
X158897489Y-143010387D01*
X158948177Y-142999184D01*
X161090000Y-142985000D01*
X161090000Y-135108823D01*
X161109685Y-135041784D01*
X161162489Y-134996029D01*
X161213819Y-134984823D01*
X168125000Y-134975000D01*
X168100085Y-134302295D01*
X168100000Y-134297706D01*
X168100000Y-133224000D01*
X168119685Y-133156961D01*
X168172489Y-133111206D01*
X168224000Y-133100000D01*
X168673667Y-133100000D01*
X168740706Y-133119685D01*
G37*
%TD.AperFunction*%
%TD*%
M02*
