M48
; DRILL file {KiCad 8.0.1} date 2024-05-15T13:00:21+0100
; FORMAT={-:-/ absolute / metric / decimal}
; #@! TF.CreationDate,2024-05-15T13:00:21+01:00
; #@! TF.GenerationSoftware,Kicad,Pcbnew,8.0.1
; #@! TF.FileFunction,Plated,1,2,PTH
FMAT,2
METRIC
; #@! TA.AperFunction,Plated,PTH,ViaDrill
T1C0.300
; #@! TA.AperFunction,Plated,PTH,ComponentDrill
T2C0.600
; #@! TA.AperFunction,Plated,PTH,ComponentDrill
T3C0.787
; #@! TA.AperFunction,Plated,PTH,ComponentDrill
T4C1.000
%
G90
G05
T1
X107.025Y-120.275
X107.425Y-116.4
X107.95Y-123.95
X108.8Y-112.525
X109.95Y-127.125
X110.4Y-108.6
X111.9Y-104.75
X112.9Y-129.425
X113.5Y-100.9
X115.0Y-97.1
X116.5Y-130.6
X116.55Y-93.275
X117.0Y-105.625
X118.125Y-89.475
X119.625Y-85.65
X120.375Y-130.85
X120.475Y-109.575
X120.55Y-127.05
X120.95Y-90.425
X122.2Y-81.325
X123.19Y-78.26
X123.65Y-85.65
X124.275Y-130.65
X124.65Y-94.3
X124.76Y-74.48
X125.175Y-102.1
X125.65Y-103.325
X126.2Y-107.275
X126.24Y-70.71
X126.85Y-84.225
X126.875Y-111.275
X127.425Y-129.35
X127.575Y-115.2
X127.75Y-66.94
X128.15Y-99.525
X128.25Y-119.175
X128.5Y-72.375
X128.6Y-77.425
X128.65Y-93.4
X128.975Y-123.1
X129.175Y-103.3
X129.32Y-63.34
X129.325Y-82.25
X129.425Y-126.675
X130.625Y-82.1
X130.925Y-59.575
X130.95Y-78.8
X131.075Y-74.725
X131.975Y-70.6
X132.025Y-56.725
X132.275Y-145.9
X132.8Y-100.925
X133.325Y-92.25
X133.425Y-66.7
X134.95Y-62.975
X134.975Y-56.725
X135.6Y-102.55
X136.25Y-91.25
X136.475Y-59.2
X137.525Y-98.475
X138.65Y-100.6
X139.975Y-90.525
X140.2Y-95.375
X142.35Y-99.0
X143.75Y-90.575
X144.215Y-136.754
X145.05Y-141.1
X146.05Y-130.55
X146.125Y-97.525
X146.23Y-138.9
X146.875Y-124.125
X147.675Y-91.325
X149.925Y-96.25
X150.46Y-135.375
X150.575Y-138.4
X151.2Y-124.125
X151.675Y-92.075
X151.902Y-141.214
X153.775Y-95.15
X155.75Y-92.05
X156.09Y-145.1
X157.75Y-94.225
X158.125Y-132.425
X158.625Y-126.825
X159.11Y-128.088
X159.45Y-132.425
X159.95Y-91.375
X160.425Y-130.55
X161.25Y-93.075
X161.5Y-136.0
X161.5Y-137.0
X161.5Y-138.0
X161.5Y-139.0
X161.5Y-140.0
X161.5Y-141.0
X161.5Y-142.0
X161.925Y-103.375
X162.0Y-132.1
X162.003Y-95.928
X162.225Y-126.69
X162.225Y-128.275
X162.5Y-142.0
X163.425Y-126.69
X163.425Y-128.275
X163.45Y-91.65
X163.5Y-142.0
X163.7Y-89.75
X164.3Y-118.275
X164.5Y-142.0
X165.5Y-142.0
X165.7Y-92.975
X166.5Y-142.0
X166.713Y-128.363
X166.825Y-110.575
X166.875Y-132.4
X167.125Y-87.65
X167.475Y-107.85
X167.5Y-100.225
X167.5Y-142.0
X167.953Y-127.123
X168.5Y-136.0
X168.5Y-137.0
X168.5Y-138.0
X168.5Y-139.0
X168.5Y-140.0
X168.5Y-141.0
X168.5Y-142.0
X169.27Y-130.47
X169.325Y-113.1
X169.394Y-132.496
X169.775Y-92.7
X170.225Y-139.45
X170.3Y-101.7
X170.56Y-130.275
X170.575Y-85.925
X170.63Y-123.75
X170.71Y-132.46
X170.775Y-106.275
X171.24Y-131.32
X171.275Y-126.825
X171.9Y-125.45
X172.16Y-122.19
X172.575Y-124.05
X172.625Y-114.975
X173.6Y-135.575
X173.725Y-122.95
X173.8Y-92.725
X173.925Y-139.7
X174.2Y-136.3
X174.275Y-85.0
X174.64Y-137.71
X174.65Y-140.95
X174.75Y-105.5
X175.175Y-89.175
X175.47Y-134.68
X175.82Y-125.03
X175.825Y-129.275
X175.88Y-127.72
X175.925Y-126.37
X176.325Y-116.05
X177.025Y-113.725
X177.1Y-148.9
X177.125Y-125.021
X177.125Y-126.32
X177.125Y-127.69
X177.125Y-129.267
X177.35Y-134.67
X177.85Y-93.15
X178.2Y-85.025
X178.225Y-140.05
X178.65Y-104.425
X179.575Y-149.175
X180.025Y-87.3
X180.175Y-116.425
X180.8Y-113.9
X181.875Y-93.85
X182.175Y-85.2
X182.85Y-102.5
X183.775Y-115.65
X184.55Y-98.025
X185.375Y-112.575
X186.1Y-85.525
X187.175Y-109.0
X188.15Y-148.925
X188.95Y-105.4
X188.95Y-127.775
X189.725Y-86.075
X190.6Y-125.8
X190.725Y-149.275
X191.1Y-96.925
X191.325Y-102.0
X192.75Y-88.2
X193.525Y-98.675
X194.675Y-91.375
X195.025Y-95.1
X199.24Y-126.0
X199.24Y-128.54
X199.27Y-129.77
T3
X128.87Y-146.7
X131.41Y-146.7
X133.95Y-146.7
T4
X162.825Y-121.035
X162.825Y-123.575
T2
G00X144.002Y-142.308
M15
G01X144.002Y-143.407
M16
G05
G00X144.002Y-146.637
M15
G01X144.002Y-147.438
M16
G05
G00X152.642Y-142.308
M15
G01X152.642Y-143.407
M16
G05
G00X152.642Y-146.637
M15
G01X152.642Y-147.438
M16
G05
M30
